<svg width="700" height="932" viewBox="0 0 700 932" fill="none" xmlns="http://www.w3.org/2000/svg">
<g clip-path="url(#clip0_2_4)">
<rect width="700" height="932" fill="white"/>
<rect x="-273" y="473" width="300" height="300" rx="150" fill="#EEF7FF"/>
<rect x="-369" y="490" width="381" height="266" rx="133" fill="white"/>
<path d="M760 -4H-17.4775C-17.4775 -4 -68.1532 194.46 -17.4775 303.176C96.9647 548.691 540.883 507.815 702.827 290.715C757.181 217.849 760 -4 760 -4Z" fill="#E4F2FF"/>
<path d="M768 -19H-1.70268C-1.70268 -19 -51.8716 177.471 -1.70268 285.097C111.595 528.151 538.746 500.02 699.07 285.097C752.881 212.96 768 -19 768 -19Z" fill="#3794E9"/>
<g opacity="0.5">
<rect x="-34" y="170" width="68" height="68" rx="34" fill="#89C6FF"/>
</g>
<rect x="-9" y="192" width="25" height="25" rx="12.5" fill="#89C6FF"/>
<rect x="679.791" y="754" width="119" height="200" rx="59.5" transform="rotate(6.54346 679.791 754)" fill="#EEF7FF"/>
<path d="M-9.86062 61.041C-9.34329 57.1263 -4.70546 55.3279 -1.68423 57.8705L23.4824 79.0501C26.3896 81.4967 25.6132 86.1638 22.0706 87.5375L-7.40537 98.9672C-10.948 100.341 -14.6677 97.4172 -14.1699 93.6503L-9.86062 61.041Z" fill="#89C6FF"/>
<rect x="678" y="14" width="43" height="36" rx="18" fill="#89C6FF"/>
<path d="M716.161 102.503C716.759 102.547 717.239 102.756 717.599 103.131C717.945 103.517 718.098 103.97 718.06 104.488C718.021 105.02 717.802 105.452 717.403 105.783C716.991 106.114 716.486 106.257 715.887 106.213C715.302 106.17 714.837 105.955 714.491 105.569C714.132 105.181 713.972 104.722 714.011 104.19C714.049 103.671 714.275 103.246 714.687 102.916C715.084 102.598 715.576 102.46 716.161 102.503ZM705.346 101.706C705.944 101.75 706.423 101.959 706.784 102.333C707.129 102.72 707.283 103.172 707.245 103.691C707.206 104.223 706.987 104.654 706.588 104.986C706.176 105.317 705.671 105.46 705.072 105.416C704.487 105.373 704.022 105.158 703.676 104.771C703.317 104.384 703.157 103.924 703.196 103.392C703.234 102.874 703.459 102.449 703.871 102.118C704.269 101.8 704.761 101.663 705.346 101.706ZM694.531 100.908C695.129 100.952 695.608 101.162 695.968 101.536C696.314 101.922 696.468 102.375 696.43 102.893C696.391 103.425 696.172 103.857 695.773 104.189C695.361 104.519 694.855 104.662 694.257 104.618C693.672 104.575 693.207 104.36 692.861 103.974C692.502 103.586 692.342 103.127 692.381 102.595C692.419 102.076 692.644 101.652 693.056 101.321C693.454 101.003 693.946 100.865 694.531 100.908ZM683.715 100.111C684.314 100.155 684.793 100.364 685.153 100.738C685.499 101.125 685.653 101.577 685.615 102.096C685.575 102.628 685.356 103.06 684.958 103.391C684.546 103.722 684.04 103.865 683.442 103.821C682.857 103.778 682.391 103.563 682.046 103.176C681.686 102.789 681.526 102.329 681.566 101.797C681.604 101.279 681.829 100.854 682.241 100.524C682.639 100.205 683.13 100.068 683.715 100.111ZM672.9 99.3134C673.499 99.3576 673.978 99.5667 674.338 99.9409C674.684 100.327 674.838 100.78 674.799 101.298C674.76 101.83 674.541 102.262 674.142 102.594C673.73 102.924 673.225 103.067 672.627 103.023C672.042 102.98 671.576 102.765 671.23 102.379C670.871 101.991 670.711 101.532 670.75 101C670.789 100.481 671.014 100.057 671.426 99.7261C671.824 99.4079 672.315 99.2703 672.9 99.3134ZM662.085 98.516C662.683 98.5601 663.163 98.7693 663.523 99.1434C663.869 99.5299 664.023 99.9824 663.984 100.501C663.945 101.033 663.726 101.465 663.327 101.796C662.915 102.127 662.41 102.27 661.812 102.226C661.226 102.183 660.761 101.968 660.415 101.582C660.056 101.194 659.896 100.734 659.935 100.202C659.974 99.6839 660.199 99.2593 660.611 98.9287C661.009 98.6104 661.5 98.4729 662.085 98.516ZM651.27 97.7186C651.868 97.7627 652.348 97.9718 652.708 98.346C653.054 98.7325 653.207 99.185 653.169 99.7036C653.13 100.235 652.911 100.667 652.512 100.999C652.1 101.329 651.595 101.473 650.996 101.428C650.411 101.385 649.946 101.171 649.6 100.784C649.241 100.397 649.081 99.9369 649.12 99.405C649.158 98.8865 649.383 98.4619 649.796 98.1313C650.193 97.813 650.685 97.6754 651.27 97.7186ZM640.455 96.9211C641.053 96.9652 641.532 97.1744 641.893 97.5486C642.238 97.935 642.392 98.3876 642.354 98.9062C642.315 99.438 642.096 99.8698 641.697 100.201C641.285 100.532 640.78 100.675 640.181 100.631C639.596 100.588 639.131 100.373 638.785 99.9866C638.426 99.5992 638.266 99.1395 638.305 98.6076C638.343 98.089 638.568 97.6644 638.98 97.3338C639.378 97.0156 639.87 96.878 640.455 96.9211ZM629.64 96.1237C630.238 96.1678 630.717 96.377 631.077 96.7511C631.423 97.1376 631.577 97.5901 631.539 98.1087C631.5 98.6406 631.281 99.0723 630.882 99.4039C630.47 99.7345 629.964 99.8777 629.366 99.8336C628.781 99.7905 628.315 99.5757 627.97 99.1892C627.61 98.8017 627.451 98.3421 627.49 97.8102C627.528 97.2916 627.753 96.867 628.165 96.5364C628.563 96.2181 629.055 96.0806 629.64 96.1237ZM618.824 95.3263C619.423 95.3704 619.902 95.5795 620.262 95.9537C620.608 96.3402 620.762 96.7927 620.724 97.3113C620.684 97.8432 620.465 98.2749 620.067 98.6065C619.654 98.9371 619.149 99.0803 618.551 99.0362C617.966 98.993 617.5 98.7782 617.154 98.3918C616.795 98.0043 616.635 97.5446 616.675 97.0127C616.713 96.4941 616.938 96.0696 617.35 95.739C617.748 95.4207 618.239 95.2831 618.824 95.3263ZM608.009 94.5288C608.608 94.5729 609.087 94.7821 609.447 95.1562C609.793 95.5427 609.947 95.9953 609.908 96.5138C609.869 97.0457 609.65 97.4775 609.251 97.809C608.839 98.1396 608.334 98.2829 607.736 98.2387C607.151 98.1956 606.685 97.9808 606.339 97.5943C605.98 97.2069 605.82 96.7472 605.859 96.2153C605.898 95.6967 606.123 95.2721 606.535 94.9415C606.933 94.6232 607.424 94.4857 608.009 94.5288ZM597.194 93.7314C597.792 93.7755 598.272 93.9846 598.632 94.3588C598.978 94.7453 599.131 95.1978 599.093 95.7164C599.054 96.2483 598.835 96.68 598.436 97.0116C598.024 97.3422 597.519 97.4854 596.921 97.4413C596.335 97.3982 595.87 97.1834 595.524 96.7969C595.165 96.4094 595.005 95.9498 595.044 95.4179C595.082 94.8993 595.308 94.4747 595.72 94.1441C596.118 93.8258 596.609 93.6882 597.194 93.7314ZM586.379 92.9339C586.977 92.9781 587.457 93.1872 587.817 93.5614C588.163 93.9478 588.316 94.4004 588.278 94.919C588.239 95.4509 588.02 95.8826 587.621 96.2142C587.209 96.5448 586.704 96.688 586.105 96.6439C585.52 96.6007 585.055 96.3859 584.709 95.9995C584.35 95.612 584.19 95.1523 584.229 94.6204C584.267 94.1018 584.492 93.6772 584.905 93.3467C585.302 93.0284 585.794 92.8908 586.379 92.9339ZM575.564 92.1365C576.162 92.1806 576.641 92.3898 577.001 92.7639C577.347 93.1504 577.501 93.6029 577.463 94.1215C577.424 94.6534 577.205 95.0852 576.806 95.4167C576.394 95.7473 575.889 95.8906 575.29 95.8464C574.705 95.8033 574.24 95.5885 573.894 95.202C573.535 94.8146 573.375 94.3549 573.414 93.823C573.452 93.3044 573.677 92.8798 574.089 92.5492C574.487 92.2309 574.979 92.0934 575.564 92.1365ZM564.749 91.3391C565.347 91.3832 565.826 91.5923 566.186 91.9665C566.532 92.353 566.686 92.8055 566.648 93.3241C566.609 93.856 566.389 94.2877 565.991 94.6193C565.579 94.9499 565.073 95.0931 564.475 95.049C563.89 95.0059 563.424 94.7911 563.079 94.4046C562.719 94.0171 562.559 93.5574 562.599 93.0256C562.637 92.507 562.862 92.0824 563.274 91.7518C563.672 91.4335 564.163 91.2959 564.749 91.3391ZM553.933 90.5416C554.532 90.5858 555.011 90.7949 555.371 91.1691C555.717 91.5555 555.871 92.0081 555.833 92.5267C555.793 93.0586 555.574 93.4903 555.176 93.8219C554.763 94.1525 554.258 94.2957 553.66 94.2516C553.075 94.2084 552.609 93.9936 552.263 93.6071C551.904 93.2197 551.744 92.76 551.784 92.2281C551.822 91.7095 552.047 91.2849 552.459 90.9543C552.857 90.6361 553.348 90.4985 553.933 90.5416ZM543.118 89.7442C543.717 89.7883 544.196 89.9975 544.556 90.3716C544.902 90.7581 545.056 91.2106 545.017 91.7292C544.978 92.2611 544.759 92.6929 544.36 93.0244C543.948 93.355 543.443 93.4983 542.845 93.4541C542.26 93.411 541.794 93.1962 541.448 92.8097C541.089 92.4222 540.929 91.9626 540.968 91.4307C541.007 90.9121 541.232 90.4875 541.644 90.1569C542.042 89.8386 542.533 89.7011 543.118 89.7442ZM532.303 88.9468C532.901 88.9909 533.381 89.2 533.741 89.5742C534.087 89.9607 534.24 90.4132 534.202 90.9318C534.163 91.4637 533.944 91.8954 533.545 92.227C533.133 92.5576 532.628 92.7008 532.029 92.6567C531.444 92.6136 530.979 92.3987 530.633 92.0123C530.274 91.6248 530.114 91.1651 530.153 90.6332C530.191 90.1147 530.417 89.6901 530.829 89.3595C531.227 89.0412 531.718 88.9036 532.303 88.9468ZM718.367 72.5844C718.965 72.6285 719.445 72.8377 719.805 73.2118C720.151 73.5983 720.304 74.0508 720.266 74.5694C720.227 75.1013 720.008 75.533 719.609 75.8646C719.197 76.1952 718.692 76.3385 718.093 76.2943C717.508 76.2512 717.043 76.0364 716.697 75.6499C716.338 75.2624 716.178 74.8028 716.217 74.2709C716.255 73.7523 716.481 73.3277 716.893 72.9971C717.29 72.6788 717.782 72.5413 718.367 72.5844ZM707.552 71.787C708.15 71.8311 708.629 72.0402 708.99 72.4144C709.335 72.8009 709.489 73.2534 709.451 73.772C709.412 74.3039 709.193 74.7356 708.794 75.0672C708.382 75.3978 707.877 75.541 707.278 75.4969C706.693 75.4538 706.228 75.2389 705.882 74.8525C705.523 74.465 705.363 74.0053 705.402 73.4734C705.44 72.9549 705.665 72.5303 706.077 72.1997C706.475 71.8814 706.967 71.7438 707.552 71.787ZM696.737 70.9895C697.335 71.0336 697.814 71.2428 698.174 71.617C698.52 72.0034 698.674 72.456 698.636 72.9746C698.597 73.5064 698.378 73.9382 697.979 74.2697C697.567 74.6003 697.061 74.7436 696.463 74.6995C695.878 74.6563 695.413 74.4415 695.067 74.055C694.708 73.6676 694.548 73.2079 694.587 72.676C694.625 72.1574 694.85 71.7328 695.262 71.4022C695.66 71.084 696.152 70.9464 696.737 70.9895ZM685.921 70.1921C686.52 70.2362 686.999 70.4454 687.359 70.8195C687.705 71.206 687.859 71.6585 687.821 72.1771C687.781 72.709 687.562 73.1407 687.164 73.4723C686.752 73.8029 686.246 73.9461 685.648 73.902C685.063 73.8589 684.597 73.6441 684.252 73.2576C683.892 72.8701 683.732 72.4105 683.772 71.8786C683.81 71.36 684.035 70.9354 684.447 70.6048C684.845 70.2865 685.336 70.149 685.921 70.1921ZM675.106 69.3947C675.705 69.4388 676.184 69.6479 676.544 70.0221C676.89 70.4086 677.044 70.8611 677.005 71.3797C676.966 71.9116 676.747 72.3433 676.348 72.6749C675.936 73.0055 675.431 73.1487 674.833 73.1046C674.248 73.0614 673.782 72.8466 673.436 72.4602C673.077 72.0727 672.917 71.613 672.956 71.0811C672.995 70.5625 673.22 70.138 673.632 69.8074C674.03 69.4891 674.521 69.3515 675.106 69.3947ZM664.291 68.5972C664.889 68.6413 665.369 68.8505 665.729 69.2246C666.075 69.6111 666.229 70.0637 666.19 70.5822C666.151 71.1141 665.932 71.5459 665.533 71.8774C665.121 72.208 664.616 72.3513 664.018 72.3071C663.432 72.264 662.967 72.0492 662.621 71.6627C662.262 71.2753 662.102 70.8156 662.141 70.2837C662.18 69.7651 662.405 69.3405 662.817 69.0099C663.215 68.6916 663.706 68.5541 664.291 68.5972ZM653.476 67.7998C654.074 67.8439 654.554 68.053 654.914 68.4272C655.26 68.8137 655.413 69.2662 655.375 69.7848C655.336 70.3167 655.117 70.7484 654.718 71.08C654.306 71.4106 653.801 71.5538 653.202 71.5097C652.617 71.4666 652.152 71.2518 651.806 70.8653C651.447 70.4778 651.287 70.0182 651.326 69.4863C651.364 68.9677 651.59 68.5431 652.002 68.2125C652.399 67.8942 652.891 67.7566 653.476 67.7998ZM642.661 67.0023C643.259 67.0465 643.738 67.2556 644.099 67.6298C644.444 68.0162 644.598 68.4688 644.56 68.9874C644.521 69.5193 644.302 69.951 643.903 70.2826C643.491 70.6132 642.986 70.7564 642.387 70.7123C641.802 70.6691 641.337 70.4543 640.991 70.0678C640.632 69.6804 640.472 69.2207 640.511 68.6888C640.549 68.1702 640.774 67.7456 641.186 67.4151C641.584 67.0968 642.076 66.9592 642.661 67.0023ZM631.846 66.2049C632.444 66.249 632.923 66.4582 633.283 66.8323C633.629 67.2188 633.783 67.6713 633.745 68.1899C633.706 68.7218 633.487 69.1536 633.088 69.4851C632.676 69.8157 632.17 69.959 631.572 69.9148C630.987 69.8717 630.521 69.6569 630.176 69.2704C629.817 68.883 629.657 68.4233 629.696 67.8914C629.734 67.3728 629.959 66.9482 630.371 66.6176C630.769 66.2993 631.261 66.1618 631.846 66.2049ZM621.03 65.4075C621.629 65.4516 622.108 65.6607 622.468 66.0349C622.814 66.4214 622.968 66.8739 622.93 67.3925C622.89 67.9244 622.671 68.3561 622.273 68.6877C621.86 69.0183 621.355 69.1615 620.757 69.1174C620.172 69.0743 619.706 68.8595 619.36 68.473C619.001 68.0855 618.841 67.6258 618.881 67.094C618.919 66.5754 619.144 66.1508 619.556 65.8202C619.954 65.5019 620.445 65.3643 621.03 65.4075ZM610.215 64.61C610.814 64.6542 611.293 64.8633 611.653 65.2375C611.999 65.6239 612.153 66.0765 612.114 66.5951C612.075 67.127 611.856 67.5587 611.457 67.8903C611.045 68.2209 610.54 68.3641 609.942 68.32C609.357 68.2768 608.891 68.062 608.545 67.6755C608.186 67.2881 608.026 66.8284 608.065 66.2965C608.104 65.7779 608.329 65.3533 608.741 65.0227C609.139 64.7045 609.63 64.5669 610.215 64.61ZM599.4 63.8126C599.998 63.8567 600.478 64.0659 600.838 64.44C601.184 64.8265 601.337 65.279 601.299 65.7976C601.26 66.3295 601.041 66.7612 600.642 67.0928C600.23 67.4234 599.725 67.5667 599.127 67.5225C598.541 67.4794 598.076 67.2646 597.73 66.8781C597.371 66.4906 597.211 66.031 597.25 65.4991C597.288 64.9805 597.514 64.5559 597.926 64.2253C598.324 63.907 598.815 63.7695 599.4 63.8126ZM588.585 63.0152C589.183 63.0593 589.663 63.2684 590.023 63.6426C590.369 64.0291 590.522 64.4816 590.484 65.0002C590.445 65.5321 590.226 65.9638 589.827 66.2954C589.415 66.626 588.91 66.7692 588.311 66.7251C587.726 66.682 587.261 66.4671 586.915 66.0807C586.556 65.6932 586.396 65.2335 586.435 64.7016C586.473 64.1831 586.698 63.7585 587.111 63.4279C587.508 63.1096 588 62.972 588.585 63.0152ZM720.573 42.6656C721.171 42.7097 721.651 42.9189 722.011 43.293C722.357 43.6795 722.51 44.1321 722.472 44.6506C722.433 45.1825 722.214 45.6143 721.815 45.9458C721.403 46.2764 720.898 46.4197 720.299 46.3755C719.714 46.3324 719.249 46.1176 718.903 45.7311C718.544 45.3437 718.384 44.884 718.423 44.3521C718.461 43.8335 718.687 43.4089 719.099 43.0783C719.496 42.76 719.988 42.6225 720.573 42.6656ZM709.758 41.8682C710.356 41.9123 710.835 42.1214 711.196 42.4956C711.541 42.8821 711.695 43.3346 711.657 43.8532C711.618 44.3851 711.399 44.8168 711 45.1484C710.588 45.479 710.083 45.6222 709.484 45.5781C708.899 45.535 708.434 45.3202 708.088 44.9337C707.729 44.5462 707.569 44.0866 707.608 43.5547C707.646 43.0361 707.871 42.6115 708.283 42.2809C708.681 41.9626 709.173 41.825 709.758 41.8682ZM698.943 41.0707C699.541 41.1149 700.02 41.324 700.38 41.6982C700.726 42.0846 700.88 42.5372 700.842 43.0558C700.803 43.5877 700.584 44.0194 700.185 44.351C699.773 44.6816 699.267 44.8248 698.669 44.7807C698.084 44.7375 697.619 44.5227 697.273 44.1362C696.914 43.7488 696.754 43.2891 696.793 42.7572C696.831 42.2386 697.056 41.814 697.468 41.4835C697.866 41.1652 698.358 41.0276 698.943 41.0707Z" fill="white"/>
<rect x="688.556" y="749" width="123" height="223" rx="61.5" transform="rotate(5.54712 688.556 749)" fill="#3794E9"/>
<rect x="218" y="-11" width="21" height="21" rx="10.5" fill="#89C6FF"/>
</g>
<defs>
<clipPath id="clip0_2_4">
<rect width="700" height="932" fill="white"/>
</clipPath>
</defs>
</svg>
