<svg width="650" height="932" viewBox="0 0 650 932" fill="none" xmlns="http://www.w3.org/2000/svg">
<g clip-path="url(#clip0_9_12)">
<rect width="650" height="932" fill="white"/>
<g clip-path="url(#clip1_9_12)">
<rect x="663.179" y="-100.122" width="483.204" height="691.759" rx="30" transform="rotate(80.7866 663.179 -100.122)" fill="#FFFBF5"/>
<g opacity="0.15" clip-path="url(#clip2_9_12)">
<path d="M747 -32L1 -32L0.999997 491L747 491L747 -32Z" fill="#B7ECF0"/>
<path fill-rule="evenodd" clip-rule="evenodd" d="M747 491L747 281.64L384.924 491L747 491Z" fill="#86B2B5"/>
<path fill-rule="evenodd" clip-rule="evenodd" d="M0.999998 297.49L570.784 -32L1 -32L0.999998 297.49Z" fill="#86B2B5"/>
<path fill-rule="evenodd" clip-rule="evenodd" d="M0.999999 193.797L9.206 198.547L90.147 245.35C171.248 198.44 252.295 151.584 333.396 104.674L333.396 11.0675L333.396 -32L1 -32L0.999999 193.797Z" fill="#AADCE0"/>
<path fill-rule="evenodd" clip-rule="evenodd" d="M48.2644 82.3662L90.147 58.1375L90.147 151.744L90.147 245.35C171.248 198.44 252.295 151.584 333.396 104.674L333.396 11.0675L333.396 -32L121.319 -32L48.2644 82.3662Z" fill="#95C4C7"/>
<path fill-rule="evenodd" clip-rule="evenodd" d="M1 55.0421L48.2644 82.3662L121.319 -32L1 -32L1 55.0421Z" fill="#B7ECF0"/>
<path fill-rule="evenodd" clip-rule="evenodd" d="M90.0937 151.744L90.0937 245.35C171.195 198.44 113.007 232.115 194.054 185.205L194.054 91.5988L194.054 -1.95419L90.0937 58.1374L90.0937 151.744Z" fill="#95C4C7"/>
<path fill-rule="evenodd" clip-rule="evenodd" d="M144.339 82.5263L144.339 102.005C161.177 92.2392 149.081 99.2303 165.973 89.5175L165.973 70.0384L165.973 50.5593L144.339 63.1006L144.339 82.5263Z" fill="#B7ECF0"/>
<path fill-rule="evenodd" clip-rule="evenodd" d="M118.229 97.6293L118.229 117.108C135.067 107.342 122.971 114.333 139.863 104.62L139.863 85.1413L139.863 65.6622L118.229 78.2036L118.229 97.6293Z" fill="#B7ECF0"/>
<path fill-rule="evenodd" clip-rule="evenodd" d="M144.339 127.995L144.339 147.474C161.177 137.708 149.081 144.699 165.973 134.986L165.973 115.507L165.973 96.0283L144.339 108.516L144.339 127.995Z" fill="#B7ECF0"/>
<path fill-rule="evenodd" clip-rule="evenodd" d="M118.229 143.098L118.229 162.577C135.067 152.811 122.971 159.802 139.863 150.089L139.863 130.61L139.863 111.131L118.229 123.619L118.229 143.098Z" fill="#B7ECF0"/>
<path fill-rule="evenodd" clip-rule="evenodd" d="M229.649 98.163L229.649 164.605C287.198 131.304 245.901 155.213 303.503 121.911L303.503 55.4691L303.503 -10.9733L229.649 31.7206L229.649 98.163Z" fill="#729EA1"/>
<path fill-rule="evenodd" clip-rule="evenodd" d="M244.676 87.9164C302.224 121.218 245.954 88.6636 303.503 121.911L303.503 55.4691L303.503 -10.9733L244.676 23.0751L244.676 87.9164V87.9164Z" fill="#B7ECF0"/>
<path d="M252.935 47.3573C255.407 47.3573 257.411 45.3502 257.411 42.8744C257.411 40.3986 255.407 38.3915 252.935 38.3915C250.463 38.3915 248.459 40.3986 248.459 42.8744C248.459 45.3502 250.463 47.3573 252.935 47.3573Z" fill="#95C4C7"/>
<path fill-rule="evenodd" clip-rule="evenodd" d="M594.336 193.637C580.589 190.382 569.452 192.25 569.452 197.853C569.452 203.457 580.589 210.608 594.336 213.863C608.084 217.119 619.221 215.251 619.221 209.647C619.221 204.044 608.084 196.893 594.336 193.637Z" fill="#A9DADE"/>
<path fill-rule="evenodd" clip-rule="evenodd" d="M386.842 80.2849L374.853 73.3471L374.853 61.3929C374.853 59.4716 373.254 57.8706 371.336 57.8706C369.417 57.8706 367.819 59.4716 367.819 61.3929L367.819 77.4031L382.952 86.1553C383.059 86.262 382.419 85.8885 383.325 86.4221C384.231 86.9558 387.162 86.7957 388.121 85.1413C389.08 83.3802 388.494 81.2455 386.842 80.2849Z" fill="#FCD1C0"/>
<path fill-rule="evenodd" clip-rule="evenodd" d="M371.336 57.8706C369.417 57.8706 367.819 59.4716 367.819 61.3929L367.819 71.8529C367.819 72.3332 369.417 72.7601 371.336 72.7601C373.254 72.7601 374.853 72.3865 374.853 71.8529L374.853 61.3929C374.853 59.4183 373.254 57.8706 371.336 57.8706Z" fill="#5D97A6"/>
<path fill-rule="evenodd" clip-rule="evenodd" d="M368.405 106.808L363.609 109.584L363.609 114.814L373.201 120.364L377.996 117.589C378.156 111.718 375.545 110.971 368.405 106.808Z" fill="#BFA675"/>
<path fill-rule="evenodd" clip-rule="evenodd" d="M363.609 109.584L363.609 114.814L373.201 120.364C373.361 114.493 370.803 113.746 363.609 109.584Z" fill="#AB9363"/>
<path fill-rule="evenodd" clip-rule="evenodd" d="M368.405 78.3103L366.007 79.6979L363.609 81.0854L363.609 106.808L363.609 109.584C363.609 110.651 365.741 111.558 368.405 111.558C371.069 111.558 373.201 110.704 373.201 109.584L373.201 106.808L373.201 88.5035L373.201 81.032L370.803 79.6445L368.405 78.3103Z" fill="#5D97A6"/>
<path fill-rule="evenodd" clip-rule="evenodd" d="M360.465 55.0421L356.203 57.497C353.059 59.3115 350.448 63.4208 350.448 66.5695L350.448 93.6267L357.428 97.6293C362.224 88.6102 366.966 67.4767 371.762 58.511L364.888 54.5618C363.503 53.708 361.691 54.295 360.465 55.0421Z" fill="#71B2C2"/>
<path fill-rule="evenodd" clip-rule="evenodd" d="M367.393 59.0447L363.13 61.4996C359.986 63.3141 357.375 67.4234 357.375 70.572L357.375 97.6293L373.147 88.5568L373.147 61.4996C373.201 58.2975 370.59 57.2302 367.393 59.0447Z" fill="#71B2C2"/>
<path fill-rule="evenodd" clip-rule="evenodd" d="M355.243 114.44L350.448 117.215L350.448 122.445L360.039 127.995L364.835 125.22C364.995 119.35 362.384 118.549 355.243 114.44Z" fill="#BFA675"/>
<path fill-rule="evenodd" clip-rule="evenodd" d="M350.448 117.162L350.448 122.392L360.039 127.942C360.199 122.125 357.641 121.324 350.448 117.162Z" fill="#AB9363"/>
<path fill-rule="evenodd" clip-rule="evenodd" d="M355.243 85.8885L352.846 87.276L350.448 88.6636L350.448 114.387L350.448 117.162C350.448 118.229 352.579 119.136 355.243 119.136C357.908 119.136 360.039 118.282 360.039 117.162L360.039 114.387L360.039 96.0816L360.039 88.6102L357.641 87.2226L355.243 85.8885Z" fill="#71B2C2"/>
<path fill-rule="evenodd" clip-rule="evenodd" d="M369.417 86.262L357.428 79.3243L357.428 67.37C357.428 65.4488 355.83 63.8477 353.911 63.8477C351.993 63.8477 350.394 65.4488 350.394 67.37L350.394 83.3802L365.528 92.1324C365.634 92.2392 364.995 91.8656 365.901 92.3993C366.806 92.933 369.737 92.7728 370.696 91.1185C371.709 89.3573 371.123 87.2226 369.417 86.262Z" fill="#FCD1C0"/>
<path fill-rule="evenodd" clip-rule="evenodd" d="M353.965 63.8477C352.046 63.8477 350.448 65.4488 350.448 67.37L350.448 77.83C350.448 78.3103 352.046 78.7372 353.965 78.7372C355.883 78.7372 357.482 78.3637 357.482 77.83L357.482 67.37C357.428 65.4488 355.883 63.8477 353.965 63.8477Z" fill="#5D97A6"/>
<path fill-rule="evenodd" clip-rule="evenodd" d="M351.46 42.8744L351.46 54.7753C351.46 55.8426 351.886 56.5364 352.526 56.91L359.613 60.6991C360.572 61.2861 361.851 60.8592 362.757 60.3255L365.794 58.5644C368.085 57.2836 369.897 54.3484 369.897 52.0536L369.897 40.1526L362.757 36.3636L351.46 42.8744Z" fill="#F7C6B2"/>
<path fill-rule="evenodd" clip-rule="evenodd" d="M358.654 58.5644C358.654 60.8592 360.519 61.6063 362.757 60.3255L365.794 58.5644C368.085 57.2836 369.897 54.3484 369.897 52.0536L369.897 40.1526L358.6 46.6635L358.6 58.5644L358.654 58.5644Z" fill="#FCD1C0"/>
<path fill-rule="evenodd" clip-rule="evenodd" d="M355.243 89.3573L374.48 100.511L374.48 84.9279L355.243 73.7741L355.243 89.3573Z" fill="#A18262"/>
<path fill-rule="evenodd" clip-rule="evenodd" d="M374.48 100.511L405.172 82.7398L405.172 67.2099L374.48 84.9279L374.48 100.511Z" fill="#C49B72"/>
<path fill-rule="evenodd" clip-rule="evenodd" d="M355.243 73.7741L374.48 84.9279L405.172 67.2099L385.883 56.0561L355.243 73.7741Z" fill="#D6AD85"/>
<path fill-rule="evenodd" clip-rule="evenodd" d="M363.716 94.3205L365.954 95.6013L365.954 80.0181L363.716 78.7372L363.716 94.3205Z" fill="#856B51"/>
<path fill-rule="evenodd" clip-rule="evenodd" d="M363.716 78.7372L365.954 80.0181L396.646 62.3001L394.408 61.0193L363.716 78.7372Z" fill="#C49B72"/>
<path fill-rule="evenodd" clip-rule="evenodd" d="M366.487 36.4169C362.544 35.1895 356.895 35.1895 353.645 38.0713C350.501 40.8998 349.595 41.22 349.595 45.7562C349.595 47.2505 350.821 52.8007 350.767 53.281C350.448 57.2302 355.883 53.8681 355.883 52.9075C355.883 50.1857 357.588 50.0256 358.547 51.3064C359.293 52.2137 361.478 48.7982 361.425 47.8909C361.425 47.5707 366.7 46.3966 367.606 46.2899C370.963 45.7562 371.496 37.9646 366.487 36.4169Z" fill="#735139"/>
<path fill-rule="evenodd" clip-rule="evenodd" d="M349.808 47.1971L360.412 50.8795L371.016 47.6241L371.016 41.1133C370.963 33.0548 347.837 28.8388 349.808 47.1971Z" fill="#F77620"/>
<path fill-rule="evenodd" clip-rule="evenodd" d="M370.963 47.6241L360.359 50.8795C369.844 54.9888 378.529 50.7728 370.963 47.6241Z" fill="#FF9E5E"/>
<path fill-rule="evenodd" clip-rule="evenodd" d="M277.659 186.166L228.05 214.877L228.05 230.567L242.864 239.106L229.063 247.058L277.659 275.129L229.063 247.058L205.084 298.237L205.084 339.17L292.952 389.976L300.253 385.76L310.91 391.95C311.549 392.431 312.189 392.804 312.935 393.124C316.718 394.672 321.94 393.978 327.641 390.616C339.045 383.945 348.316 369.376 348.476 357.849L362.224 349.897L376.877 358.382L475.243 301.493L486.06 307.737C486.699 308.217 487.339 308.59 488.085 308.911C491.868 310.458 497.037 309.765 502.792 306.402C514.248 299.678 523.573 285.002 523.626 273.475L548.031 259.386L548.031 144.593L377.304 243.322L376.877 243.589L548.031 144.646L448.813 87.2227L277.659 186.166Z" fill="#A9DADE"/>
<path fill-rule="evenodd" clip-rule="evenodd" d="M305.581 322.092C293.805 328.977 284.267 344.08 284.267 355.874C284.267 361.744 286.665 365.693 290.501 367.295L308.885 377.915L339.045 330.097L322.739 320.651C318.849 317.716 312.615 317.983 305.581 322.092Z" fill="#292929"/>
<path fill-rule="evenodd" clip-rule="evenodd" d="M484.728 236.011C472.952 242.895 463.413 257.998 463.413 269.792C463.413 275.663 465.811 279.612 469.648 281.213L488.031 291.833L518.191 244.016L501.886 234.57C497.996 231.635 491.761 231.902 484.728 236.011Z" fill="#292929"/>
<path fill-rule="evenodd" clip-rule="evenodd" d="M272.81 166.313L272.81 283.721L374.32 342.425L374.32 225.017L272.81 166.313Z" fill="#C26425"/>
<path fill-rule="evenodd" clip-rule="evenodd" d="M374.32 342.425L549.363 241.241L549.363 123.833L374.32 225.017L374.32 342.425Z" fill="#F77620"/>
<path fill-rule="evenodd" clip-rule="evenodd" d="M374.32 342.425L549.363 241.241L549.363 220.214L374.32 321.452L374.32 342.425Z" fill="#C26425"/>
<path fill-rule="evenodd" clip-rule="evenodd" d="M503.111 246.631C491.335 253.515 481.797 268.618 481.797 280.412C481.797 292.207 491.335 296.156 503.111 289.271C514.887 282.387 524.426 267.284 524.426 255.49C524.426 243.749 514.887 239.746 503.111 246.631Z" fill="#333333"/>
<path fill-rule="evenodd" clip-rule="evenodd" d="M503.111 256.13C496.557 259.973 491.282 268.351 491.282 274.916C491.282 281.48 496.61 283.668 503.111 279.879C509.665 276.036 514.941 267.658 514.941 261.093C514.941 254.476 509.665 252.288 503.111 256.13Z" fill="#4D4D4D"/>
<path fill-rule="evenodd" clip-rule="evenodd" d="M503.804 258.425C497.943 261.841 493.2 269.365 493.2 275.236C493.2 276.143 493.307 276.944 493.52 277.691C495.118 277.744 497.037 277.21 499.062 276.036C504.923 272.621 509.665 265.096 509.665 259.226C509.665 258.318 509.559 257.518 509.346 256.771C507.747 256.664 505.829 257.198 503.804 258.425Z" fill="#696969"/>
<path fill-rule="evenodd" clip-rule="evenodd" d="M503.111 243.802C489.577 251.701 478.493 268.832 477.801 282.601L486.539 277.531C487.179 268.565 494.372 257.625 503.058 252.501C511.85 247.378 519.044 249.993 519.63 258.372L528.369 253.302C527.889 240.12 516.752 235.797 503.111 243.802Z" fill="#C26425"/>
<path fill-rule="evenodd" clip-rule="evenodd" d="M223.148 228.646L312.988 280.573L363.13 251.541L273.29 199.614C213.397 234.25 283.041 194.011 223.148 228.646Z" fill="white"/>
<path fill-rule="evenodd" clip-rule="evenodd" d="M198.637 280.946L198.637 322.786L288.476 374.766L288.476 332.926L312.988 280.573L223.148 228.646L198.637 280.946Z" fill="#E6E6E6"/>
<path fill-rule="evenodd" clip-rule="evenodd" d="M203.965 279.292L286.665 327.109L307.659 282.227L224.96 234.41L203.965 279.292Z" fill="#298787"/>
<path fill-rule="evenodd" clip-rule="evenodd" d="M198.637 322.786L288.476 374.766L288.476 353.739L198.637 301.813L198.637 322.786Z" fill="#B3B3B3"/>
<path fill-rule="evenodd" clip-rule="evenodd" d="M288.476 332.926L288.476 374.766L363.13 331.538L363.13 251.541L312.988 280.573L288.476 332.926Z" fill="#CCCCCC"/>
<path fill-rule="evenodd" clip-rule="evenodd" d="M288.476 374.766L346.078 341.465L363.13 331.538L363.13 310.565L288.476 353.739L288.476 374.766Z" fill="#B3B3B3"/>
<path fill-rule="evenodd" clip-rule="evenodd" d="M299.08 319.904L359.027 285.269L359.027 258.692L316.185 283.508L299.08 319.904Z" fill="#298787"/>
<path fill-rule="evenodd" clip-rule="evenodd" d="M323.965 332.712C312.189 339.597 302.65 354.7 302.65 366.494C302.65 378.288 312.189 382.237 323.965 375.353C335.741 368.469 345.279 353.366 345.279 341.571C345.279 329.831 335.741 325.828 323.965 332.712Z" fill="#333333"/>
<path fill-rule="evenodd" clip-rule="evenodd" d="M323.965 342.212C317.411 346.054 312.135 354.433 312.135 360.997C312.135 367.561 317.464 369.749 323.965 365.96C330.519 362.118 335.794 353.739 335.794 347.175C335.794 340.557 330.519 338.369 323.965 342.212Z" fill="#4D4D4D"/>
<path fill-rule="evenodd" clip-rule="evenodd" d="M324.657 344.507C318.796 347.922 314.054 355.447 314.054 361.317C314.054 362.225 314.16 363.025 314.373 363.772C315.972 363.826 317.89 363.292 319.915 362.118C325.776 358.702 330.519 351.178 330.519 345.307C330.519 344.4 330.412 343.599 330.199 342.852C328.601 342.746 326.682 343.279 324.657 344.507Z" fill="#696969"/>
<path fill-rule="evenodd" clip-rule="evenodd" d="M323.965 329.831C310.43 337.729 299.347 354.86 298.654 368.629L307.393 363.559C308.032 354.593 315.226 343.653 323.911 338.529C332.704 333.353 339.897 336.021 340.483 344.4L349.222 339.33C348.743 326.202 337.606 321.879 323.965 329.831Z" fill="#B3B3B3"/>
<path fill-rule="evenodd" clip-rule="evenodd" d="M278.832 328.336L258.636 317.022C257.464 316.382 256.558 317.076 256.558 318.623L256.558 328.71C256.558 330.204 257.517 332.019 258.636 332.659L278.832 343.92C280.004 344.56 280.91 343.866 280.91 342.319L280.91 332.232C280.963 330.738 280.004 328.977 278.832 328.336Z" fill="#298787"/>
<path fill-rule="evenodd" clip-rule="evenodd" d="M226.399 298.13L206.15 286.817C204.978 286.176 204.072 286.87 204.072 288.418L204.072 298.504C204.072 299.998 205.031 301.813 206.15 302.453L226.345 313.714C227.518 314.354 228.423 313.66 228.423 312.113L228.423 302.026C228.477 300.532 227.571 298.771 226.399 298.13Z" fill="#298787"/>
<path fill-rule="evenodd" clip-rule="evenodd" d="M222.082 195.665L222.082 211.729L323.592 270.433L323.592 254.369L222.082 195.665Z" fill="#FF9E5E"/>
<path fill-rule="evenodd" clip-rule="evenodd" d="M323.592 270.433L374.799 240.814L374.799 224.75L323.592 254.369L323.592 270.433Z" fill="#F77620"/>
<path fill-rule="evenodd" clip-rule="evenodd" d="M308.672 301.119L302.437 301.119C300.572 301.119 299.08 302.613 299.08 304.481L299.08 319.958C299.08 321.826 300.572 323.32 302.437 323.32L308.672 323.32C310.537 323.32 312.029 321.826 312.029 319.958L312.029 304.481C311.975 302.613 310.483 301.119 308.672 301.119Z" fill="#999999"/>
<path fill-rule="evenodd" clip-rule="evenodd" d="M249.152 334.954L228.956 323.693C227.784 323.053 226.878 323.747 226.878 325.294L226.878 331.965C226.878 333.46 227.837 335.274 228.956 335.915L249.152 347.175C250.324 347.815 251.23 347.122 251.23 345.574L251.23 338.85C251.23 337.355 250.271 335.594 249.152 334.954Z" fill="#E6E6E6"/>
<path fill-rule="evenodd" clip-rule="evenodd" d="M222.082 195.665L323.592 254.369L549.363 123.833L447.854 65.1286C380.181 104.247 289.755 156.547 222.082 195.665Z" fill="#FC883A"/>
<path fill-rule="evenodd" clip-rule="evenodd" d="M586.45 140.964C584.532 140.964 582.933 142.565 582.933 144.486L582.933 156.44L570.944 163.378C569.239 164.338 568.706 166.473 569.665 168.181C570.624 169.889 573.555 169.995 574.461 169.462C575.367 168.928 574.727 169.302 574.834 169.195L589.967 160.443L589.967 144.432C589.967 142.565 588.368 140.964 586.45 140.964Z" fill="#FCD1C0"/>
<path fill-rule="evenodd" clip-rule="evenodd" d="M586.45 140.964C584.532 140.964 582.933 142.565 582.933 144.486L582.933 154.946C582.933 155.426 584.532 155.853 586.45 155.853C588.368 155.853 589.967 155.479 589.967 154.946L589.967 144.486C589.967 142.565 588.368 140.964 586.45 140.964Z" fill="#5D97A6"/>
<path fill-rule="evenodd" clip-rule="evenodd" d="M579.843 200.682L584.638 203.457L594.23 197.907L594.23 192.677L589.434 189.901C582.187 194.117 579.63 194.865 579.843 200.682Z" fill="#BFA675"/>
<path fill-rule="evenodd" clip-rule="evenodd" d="M584.585 203.457L594.176 197.907L594.176 192.677C586.983 196.893 584.425 197.64 584.585 203.457Z" fill="#AB9363"/>
<path fill-rule="evenodd" clip-rule="evenodd" d="M589.381 161.457L586.983 162.844L584.585 164.232L584.585 171.703L584.585 190.008L584.585 192.783C584.585 193.851 586.717 194.758 589.381 194.758C592.045 194.758 594.177 193.904 594.177 192.783L594.177 190.008L594.177 164.285L591.779 162.898L589.381 161.457Z" fill="#5D97A6"/>
<path fill-rule="evenodd" clip-rule="evenodd" d="M601.583 140.59L597.32 138.135C596.041 137.388 594.283 136.854 592.951 137.655L586.077 141.604C590.873 150.623 595.615 171.757 600.411 180.722L607.391 176.72L607.391 149.662C607.338 146.514 604.78 142.404 601.583 140.59Z" fill="#71B2C2"/>
<path fill-rule="evenodd" clip-rule="evenodd" d="M594.656 144.593L590.393 142.138C587.249 140.323 584.638 141.391 584.638 144.593L584.638 171.65L600.411 180.722L600.411 153.718C600.411 150.516 597.8 146.46 594.656 144.593Z" fill="#71B2C2"/>
<path fill-rule="evenodd" clip-rule="evenodd" d="M593.004 208.313L597.8 211.088L607.391 205.538L607.391 200.308L602.596 197.533C595.402 201.696 592.791 202.443 593.004 208.313Z" fill="#BFA675"/>
<path fill-rule="evenodd" clip-rule="evenodd" d="M597.8 211.035L607.391 205.485L607.391 200.255C600.144 204.471 597.587 205.218 597.8 211.035Z" fill="#AB9363"/>
<path fill-rule="evenodd" clip-rule="evenodd" d="M602.542 169.035L600.145 170.422L597.747 171.81L597.747 179.281L597.747 197.586L597.747 200.361C597.747 201.429 599.878 202.336 602.542 202.336C605.207 202.336 607.338 201.482 607.338 200.361L607.338 197.586L607.338 171.863L604.94 170.476L602.542 169.035Z" fill="#71B2C2"/>
<path fill-rule="evenodd" clip-rule="evenodd" d="M603.821 146.941C601.903 146.941 600.304 148.542 600.304 150.463L600.304 162.417L588.315 169.355C586.61 170.316 586.077 172.45 587.036 174.158C587.995 175.866 590.926 175.973 591.832 175.439C592.738 174.905 592.098 175.279 592.205 175.172L607.338 166.42L607.338 150.41C607.338 148.542 605.793 146.941 603.821 146.941Z" fill="#FCD1C0"/>
<path fill-rule="evenodd" clip-rule="evenodd" d="M603.821 146.941C601.903 146.941 600.304 148.542 600.304 150.463L600.304 160.923C600.304 161.403 601.85 161.83 603.821 161.83C605.74 161.83 607.338 161.457 607.338 160.923L607.338 150.463C607.338 148.542 605.793 146.941 603.821 146.941Z" fill="#5D97A6"/>
<path fill-rule="evenodd" clip-rule="evenodd" d="M587.836 123.246L587.836 135.147C587.836 137.441 589.701 140.323 591.939 141.657L594.976 143.418C595.882 143.952 597.161 144.326 598.12 143.792L605.207 140.003C605.846 139.629 606.272 138.936 606.272 137.868L606.272 125.967L594.976 119.457L587.836 123.246Z" fill="#F7C6B2"/>
<path fill-rule="evenodd" clip-rule="evenodd" d="M587.836 135.2C587.836 137.495 589.701 140.377 591.939 141.711L594.976 143.472C597.267 144.753 599.079 144.006 599.079 141.711L599.079 129.81L587.782 123.299L587.782 135.2L587.836 135.2Z" fill="#FCD1C0"/>
<path fill-rule="evenodd" clip-rule="evenodd" d="M583.306 183.604L602.542 172.45L602.542 156.92L583.306 168.074L583.306 183.604Z" fill="#A18262"/>
<path fill-rule="evenodd" clip-rule="evenodd" d="M552.614 165.886L583.306 183.604L583.306 168.021L552.614 150.303L552.614 165.886Z" fill="#C49B72"/>
<path fill-rule="evenodd" clip-rule="evenodd" d="M552.614 150.303L583.306 168.021L602.542 156.92L571.903 139.149L552.614 150.303Z" fill="#D6AD85"/>
<path fill-rule="evenodd" clip-rule="evenodd" d="M591.832 178.694L594.07 177.413L594.07 161.83L591.832 163.164L591.832 178.694Z" fill="#856B51"/>
<path fill-rule="evenodd" clip-rule="evenodd" d="M561.139 145.393L591.832 163.164L594.07 161.83L563.377 144.112L561.139 145.393Z" fill="#C49B72"/>
<path fill-rule="evenodd" clip-rule="evenodd" d="M604.088 121.218C600.89 118.336 595.189 118.336 591.246 119.563C587.942 120.577 589.754 121.805 585.597 121.271C582.986 120.951 581.921 121.751 581.974 122.338C582.347 125.861 587.089 128.529 590.127 129.436C590.979 129.703 596.308 130.717 596.308 131.037C596.255 131.891 598.439 135.36 599.185 134.453C600.198 133.225 601.85 133.332 601.85 136.054C601.85 137.068 607.285 140.43 606.965 136.427C606.912 135.947 608.137 130.397 608.137 128.903C608.137 124.366 607.231 124.046 604.088 121.218Z" fill="#735139"/>
</g>
</g>
<g clip-path="url(#clip3_9_12)">
<path d="M-55 65C-55 9.77153 -10.2285 -35 45 -35H165V175C165 213.66 133.66 245 95 245H-55V65Z" fill="#0A4071"/>
<g opacity="0.8">
<path d="M50.7903 187.878H33.4605V204.052H50.7903V187.878Z" fill="#F3AF2A"/>
<path opacity="0.44" d="M43.75 187.878H40.5565V192.607H43.75V187.878Z" fill="white"/>
<path d="M48.2779 198.532H45.0531V201.795H48.2779V198.532Z" fill="white"/>
<path d="M99.9859 204.003H31.0836C27.5811 204.003 24.7417 206.876 24.7417 210.419C24.7417 213.963 27.5811 216.836 31.0836 216.836H99.9859C103.488 216.836 106.328 213.963 106.328 210.419C106.328 206.876 103.488 204.003 99.9859 204.003Z" fill="#E6E6E6"/>
<path opacity="0.45" d="M64.7425 236.111C95.6453 236.111 120.697 235.138 120.697 233.938C120.697 232.738 95.6453 231.765 64.7425 231.765C33.8397 231.765 8.78802 232.738 8.78802 233.938C8.78802 235.138 33.8397 236.111 64.7425 236.111Z" fill="#E6E6E6"/>
<path d="M51.6 186.672C51.6 186.672 39.2741 201.028 48.3543 205.831C54.6302 209.15 61.608 204.576 61.608 204.576L51.6 186.672Z" fill="#68E1FD"/>
<path opacity="0.08" d="M51.6 186.672C51.6 186.672 39.2741 201.028 48.3543 205.831C54.6302 209.15 61.608 204.576 61.608 204.576L51.6 186.672Z" fill="black"/>
<path d="M73.079 232.806L74.74 234.121C74.8018 234.173 74.8464 234.242 74.8679 234.32C74.8893 234.399 74.8867 234.481 74.8602 234.558C74.8337 234.635 74.7847 234.701 74.7197 234.749C74.6548 234.796 74.577 234.823 74.4968 234.824H72.4118C72.2641 234.824 72.1179 234.795 71.9815 234.737C71.8451 234.68 71.7212 234.596 71.6169 234.49C71.5126 234.384 71.43 234.259 71.3738 234.121C71.3176 233.982 71.2889 233.834 71.2894 233.685V232.799L73.079 232.806Z" fill="#68E1FD"/>
<path d="M55.3461 232.806L53.685 234.121C53.6233 234.173 53.5787 234.242 53.5572 234.32C53.5357 234.399 53.5384 234.481 53.5649 234.558C53.5914 234.635 53.6404 234.701 53.7054 234.749C53.7703 234.796 53.8481 234.823 53.9283 234.824H56.0306C56.3277 234.826 56.6134 234.709 56.8251 234.498C57.0368 234.287 57.1573 234 57.16 233.699V232.813L55.3461 232.806Z" fill="#68E1FD"/>
<path d="M62.0945 184.475L62.3725 179.7C62.3725 179.7 62.72 176.634 64.2281 177.19C65.7363 177.745 67.3244 180.762 66.5077 181.701C66.0664 182.207 65.6042 181.898 65.01 181.954C64.4992 182.003 64.5895 181.926 64.5895 182.442V184.264L62.0945 184.475Z" fill="#F4A28C"/>
<path d="M60.5864 184.225C60.5864 184.225 51.1413 183.374 49.9077 189.823C48.6741 196.271 57.4624 208.457 57.4624 208.457L69.7083 207.976C69.7083 207.976 88.7374 180.927 60.5864 184.225Z" fill="#68E1FD"/>
<path opacity="0.08" d="M68.9159 186.83C68.9159 186.83 61.5941 191.303 65.1873 198.113C67.4947 202.484 61.5941 208.31 61.5941 208.31L69.7082 207.99C69.7082 207.99 72.6828 203.528 73.2771 201.791C73.8713 200.054 68.9159 186.83 68.9159 186.83Z" fill="black"/>
<path d="M57.4623 208.454L54.6823 232.809H57.4032L63.481 213.26L70.3302 232.813H73.4473L69.7117 207.972L57.4623 208.454Z" fill="#24285B"/>
<path d="M62.0945 182.481H63.5679C63.5679 182.481 63.8876 179.728 64.9301 179.201C65.9726 178.673 67.0151 177.678 66.0873 176.768C65.1595 175.857 63.8459 174.806 62.303 175.889C60.7601 176.972 60.2145 179.58 62.0945 182.481Z" fill="#24285B"/>
<path d="M60.3223 178.557L68.3773 178.955L67.4599 177.583C67.4599 177.583 66.9595 174.366 65.1247 173.888C63.2899 173.41 60.086 174.486 60.3223 178.557Z" fill="#F3AF2A"/>
<path d="M36.1814 170.221H15.3627V233.818H36.1814V170.221Z" fill="#E6E6E6"/>
<path opacity="0.08" d="M39.2603 204.003H36.1849V216.836H39.2603V204.003Z" fill="black"/>
<path d="M32.4006 177.123H19.1505V195.336H32.4006V177.123Z" fill="#24285B"/>
<path d="M23.2544 184.601C24.2716 184.601 25.0962 183.767 25.0962 182.738C25.0962 181.709 24.2716 180.874 23.2544 180.874C22.2372 180.874 21.4127 181.709 21.4127 182.738C21.4127 183.767 22.2372 184.601 23.2544 184.601Z" fill="#F3AF2A"/>
<path d="M23.2544 190.572C24.2716 190.572 25.0962 189.737 25.0962 188.708C25.0962 187.679 24.2716 186.845 23.2544 186.845C22.2372 186.845 21.4127 187.679 21.4127 188.708C21.4127 189.737 22.2372 190.572 23.2544 190.572Z" fill="#68E1FD"/>
<path opacity="0.17" d="M30.3747 180.874H26.8684V190.568H30.3747V180.874Z" fill="white"/>
<path d="M99.0581 187.878H81.7283V204.052H99.0581V187.878Z" fill="#F3AF2A"/>
<path opacity="0.44" d="M92.0212 187.878H88.8277V192.607H92.0212V187.878Z" fill="white"/>
<path d="M96.5457 198.532H93.3209V201.795H96.5457V198.532Z" fill="white"/>
<path d="M125.725 217.68H108.395V233.854H125.725V217.68Z" fill="#F3AF2A"/>
<path opacity="0.44" d="M118.688 217.68H115.495V222.409H118.688V217.68Z" fill="white"/>
<path d="M123.213 228.333H119.988V231.596H123.213V228.333Z" fill="white"/>
<path d="M67.3279 188.694C67.6232 185.944 70.6395 184.352 72.9747 185.793C74.6115 186.802 76.2447 188.571 77.1447 191.651C78.8822 197.684 78.0309 201.257 89.6548 201.436V204.667C89.6548 204.667 64.9614 210.743 67.3279 188.694Z" fill="#68E1FD"/>
<path opacity="0.39" d="M67.3279 188.694C67.6232 185.944 70.6395 184.352 72.9747 185.793C74.6115 186.802 76.2447 188.571 77.1447 191.651C78.8822 197.684 78.0309 201.257 89.6548 201.436V204.667C89.6548 204.667 64.9614 210.743 67.3279 188.694Z" fill="white"/>
<path d="M89.6408 202.02C89.6408 202.02 92.671 201.584 92.9664 202.48C93.2618 203.377 93.0567 204.27 89.6408 204.003V202.02Z" fill="#F4A28C"/>
<path opacity="0.08" d="M38.4923 187.878L40.8587 204.003H36.1849V187.878H38.4923Z" fill="black"/>
<path d="M101.011 208.454H92.0212V233.818H101.011V208.454Z" fill="#E6E6E6"/>
<path opacity="0.08" d="M97.9739 213.186C99.6512 213.186 101.011 211.811 101.011 210.114C101.011 208.416 99.6512 207.041 97.9739 207.041C96.2965 207.041 94.9367 208.416 94.9367 210.114C94.9367 211.811 96.2965 213.186 97.9739 213.186Z" fill="black"/>
<path d="M85.5751 171.553V178.012H89.7034L90.6034 180.583L91.6702 178.012H95.795V171.553H85.5751Z" fill="#E6E6E6"/>
<path opacity="0.12" d="M90.1725 176.226C90.1266 176.224 90.0817 176.213 90.0408 176.191C90 176.17 89.9643 176.14 89.9362 176.103L88.8555 174.697C88.8297 174.663 88.8107 174.624 88.7997 174.583C88.7886 174.542 88.7856 174.499 88.791 174.457C88.7963 174.415 88.8098 174.374 88.8307 174.337C88.8516 174.3 88.8795 174.267 88.9128 174.241C88.9461 174.215 88.9842 174.196 89.0249 174.185C89.0655 174.174 89.1079 174.171 89.1497 174.176C89.1915 174.181 89.2318 174.195 89.2684 174.216C89.305 174.237 89.3371 174.266 89.3629 174.299L90.2107 175.403L92.2957 173.118C92.3249 173.088 92.3597 173.064 92.3982 173.047C92.4367 173.031 92.4781 173.022 92.5199 173.022C92.5617 173.022 92.603 173.031 92.6415 173.047C92.68 173.064 92.7149 173.088 92.744 173.118C92.7752 173.147 92.8005 173.181 92.8183 173.22C92.8361 173.258 92.8461 173.3 92.8477 173.343C92.8493 173.385 92.8425 173.428 92.8277 173.468C92.8129 173.508 92.7903 173.544 92.7614 173.575L90.4158 176.138C90.3834 176.169 90.3451 176.193 90.3032 176.208C90.2614 176.223 90.2169 176.229 90.1725 176.226Z" fill="black"/>
<path d="M112.586 203.194V209.653H116.711L117.611 212.227L118.678 209.653H122.803V203.194H112.586Z" fill="#E6E6E6"/>
<path opacity="0.12" d="M117.18 207.867C117.133 207.865 117.088 207.853 117.046 207.831C117.005 207.809 116.969 207.778 116.94 207.74L115.86 206.334C115.808 206.266 115.784 206.18 115.795 206.094C115.806 206.009 115.85 205.931 115.917 205.878C115.984 205.826 116.07 205.802 116.154 205.813C116.238 205.824 116.315 205.868 116.367 205.936L117.215 207.041L119.3 204.755C119.327 204.72 119.361 204.69 119.401 204.669C119.44 204.648 119.483 204.635 119.527 204.631C119.571 204.628 119.616 204.633 119.658 204.648C119.7 204.663 119.738 204.686 119.771 204.717C119.803 204.748 119.829 204.785 119.846 204.826C119.864 204.867 119.873 204.912 119.872 204.957C119.872 205.002 119.862 205.046 119.844 205.087C119.825 205.128 119.799 205.165 119.766 205.195L117.42 207.761C117.357 207.827 117.271 207.865 117.18 207.867Z" fill="black"/>
</g>
</g>
<rect x="-55" y="221" width="70" height="711" rx="35" fill="#0A4071"/>
<path d="M-62 246.5C-62 225.237 -44.763 208 -23.5 208C-2.23704 208 15 225.237 15 246.5V920C15 925.523 10.5229 930 5 930H-12C-39.6142 930 -62 907.614 -62 880V246.5Z" fill="#0A4071"/>
<rect x="-8" y="818" width="18" height="60" rx="9" fill="#F3AF2A"/>
</g>
<defs>
<clipPath id="clip0_9_12">
<rect width="650" height="932" fill="white"/>
</clipPath>
<clipPath id="clip1_9_12">
<rect x="663.179" y="-100.122" width="483.204" height="691.759" rx="30" transform="rotate(80.7866 663.179 -100.122)" fill="white"/>
</clipPath>
<clipPath id="clip2_9_12">
<rect width="746" height="523" fill="white" transform="translate(1 -32)"/>
</clipPath>
<clipPath id="clip3_9_12">
<path d="M-55 65C-55 9.77153 -10.2285 -35 45 -35H165V175C165 213.66 133.66 245 95 245H-55V65Z" fill="white"/>
</clipPath>
</defs>
</svg>
