<?xml version="1.0" standalone="no"?>
<!DOCTYPE svg PUBLIC "-//W3C//DTD SVG 20010904//EN"
 "http://www.w3.org/TR/2001/REC-SVG-20010904/DTD/svg10.dtd">
<svg version="1.0" xmlns="http://www.w3.org/2000/svg"
 width="206.000000pt" height="206.000000pt" viewBox="0 0 206.000000 206.000000"
 preserveAspectRatio="xMidYMid meet">
<metadata>
Created by potrace 1.14, written by Peter Selinger 2001-2017
</metadata>
<g transform="translate(0.000000,206.000000) scale(0.100000,-0.100000)"
fill="#000000" stroke="none">
<path d="M590 1950 c0 -4 -6 -7 -12 -8 -13 -1 -48 -9 -58 -12 -3 -1 -9 -2 -13
-1 -13 2 -126 -78 -157 -112 -50 -56 -113 -161 -109 -184 1 -4 0 -10 -1 -13
-10 -26 -13 -83 -7 -122 2 -16 1 -28 -2 -28 -3 0 -5 -39 -3 -86 2 -54 0 -84
-6 -80 -5 3 -16 -2 -23 -12 -13 -15 -12 -16 3 -3 15 11 19 11 23 0 7 -20 1
-122 -8 -136 -4 -7 0 -16 10 -22 10 -6 13 -11 6 -11 -8 0 -9 -9 -3 -30 5 -19
5 -28 -1 -25 -13 9 -11 -9 3 -23 9 -9 8 -12 -5 -12 -9 0 -17 -5 -17 -11 0 -5
4 -8 9 -5 5 3 11 -5 13 -19 3 -15 1 -22 -5 -18 -6 4 -7 1 -2 -7 5 -8 9 -118 9
-244 1 -127 4 -235 7 -241 4 -5 7 -23 7 -38 -1 -30 14 -67 55 -139 18 -33 127
-138 143 -138 8 0 14 -4 14 -8 0 -9 59 -32 83 -32 9 0 17 -3 17 -7 0 -5 17 -8
37 -9 20 0 39 -6 41 -12 3 -9 9 -9 23 -2 13 8 25 7 40 -1 17 -8 20 -8 14 1 -5
8 -3 11 6 8 8 -3 26 1 42 9 15 7 27 10 27 6 0 -4 7 2 16 13 8 10 13 13 9 7 -4
-9 -1 -11 9 -7 9 3 16 11 16 17 0 6 3 7 7 4 3 -4 11 -3 17 1 6 5 32 16 58 26
38 14 152 77 248 136 8 5 30 17 48 26 17 9 32 20 32 25 0 5 3 8 8 7 7 -2 62
27 117 62 17 10 53 31 80 45 28 15 57 32 65 39 8 6 26 17 39 24 13 8 39 22 57
32 18 11 51 30 73 44 22 15 44 26 49 26 10 0 104 97 130 136 11 16 24 42 27
57 4 15 11 27 16 27 4 0 6 9 4 20 -2 11 -1 20 3 20 18 0 20 213 2 235 -6 7
-10 17 -9 21 1 5 0 12 -1 17 -1 4 -3 10 -4 15 -4 18 -42 80 -69 115 -36 43
-113 104 -177 138 -25 13 -47 26 -50 29 -3 3 -30 18 -60 34 -30 17 -61 36 -68
43 -7 7 -18 13 -23 13 -18 0 -79 47 -71 55 4 5 2 5 -4 2 -10 -6 -102 35 -114
51 -3 4 -17 13 -32 21 -15 8 -25 18 -22 22 3 5 -2 6 -10 3 -10 -4 -16 -1 -16
9 0 9 -4 19 -10 22 -6 4 -7 -1 -3 -12 6 -17 5 -17 -14 0 -11 9 -22 15 -25 12
-3 -3 -11 2 -19 12 -12 14 -12 16 0 8 9 -5 12 -4 7 3 -4 6 -12 9 -19 7 -7 -3
-30 6 -52 20 -22 13 -61 35 -87 49 -26 14 -49 30 -53 36 -4 6 -11 8 -16 5 -5
-4 -9 -1 -9 4 0 6 -4 11 -9 11 -5 0 -26 8 -47 17 -22 9 -46 18 -54 20 -34 7
-190 10 -190 3z m262 -517 c26 -18 51 -33 54 -33 4 0 23 -10 43 -22 20 -13 38
-23 41 -23 6 -1 51 -28 92 -56 15 -11 29 -19 32 -19 3 0 45 -24 94 -52 49 -29
104 -61 123 -71 77 -40 101 -78 94 -144 -2 -26 -10 -52 -17 -59 -19 -18 -247
-154 -258 -154 -6 0 -10 -4 -10 -9 0 -5 -11 -12 -25 -15 -14 -4 -25 -11 -25
-16 0 -6 -5 -10 -10 -10 -6 0 -41 -19 -78 -41 -66 -41 -132 -79 -182 -105 -50
-26 -91 -21 -128 14 -40 38 -72 124 -51 137 5 4 5 14 1 23 -11 21 -9 363 2
380 4 6 3 12 -2 12 -10 0 -8 42 3 59 3 6 3 11 -2 11 -4 0 -8 13 -8 29 0 16 3
27 7 24 5 -2 4 6 -1 19 -22 61 28 146 94 160 35 7 69 -4 117 -39z"/>
<path d="M197 1253 c3 -7 6 -13 8 -13 2 0 5 6 8 13 3 8 -1 14 -8 14 -7 0 -11
-6 -8 -14z"/>
<path d="M176 1219 c4 -8 30 -6 38 2 3 3 -5 5 -19 5 -13 0 -22 -3 -19 -7z"/>
<path d="M203 1180 c-3 -11 -9 -18 -13 -15 -5 3 -11 1 -14 -4 -4 -5 1 -8 11
-7 15 2 40 46 27 46 -3 0 -8 -9 -11 -20z"/>
<path d="M190 1120 c0 -5 7 -7 15 -4 8 4 15 8 15 10 0 2 -7 4 -15 4 -8 0 -15
-4 -15 -10z"/>
<path d="M210 1101 c0 -7 -4 -10 -8 -7 -5 3 -9 -1 -9 -9 0 -8 4 -15 8 -15 9 0
21 31 14 38 -3 3 -5 0 -5 -7z"/>
<path d="M190 1045 c-11 -13 -10 -14 4 -9 9 3 16 10 16 15 0 13 -6 11 -20 -6z"/>
<path d="M196 938 c3 -5 10 -6 15 -3 13 9 11 12 -6 12 -8 0 -12 -4 -9 -9z"/>
</g>
</svg>
