<svg width="700" height="1216" viewBox="0 0 700 1216" fill="none" xmlns="http://www.w3.org/2000/svg">
<g clip-path="url(#clip0_49_7)">
<rect width="700" height="1216" fill="white"/>
<g clip-path="url(#clip1_49_7)">
<rect x="-109.572" y="-147.775" width="739.55" height="785.92" rx="70" transform="rotate(-26 -109.572 -147.775)" fill="#2F2F2F"/>
<g opacity="0.15" clip-path="url(#clip2_49_7)">
<path d="M761.865 556.726L704.574 558.096L674.811 509.203L702.338 458.94L759.628 457.57L789.392 506.464L761.865 556.726ZM585.52 362.523L528.23 363.893L498.466 314.999L525.993 264.737L583.283 263.367L613.047 312.26L585.52 362.523ZM583.283 263.367L525.993 264.737L496.229 215.843L523.756 165.581L581.047 164.211L610.81 213.104L583.283 263.367ZM496.229 215.843L438.939 217.213L409.175 168.32L436.702 118.057L493.992 116.687L523.756 165.581L496.229 215.843ZM498.466 314.999L441.175 316.369L411.412 267.476L438.939 217.213L496.229 215.843L525.993 264.737L498.466 314.999ZM411.412 267.476L354.121 268.845L324.358 219.952L351.885 169.689L409.175 168.32L438.939 217.213L411.412 267.476ZM324.358 219.952L267.067 221.322L237.303 172.429L264.83 122.166L322.121 120.796L351.885 169.689L324.358 219.952ZM507.403 711.629L450.113 712.999L420.349 664.105L447.876 613.843L505.176 612.467L534.94 661.361L507.403 711.629ZM328.822 418.27L271.531 419.639L241.768 370.746L269.295 320.483L326.594 319.108L356.358 368.001L328.822 418.27ZM333.295 616.582L276.005 617.951L246.241 569.058L273.768 518.795L331.058 517.426L360.822 566.319L333.295 616.582ZM244.004 469.902L186.714 471.272L156.95 422.379L184.477 372.116L241.768 370.746L271.531 419.639L244.004 469.902Z" stroke="#2FC9AD" stroke-opacity="0.98" stroke-width="2"/>
<path d="M766.762 553.745C766.371 553.103 765.857 552.545 765.25 552.101C764.643 551.658 763.954 551.338 763.223 551.161C762.492 550.984 761.733 550.953 760.989 551.068C760.245 551.184 759.532 551.446 758.889 551.837C758.246 552.229 757.686 552.743 757.241 553.35C756.797 553.957 756.476 554.646 756.298 555.377C756.119 556.108 756.087 556.866 756.202 557.609C756.317 558.352 756.577 559.065 756.968 559.707C757.359 560.349 757.873 560.908 758.48 561.351C759.087 561.795 759.776 562.114 760.507 562.291C761.238 562.469 761.997 562.5 762.741 562.384C763.485 562.268 764.198 562.007 764.841 561.616C765.484 561.224 766.044 560.71 766.489 560.103C766.933 559.495 767.254 558.807 767.432 558.076C767.611 557.345 767.643 556.586 767.528 555.843C767.413 555.1 767.153 554.387 766.762 553.745ZM709.471 555.115C708.682 553.818 707.409 552.889 705.933 552.531C704.456 552.173 702.897 552.416 701.598 553.207C700.299 553.997 699.367 555.271 699.007 556.747C698.647 558.222 698.888 559.78 699.678 561.077C700.467 562.374 701.74 563.303 703.217 563.661C704.693 564.019 706.252 563.776 707.551 562.985C708.85 562.195 709.782 560.921 710.142 559.445C710.502 557.969 710.261 556.412 709.471 555.115ZM679.708 506.222C678.918 504.925 677.645 503.996 676.169 503.638C674.692 503.28 673.133 503.523 671.835 504.313C670.536 505.104 669.604 506.377 669.244 507.853C668.884 509.329 669.125 510.887 669.914 512.184C670.703 513.48 671.976 514.41 673.453 514.768C674.929 515.126 676.489 514.883 677.787 514.092C679.086 513.301 680.018 512.028 680.378 510.552C680.738 509.076 680.497 507.519 679.708 506.222ZM707.235 455.959C706.844 455.317 706.33 454.758 705.723 454.315C705.116 453.871 704.427 453.552 703.696 453.375C702.965 453.198 702.206 453.166 701.462 453.282C700.718 453.398 700.005 453.659 699.361 454.051C698.718 454.442 698.159 454.956 697.714 455.564C697.27 456.171 696.949 456.86 696.771 457.591C696.592 458.321 696.56 459.08 696.675 459.823C696.79 460.566 697.05 461.279 697.441 461.921C697.832 462.563 698.346 463.122 698.953 463.565C699.56 464.008 700.249 464.328 700.98 464.505C701.711 464.682 702.47 464.714 703.214 464.598C703.957 464.482 704.671 464.221 705.314 463.829C705.957 463.438 706.517 462.924 706.962 462.316C707.406 461.709 707.727 461.02 707.905 460.289C708.083 459.559 708.116 458.8 708.001 458.057C707.886 457.314 707.626 456.601 707.235 455.959ZM764.525 454.589C763.736 453.293 762.463 452.363 760.986 452.005C759.51 451.647 757.951 451.89 756.652 452.681C755.353 453.472 754.421 454.745 754.061 456.221C753.701 457.697 753.942 459.255 754.731 460.551C755.521 461.848 756.794 462.778 758.27 463.135C759.747 463.493 761.306 463.25 762.605 462.46C763.903 461.669 764.835 460.396 765.196 458.92C765.556 457.444 765.315 455.886 764.525 454.589ZM794.289 503.483C793.499 502.186 792.226 501.256 790.75 500.898C789.273 500.541 787.714 500.784 786.416 501.574C785.117 502.365 784.185 503.638 783.825 505.114C783.465 506.59 783.706 508.148 784.495 509.445C785.284 510.741 786.557 511.671 788.034 512.029C789.51 512.387 791.07 512.143 792.368 511.353C793.667 510.562 794.599 509.289 794.959 507.813C795.319 506.337 795.078 504.779 794.289 503.483ZM590.417 359.542C589.628 358.245 588.355 357.316 586.878 356.958C585.402 356.6 583.842 356.843 582.544 357.634C581.245 358.424 580.313 359.698 579.953 361.174C579.593 362.65 579.834 364.207 580.623 365.504C581.413 366.801 582.686 367.73 584.162 368.088C585.639 368.446 587.198 368.203 588.496 367.412C589.795 366.622 590.727 365.348 591.087 363.873C591.447 362.397 591.206 360.839 590.417 359.542ZM533.126 360.912C532.337 359.615 531.064 358.685 529.588 358.328C528.111 357.97 526.552 358.213 525.253 359.003C523.955 359.794 523.023 361.067 522.662 362.543C522.302 364.019 522.543 365.577 523.333 366.874C524.122 368.17 525.395 369.1 526.872 369.458C528.348 369.816 529.907 369.573 531.206 368.782C532.505 367.991 533.437 366.718 533.797 365.242C534.157 363.766 533.916 362.208 533.126 360.912ZM503.363 312.019C502.573 310.722 501.301 309.792 499.824 309.434C498.347 309.076 496.788 309.32 495.49 310.11C494.191 310.901 493.259 312.174 492.899 313.65C492.539 315.126 492.78 316.684 493.569 317.98C494.358 319.277 495.631 320.207 497.108 320.565C498.585 320.923 500.144 320.679 501.442 319.889C502.741 319.098 503.673 317.825 504.033 316.349C504.393 314.873 504.152 313.315 503.363 312.019ZM530.89 261.756C530.1 260.459 528.827 259.529 527.351 259.172C525.874 258.814 524.315 259.057 523.017 259.847C521.718 260.638 520.786 261.911 520.426 263.387C520.066 264.863 520.307 266.421 521.096 267.718C521.885 269.014 523.158 269.944 524.635 270.302C526.111 270.66 527.671 270.417 528.969 269.626C530.268 268.835 531.2 267.562 531.56 266.086C531.92 264.61 531.679 263.052 530.89 261.756ZM588.18 260.386C587.789 259.744 587.276 259.185 586.669 258.742C586.061 258.299 585.373 257.979 584.641 257.802C583.91 257.625 583.151 257.593 582.408 257.709C581.664 257.825 580.95 258.086 580.307 258.478C579.664 258.869 579.104 259.383 578.66 259.991C578.215 260.598 577.895 261.287 577.716 262.018C577.538 262.749 577.505 263.507 577.62 264.25C577.735 264.993 577.996 265.706 578.387 266.348C578.777 266.99 579.291 267.549 579.898 267.992C580.505 268.436 581.194 268.755 581.925 268.932C582.656 269.109 583.416 269.141 584.159 269.025C584.903 268.909 585.617 268.648 586.26 268.256C586.903 267.865 587.463 267.351 587.907 266.743C588.352 266.136 588.672 265.447 588.851 264.717C589.029 263.986 589.062 263.227 588.947 262.484C588.832 261.741 588.571 261.028 588.18 260.386ZM617.944 309.279C617.553 308.637 617.039 308.079 616.432 307.635C615.825 307.192 615.136 306.872 614.405 306.695C613.674 306.518 612.915 306.486 612.171 306.602C611.427 306.718 610.714 306.98 610.071 307.371C609.428 307.762 608.868 308.277 608.423 308.884C607.979 309.491 607.658 310.18 607.48 310.911C607.301 311.642 607.269 312.4 607.384 313.143C607.499 313.886 607.759 314.599 608.15 315.241C608.541 315.883 609.055 316.442 609.662 316.885C610.269 317.329 610.958 317.648 611.689 317.825C612.42 318.003 613.179 318.034 613.923 317.918C614.667 317.802 615.38 317.541 616.023 317.15C616.666 316.758 617.226 316.244 617.671 315.637C618.115 315.029 618.436 314.341 618.614 313.61C618.793 312.879 618.825 312.12 618.71 311.377C618.595 310.634 618.335 309.921 617.944 309.279ZM501.126 212.863C500.337 211.566 499.064 210.636 497.587 210.278C496.111 209.92 494.552 210.164 493.253 210.954C491.954 211.745 491.022 213.018 490.662 214.494C490.302 215.97 490.543 217.528 491.332 218.824C492.122 220.121 493.395 221.051 494.871 221.409C496.348 221.766 497.907 221.523 499.206 220.733C500.504 219.942 501.436 218.669 501.796 217.193C502.157 215.717 501.916 214.159 501.126 212.863ZM528.653 162.6C528.262 161.958 527.748 161.399 527.141 160.956C526.534 160.512 525.845 160.193 525.114 160.016C524.383 159.838 523.624 159.807 522.88 159.923C522.137 160.039 521.423 160.3 520.78 160.691C520.137 161.083 519.577 161.597 519.132 162.204C518.688 162.812 518.367 163.5 518.189 164.231C518.011 164.962 517.978 165.721 518.093 166.464C518.208 167.207 518.468 167.92 518.859 168.562C519.25 169.204 519.764 169.762 520.371 170.206C520.978 170.649 521.667 170.969 522.398 171.146C523.129 171.323 523.888 171.355 524.632 171.239C525.376 171.123 526.089 170.861 526.733 170.47C527.376 170.079 527.935 169.564 528.38 168.957C528.824 168.35 529.145 167.661 529.323 166.93C529.502 166.199 529.534 165.441 529.419 164.698C529.304 163.955 529.044 163.242 528.653 162.6ZM585.944 161.23C585.154 159.933 583.881 159.004 582.405 158.646C580.928 158.288 579.369 158.531 578.07 159.322C576.772 160.112 575.84 161.386 575.479 162.862C575.119 164.338 575.36 165.895 576.15 167.192C576.939 168.489 578.212 169.418 579.689 169.776C581.165 170.134 582.724 169.891 584.023 169.1C585.322 168.31 586.254 167.036 586.614 165.561C586.974 164.085 586.733 162.527 585.944 161.23ZM615.707 210.123C614.918 208.827 613.645 207.897 612.168 207.539C610.692 207.181 609.133 207.424 607.834 208.215C606.535 209.006 605.603 210.279 605.243 211.755C604.883 213.231 605.124 214.789 605.913 216.085C606.703 217.382 607.976 218.312 609.452 218.669C610.929 219.027 612.488 218.784 613.787 217.994C615.085 217.203 616.017 215.93 616.378 214.454C616.738 212.978 616.497 211.42 615.707 210.123ZM443.836 214.232C443.046 212.935 441.773 212.006 440.297 211.648C438.82 211.29 437.261 211.533 435.962 212.324C434.664 213.114 433.732 214.388 433.372 215.864C433.011 217.34 433.253 218.897 434.042 220.194C434.831 221.491 436.104 222.42 437.581 222.778C439.057 223.136 440.616 222.893 441.915 222.102C443.214 221.312 444.146 220.038 444.506 218.562C444.866 217.087 444.625 215.529 443.836 214.232ZM414.072 165.339C413.283 164.042 412.01 163.113 410.533 162.755C409.057 162.397 407.498 162.64 406.199 163.431C404.9 164.221 403.968 165.494 403.608 166.97C403.248 168.446 403.489 170.004 404.278 171.301C405.068 172.598 406.341 173.527 407.817 173.885C409.294 174.243 410.853 174 412.152 173.209C413.45 172.419 414.382 171.145 414.742 169.669C415.103 168.193 414.861 166.636 414.072 165.339ZM441.599 115.076C440.81 113.779 439.537 112.85 438.06 112.492C436.584 112.134 435.024 112.377 433.726 113.168C432.427 113.958 431.495 115.232 431.135 116.708C430.775 118.184 431.016 119.741 431.805 121.038C432.595 122.335 433.868 123.264 435.344 123.622C436.821 123.98 438.38 123.737 439.678 122.946C440.977 122.156 441.909 120.882 442.269 119.406C442.629 117.931 442.388 116.373 441.599 115.076ZM498.889 113.707C498.499 113.064 497.985 112.506 497.378 112.062C496.77 111.619 496.082 111.3 495.351 111.122C494.619 110.945 493.86 110.914 493.117 111.03C492.373 111.146 491.659 111.407 491.016 111.798C490.373 112.19 489.813 112.704 489.369 113.311C488.924 113.918 488.604 114.607 488.425 115.338C488.247 116.069 488.214 116.827 488.329 117.57C488.445 118.314 488.705 119.026 489.096 119.668C489.487 120.311 490 120.869 490.607 121.313C491.215 121.756 491.903 122.075 492.635 122.253C493.366 122.43 494.125 122.461 494.868 122.345C495.612 122.229 496.326 121.968 496.969 121.577C497.612 121.185 498.172 120.671 498.616 120.064C499.061 119.456 499.381 118.768 499.56 118.037C499.738 117.306 499.771 116.548 499.656 115.805C499.541 115.062 499.28 114.349 498.889 113.707ZM446.072 313.388C445.681 312.746 445.168 312.187 444.561 311.744C443.953 311.301 443.265 310.981 442.533 310.804C441.802 310.627 441.043 310.595 440.3 310.711C439.556 310.827 438.842 311.088 438.199 311.48C437.556 311.871 436.996 312.385 436.552 312.993C436.107 313.6 435.787 314.289 435.608 315.02C435.43 315.75 435.397 316.509 435.512 317.252C435.627 317.995 435.888 318.708 436.279 319.35C436.669 319.992 437.183 320.551 437.79 320.994C438.398 321.438 439.086 321.757 439.817 321.934C440.549 322.111 441.308 322.143 442.051 322.027C442.795 321.911 443.509 321.65 444.152 321.258C444.795 320.867 445.355 320.353 445.799 319.745C446.244 319.138 446.564 318.449 446.743 317.718C446.921 316.988 446.954 316.229 446.839 315.486C446.724 314.743 446.463 314.03 446.072 313.388ZM416.309 264.495C415.918 263.853 415.404 263.294 414.797 262.851C414.19 262.407 413.501 262.088 412.77 261.911C412.039 261.734 411.28 261.702 410.536 261.818C409.792 261.934 409.079 262.195 408.435 262.587C407.792 262.978 407.233 263.492 406.788 264.099C406.344 264.707 406.023 265.396 405.845 266.126C405.666 266.857 405.634 267.616 405.749 268.359C405.864 269.102 406.124 269.815 406.515 270.457C406.906 271.099 407.42 271.658 408.027 272.101C408.634 272.544 409.323 272.864 410.054 273.041C410.785 273.218 411.544 273.25 412.288 273.134C413.031 273.018 413.745 272.757 414.388 272.365C415.031 271.974 415.591 271.46 416.036 270.852C416.48 270.245 416.801 269.556 416.979 268.825C417.157 268.094 417.19 267.336 417.075 266.593C416.96 265.85 416.7 265.137 416.309 264.495ZM359.018 265.864C358.229 264.568 356.956 263.638 355.479 263.28C354.003 262.922 352.444 263.166 351.145 263.956C349.846 264.747 348.914 266.02 348.554 267.496C348.194 268.972 348.435 270.53 349.224 271.826C350.014 273.123 351.287 274.053 352.763 274.411C354.24 274.768 355.799 274.525 357.098 273.735C358.396 272.944 359.328 271.671 359.689 270.195C360.049 268.719 359.808 267.161 359.018 265.864ZM329.255 216.971C328.465 215.675 327.192 214.745 325.716 214.387C324.239 214.029 322.68 214.272 321.381 215.063C320.083 215.854 319.151 217.127 318.791 218.603C318.43 220.079 318.672 221.636 319.461 222.933C320.25 224.23 321.523 225.159 323 225.517C324.476 225.875 326.035 225.632 327.334 224.842C328.633 224.051 329.565 222.778 329.925 221.302C330.285 219.826 330.044 218.268 329.255 216.971ZM356.782 166.708C356.391 166.066 355.877 165.508 355.27 165.064C354.663 164.621 353.974 164.302 353.243 164.124C352.512 163.947 351.752 163.916 351.009 164.031C350.265 164.147 349.551 164.409 348.908 164.8C348.265 165.192 347.705 165.706 347.261 166.313C346.816 166.92 346.496 167.609 346.317 168.34C346.139 169.071 346.107 169.829 346.222 170.572C346.337 171.315 346.597 172.028 346.988 172.67C347.379 173.312 347.892 173.871 348.5 174.315C349.107 174.758 349.796 175.077 350.527 175.255C351.258 175.432 352.017 175.463 352.76 175.347C353.504 175.231 354.218 174.97 354.861 174.579C355.504 174.187 356.064 173.673 356.508 173.066C356.953 172.458 357.274 171.77 357.452 171.039C357.63 170.308 357.663 169.549 357.548 168.806C357.433 168.063 357.172 167.351 356.782 166.708ZM271.964 218.341C271.175 217.044 269.902 216.115 268.425 215.757C266.949 215.399 265.39 215.642 264.091 216.432C262.792 217.223 261.86 218.496 261.5 219.972C261.14 221.448 261.381 223.006 262.17 224.303C262.96 225.6 264.233 226.529 265.709 226.887C267.186 227.245 268.745 227.002 270.044 226.211C271.342 225.421 272.274 224.147 272.634 222.671C272.995 221.195 272.754 219.638 271.964 218.341ZM242.201 169.448C241.411 168.151 240.138 167.221 238.662 166.863C237.185 166.506 235.626 166.749 234.327 167.539C233.029 168.33 232.097 169.603 231.736 171.079C231.376 172.555 231.617 174.113 232.407 175.41C233.196 176.706 234.469 177.636 235.946 177.994C237.422 178.352 238.981 178.109 240.28 177.318C241.579 176.527 242.511 175.254 242.871 173.778C243.231 172.302 242.99 170.744 242.201 169.448ZM269.727 119.185C268.938 117.888 267.665 116.959 266.189 116.601C264.712 116.243 263.153 116.486 261.854 117.277C260.555 118.067 259.623 119.34 259.263 120.816C258.903 122.292 259.144 123.85 259.934 125.147C260.723 126.444 261.996 127.373 263.473 127.731C264.949 128.089 266.508 127.846 267.807 127.055C269.106 126.265 270.038 124.991 270.398 123.515C270.758 122.039 270.517 120.482 269.727 119.185ZM327.018 117.815C326.627 117.173 326.113 116.615 325.506 116.171C324.899 115.728 324.21 115.408 323.479 115.231C322.748 115.054 321.989 115.022 321.245 115.138C320.502 115.254 319.788 115.515 319.145 115.907C318.502 116.298 317.942 116.812 317.497 117.42C317.053 118.027 316.732 118.716 316.554 119.447C316.376 120.178 316.343 120.936 316.458 121.679C316.573 122.422 316.833 123.135 317.224 123.777C317.615 124.419 318.129 124.978 318.736 125.421C319.343 125.865 320.032 126.184 320.763 126.361C321.494 126.539 322.253 126.57 322.997 126.454C323.741 126.338 324.454 126.077 325.097 125.686C325.74 125.294 326.3 124.78 326.745 124.173C327.189 123.565 327.51 122.877 327.688 122.146C327.867 121.415 327.899 120.656 327.784 119.913C327.669 119.17 327.409 118.457 327.018 117.815ZM512.3 708.648C511.511 707.351 510.238 706.422 508.762 706.064C507.285 705.706 505.726 705.949 504.427 706.74C503.128 707.53 502.196 708.804 501.836 710.28C501.476 711.756 501.717 713.313 502.507 714.61C503.296 715.907 504.569 716.836 506.046 717.194C507.522 717.552 509.081 717.309 510.38 716.518C511.679 715.728 512.611 714.454 512.971 712.979C513.331 711.503 513.09 709.945 512.3 708.648ZM455.01 710.018C454.221 708.721 452.948 707.791 451.471 707.434C449.995 707.076 448.435 707.319 447.137 708.109C445.838 708.9 444.906 710.173 444.546 711.649C444.186 713.125 444.427 714.683 445.216 715.98C446.006 717.276 447.279 718.206 448.755 718.564C450.232 718.922 451.791 718.679 453.089 717.888C454.388 717.097 455.32 715.824 455.68 714.348C456.04 712.872 455.799 711.314 455.01 710.018ZM425.246 661.125C424.457 659.828 423.184 658.898 421.707 658.54C420.231 658.182 418.672 658.426 417.373 659.216C416.074 660.007 415.142 661.28 414.782 662.756C414.422 664.232 414.663 665.79 415.453 667.086C416.242 668.383 417.515 669.313 418.991 669.671C420.468 670.028 422.027 669.785 423.326 668.995C424.625 668.204 425.556 666.931 425.917 665.455C426.277 663.979 426.036 662.421 425.246 661.125ZM452.773 610.862C451.984 609.565 450.711 608.635 449.234 608.278C447.758 607.92 446.199 608.163 444.9 608.953C443.601 609.744 442.669 611.017 442.309 612.493C441.949 613.969 442.19 615.527 442.979 616.824C443.769 618.12 445.042 619.05 446.518 619.408C447.995 619.766 449.554 619.523 450.853 618.732C452.151 617.941 453.083 616.668 453.444 615.192C453.804 613.716 453.563 612.158 452.773 610.862ZM510.073 609.487C509.284 608.19 508.011 607.26 506.534 606.902C505.058 606.544 503.498 606.788 502.2 607.578C500.901 608.369 499.969 609.642 499.609 611.118C499.249 612.594 499.49 614.152 500.279 615.448C501.069 616.745 502.342 617.675 503.818 618.033C505.295 618.39 506.854 618.147 508.152 617.357C509.451 616.566 510.383 615.293 510.743 613.817C511.103 612.341 510.862 610.783 510.073 609.487ZM539.837 658.38C539.047 657.083 537.774 656.153 536.298 655.796C534.821 655.438 533.262 655.681 531.963 656.471C530.665 657.262 529.733 658.535 529.373 660.011C529.012 661.487 529.253 663.045 530.043 664.342C530.832 665.638 532.105 666.568 533.582 666.926C535.058 667.284 536.617 667.041 537.916 666.25C539.215 665.459 540.147 664.186 540.507 662.71C540.867 661.234 540.626 659.676 539.837 658.38ZM333.719 415.289C332.929 413.992 331.656 413.063 330.18 412.705C328.703 412.347 327.144 412.59 325.846 413.381C324.547 414.171 323.615 415.444 323.255 416.92C322.895 418.396 323.136 419.954 323.925 421.251C324.714 422.548 325.987 423.477 327.464 423.835C328.94 424.193 330.5 423.95 331.798 423.159C333.097 422.369 334.029 421.095 334.389 419.619C334.749 418.143 334.508 416.586 333.719 415.289ZM276.428 416.658C275.639 415.362 274.366 414.432 272.889 414.074C271.413 413.716 269.854 413.96 268.555 414.75C267.256 415.541 266.324 416.814 265.964 418.29C265.604 419.766 265.845 421.324 266.635 422.62C267.424 423.917 268.697 424.847 270.173 425.205C271.65 425.562 273.209 425.319 274.508 424.529C275.806 423.738 276.738 422.465 277.099 420.989C277.459 419.513 277.218 417.955 276.428 416.658ZM246.665 367.765C245.875 366.469 244.602 365.539 243.126 365.181C241.649 364.823 240.09 365.066 238.791 365.857C237.493 366.647 236.561 367.921 236.201 369.397C235.84 370.873 236.082 372.43 236.871 373.727C237.66 375.024 238.933 375.953 240.41 376.311C241.886 376.669 243.445 376.426 244.744 375.636C246.043 374.845 246.975 373.572 247.335 372.096C247.695 370.62 247.454 369.062 246.665 367.765ZM274.192 317.502C273.402 316.206 272.129 315.276 270.653 314.918C269.176 314.56 267.617 314.804 266.318 315.594C265.02 316.385 264.088 317.658 263.727 319.134C263.367 320.61 263.608 322.168 264.398 323.464C265.187 324.761 266.46 325.691 267.937 326.049C269.413 326.406 270.972 326.163 272.271 325.373C273.57 324.582 274.502 323.309 274.862 321.833C275.222 320.357 274.981 318.799 274.192 317.502ZM331.491 316.127C330.702 314.831 329.429 313.901 327.952 313.543C326.476 313.185 324.917 313.428 323.618 314.219C322.319 315.009 321.387 316.283 321.027 317.759C320.667 319.235 320.908 320.792 321.698 322.089C322.487 323.386 323.76 324.315 325.236 324.673C326.713 325.031 328.272 324.788 329.571 323.998C330.87 323.207 331.801 321.934 332.162 320.458C332.522 318.982 332.281 317.424 331.491 316.127ZM361.255 365.02C360.466 363.724 359.193 362.794 357.716 362.436C356.24 362.078 354.68 362.322 353.382 363.112C352.083 363.903 351.151 365.176 350.791 366.652C350.431 368.128 350.672 369.686 351.461 370.982C352.251 372.279 353.524 373.209 355 373.567C356.477 373.924 358.036 373.681 359.334 372.891C360.633 372.1 361.565 370.827 361.925 369.351C362.285 367.875 362.044 366.317 361.255 365.02ZM338.192 613.601C337.403 612.304 336.13 611.375 334.653 611.017C333.177 610.659 331.618 610.902 330.319 611.693C329.02 612.483 328.088 613.756 327.728 615.232C327.368 616.708 327.609 618.266 328.398 619.563C329.188 620.86 330.461 621.789 331.937 622.147C333.414 622.505 334.973 622.262 336.272 621.471C337.57 620.681 338.502 619.407 338.863 617.931C339.223 616.455 338.982 614.898 338.192 613.601ZM280.902 614.97C280.112 613.674 278.839 612.744 277.363 612.386C275.886 612.028 274.327 612.271 273.028 613.062C271.73 613.853 270.798 615.126 270.438 616.602C270.077 618.078 270.319 619.636 271.108 620.932C271.897 622.229 273.17 623.159 274.647 623.517C276.123 623.874 277.682 623.631 278.981 622.841C280.28 622.05 281.212 620.777 281.572 619.301C281.932 617.825 281.691 616.267 280.902 614.97ZM251.138 566.077C250.349 564.781 249.076 563.851 247.599 563.493C246.123 563.135 244.564 563.378 243.265 564.169C241.966 564.959 241.034 566.233 240.674 567.709C240.314 569.185 240.555 570.742 241.344 572.039C242.134 573.336 243.407 574.265 244.883 574.623C246.36 574.981 247.919 574.738 249.218 573.948C250.516 573.157 251.448 571.884 251.808 570.408C252.169 568.932 251.927 567.374 251.138 566.077ZM278.665 515.814C277.876 514.518 276.603 513.588 275.126 513.23C273.65 512.872 272.09 513.116 270.792 513.906C269.493 514.697 268.561 515.97 268.201 517.446C267.841 518.922 268.082 520.48 268.871 521.776C269.661 523.073 270.934 524.003 272.41 524.361C273.887 524.718 275.446 524.475 276.744 523.685C278.043 522.894 278.975 521.621 279.335 520.145C279.695 518.669 279.454 517.111 278.665 515.814ZM335.955 514.445C335.166 513.148 333.893 512.219 332.417 511.861C330.94 511.503 329.381 511.746 328.082 512.537C326.784 513.327 325.852 514.6 325.491 516.076C325.131 517.552 325.372 519.11 326.162 520.407C326.951 521.704 328.224 522.633 329.701 522.991C331.177 523.349 332.736 523.106 334.035 522.315C335.334 521.525 336.266 520.251 336.626 518.775C336.986 517.299 336.745 515.742 335.955 514.445ZM365.719 563.338C364.93 562.041 363.657 561.112 362.18 560.754C360.704 560.396 359.145 560.639 357.846 561.43C356.547 562.22 355.615 563.494 355.255 564.97C354.895 566.446 355.136 568.003 355.925 569.3C356.715 570.597 357.988 571.526 359.464 571.884C360.941 572.242 362.5 571.999 363.799 571.208C365.097 570.418 366.029 569.144 366.389 567.668C366.75 566.192 366.508 564.635 365.719 563.338ZM248.901 466.921C248.112 465.625 246.839 464.695 245.362 464.337C243.886 463.979 242.327 464.222 241.028 465.013C239.729 465.803 238.797 467.077 238.437 468.553C238.077 470.029 238.318 471.586 239.108 472.883C239.897 474.18 241.17 475.109 242.647 475.467C244.123 475.825 245.682 475.582 246.981 474.792C248.28 474.001 249.212 472.728 249.572 471.252C249.932 469.776 249.691 468.218 248.901 466.921ZM191.611 468.291C190.821 466.994 189.549 466.065 188.072 465.707C186.595 465.349 185.036 465.592 183.738 466.382C182.439 467.173 181.507 468.446 181.147 469.922C180.787 471.398 181.028 472.956 181.817 474.253C182.607 475.549 183.879 476.479 185.356 476.837C186.832 477.195 188.392 476.952 189.69 476.161C190.989 475.371 191.921 474.097 192.281 472.621C192.641 471.145 192.4 469.588 191.611 468.291ZM161.847 419.398C161.058 418.101 159.785 417.171 158.308 416.813C156.832 416.456 155.273 416.699 153.974 417.489C152.675 418.28 151.743 419.553 151.383 421.029C151.023 422.505 151.264 424.063 152.054 425.36C152.843 426.656 154.116 427.586 155.592 427.944C157.069 428.302 158.628 428.059 159.927 427.268C161.225 426.477 162.157 425.204 162.518 423.728C162.878 422.252 162.637 420.694 161.847 419.398ZM189.374 369.135C188.585 367.838 187.312 366.909 185.835 366.551C184.359 366.193 182.8 366.436 181.501 367.226C180.202 368.017 179.27 369.29 178.91 370.766C178.55 372.242 178.791 373.8 179.58 375.097C180.37 376.393 181.643 377.323 183.119 377.681C184.596 378.039 186.155 377.796 187.454 377.005C188.752 376.215 189.684 374.941 190.044 373.465C190.405 371.989 190.164 370.432 189.374 369.135Z" fill="#2FC9AD" fill-opacity="0.98"/>
<path d="M908.872 579.816L712.137 584.52L609.93 416.622L704.458 244.021L901.192 239.317L1003.4 407.215L908.872 579.816ZM318.668 593.927L121.934 598.631L19.7268 430.733L114.254 258.132L310.989 253.429L413.196 421.326L318.668 593.927Z" stroke="#2FC9AD" stroke-width="2"/>
</g>
</g>
<g clip-path="url(#clip3_49_7)">
<rect x="-314.655" y="-5.26367" width="739.462" height="700" rx="70" transform="rotate(-32 -314.655 -5.26367)" fill="#2F2F2F"/>
<g opacity="0.15" clip-path="url(#clip4_49_7)">
<path d="M788.078 377.954L714.83 387.427L670.093 328.768L698.605 260.634L771.853 251.161L816.59 309.82L788.078 377.954ZM535.883 152.788L462.635 162.262L417.898 103.602L446.41 35.4684L519.658 25.9948L564.395 84.6546L535.883 152.788ZM519.658 25.9948L446.41 35.4684L401.673 -23.1914L430.185 -91.3249L503.433 -100.798L548.17 -42.1386L519.658 25.9948ZM401.673 -23.1914L328.425 -13.7179L283.688 -72.3777L312.199 -140.511L385.448 -149.985L430.185 -91.3249L401.673 -23.1914ZM417.898 103.602L344.65 113.075L299.913 54.4155L328.425 -13.7179L401.673 -23.1914L446.41 35.4684L417.898 103.602ZM299.913 54.4155L226.664 63.8891L181.928 5.22931L210.439 -62.9041L283.688 -72.3777L328.425 -13.7179L299.913 54.4155ZM181.928 5.22931L108.679 14.7029L63.9426 -43.9569L92.4542 -112.09L165.703 -121.564L210.439 -62.9041L181.928 5.22931ZM482.787 610.783L409.539 620.257L364.802 561.597L393.314 493.464L466.573 483.981L511.31 542.641L482.787 610.783ZM214.367 258.824L141.118 268.298L96.3817 209.638L124.893 141.505L198.153 132.023L242.89 190.682L214.367 258.824ZM246.817 512.411L173.569 521.884L128.832 463.224L157.344 395.091L230.592 385.617L275.329 444.277L246.817 512.411ZM112.607 336.431L39.3584 345.905L-5.37832 287.245L23.1334 219.112L96.3817 209.638L141.118 268.298L112.607 336.431Z" stroke="#2FC9AD" stroke-opacity="0.98" stroke-width="2"/>
<path d="M793.953 373.473C793.366 372.703 792.632 372.056 791.794 371.569C790.956 371.083 790.03 370.766 789.069 370.638C788.108 370.509 787.131 370.571 786.194 370.82C785.256 371.068 784.376 371.499 783.605 372.088C782.833 372.676 782.185 373.411 781.697 374.249C781.209 375.087 780.891 376.013 780.761 376.974C780.631 377.935 780.691 378.912 780.939 379.848C781.186 380.785 781.616 381.664 782.203 382.434C782.791 383.205 783.525 383.852 784.363 384.338C785.201 384.825 786.127 385.141 787.088 385.27C788.048 385.399 789.026 385.337 789.963 385.088C790.901 384.839 791.781 384.408 792.552 383.82C793.324 383.231 793.972 382.497 794.46 381.659C794.948 380.82 795.266 379.894 795.396 378.933C795.526 377.973 795.466 376.996 795.218 376.059C794.971 375.122 794.541 374.243 793.953 373.473V373.473ZM720.705 382.947C719.519 381.391 717.762 380.371 715.821 380.111C713.88 379.851 711.915 380.373 710.356 381.561C708.798 382.75 707.775 384.507 707.512 386.448C707.25 388.388 707.768 390.352 708.955 391.908C710.141 393.464 711.898 394.484 713.839 394.743C715.78 395.003 717.746 394.482 719.304 393.293C720.862 392.105 721.885 390.347 722.148 388.407C722.41 386.467 721.892 384.502 720.705 382.947V382.947ZM675.968 324.287C674.782 322.731 673.025 321.711 671.084 321.451C669.143 321.192 667.178 321.713 665.62 322.902C664.061 324.09 663.038 325.848 662.776 327.788C662.513 329.728 663.032 331.692 664.218 333.248C665.405 334.804 667.162 335.824 669.102 336.084C671.043 336.343 673.009 335.822 674.567 334.633C676.125 333.445 677.148 331.687 677.411 329.747C677.674 327.807 677.155 325.843 675.968 324.287V324.287ZM704.48 256.154C703.892 255.383 703.159 254.736 702.321 254.25C701.483 253.763 700.557 253.447 699.596 253.318C698.635 253.189 697.658 253.251 696.72 253.5C695.782 253.749 694.903 254.18 694.131 254.768C693.36 255.357 692.711 256.091 692.224 256.929C691.736 257.768 691.417 258.694 691.287 259.654C691.157 260.615 691.218 261.592 691.465 262.529C691.713 263.466 692.142 264.344 692.73 265.115C693.317 265.885 694.051 266.532 694.889 267.018C695.727 267.505 696.653 267.822 697.614 267.95C698.575 268.079 699.552 268.017 700.49 267.768C701.427 267.519 702.307 267.088 703.079 266.5C703.85 265.912 704.498 265.177 704.986 264.339C705.474 263.501 705.792 262.574 705.923 261.614C706.053 260.653 705.992 259.676 705.745 258.739C705.497 257.803 705.067 256.924 704.48 256.154V256.154ZM777.728 246.68C776.542 245.124 774.785 244.104 772.844 243.844C770.903 243.585 768.938 244.106 767.38 245.295C765.821 246.483 764.798 248.241 764.536 250.181C764.273 252.121 764.792 254.085 765.978 255.641C767.165 257.197 768.922 258.217 770.862 258.477C772.803 258.736 774.769 258.215 776.327 257.026C777.885 255.838 778.908 254.08 779.171 252.14C779.434 250.2 778.915 248.236 777.728 246.68V246.68ZM822.465 305.34C821.279 303.784 819.522 302.764 817.581 302.504C815.64 302.244 813.675 302.766 812.116 303.954C810.558 305.143 809.535 306.9 809.272 308.841C809.01 310.781 809.529 312.745 810.715 314.301C811.902 315.857 813.658 316.877 815.599 317.136C817.54 317.396 819.506 316.875 821.064 315.686C822.622 314.498 823.645 312.74 823.908 310.8C824.17 308.86 823.652 306.896 822.465 305.34V305.34ZM541.758 148.307C540.572 146.752 538.815 145.732 536.874 145.472C534.933 145.212 532.968 145.734 531.409 146.922C529.851 148.11 528.828 149.868 528.565 151.808C528.303 153.749 528.822 155.713 530.008 157.269C531.195 158.824 532.951 159.844 534.892 160.104C536.833 160.364 538.799 159.842 540.357 158.654C541.915 157.466 542.938 155.708 543.201 153.768C543.464 151.827 542.945 149.863 541.758 148.307V148.307ZM468.51 157.781C467.323 156.225 465.566 155.205 463.626 154.945C461.685 154.686 459.719 155.207 458.161 156.396C456.603 157.584 455.58 159.342 455.317 161.282C455.054 163.222 455.573 165.186 456.76 166.742C457.946 168.298 459.703 169.318 461.644 169.578C463.585 169.838 465.55 169.316 467.108 168.128C468.667 166.939 469.69 165.182 469.952 163.241C470.215 161.301 469.696 159.337 468.51 157.781V157.781ZM423.773 99.1213C422.586 97.5655 420.83 96.5455 418.889 96.2857C416.948 96.0259 414.982 96.5475 413.424 97.7358C411.866 98.9241 410.843 100.682 410.58 102.622C410.318 104.563 410.836 106.527 412.023 108.082C413.209 109.638 414.966 110.658 416.907 110.918C418.848 111.178 420.813 110.656 422.372 109.468C423.93 108.279 424.953 106.522 425.216 104.581C425.478 102.641 424.959 100.677 423.773 99.1213V99.1213ZM452.285 30.9878C451.098 29.4321 449.341 28.4121 447.4 28.1523C445.46 27.8925 443.494 28.4141 441.936 29.6024C440.378 30.7907 439.355 32.5484 439.092 34.4888C438.829 36.4291 439.348 38.3932 440.535 39.949C441.721 41.5048 443.478 42.5247 445.419 42.7845C447.359 43.0443 449.325 42.5227 450.883 41.3344C452.441 40.1461 453.464 38.3884 453.727 36.448C453.99 34.5077 453.471 32.5436 452.285 30.9878V30.9878ZM525.533 21.5143C524.946 20.7439 524.212 20.097 523.374 19.6105C522.536 19.124 521.61 18.8073 520.649 18.6787C519.688 18.5501 518.711 18.6119 517.773 18.8607C516.835 19.1095 515.956 19.5404 515.184 20.1288C514.413 20.7172 513.765 21.4516 513.277 22.29C512.789 23.1284 512.47 24.0544 512.34 25.0152C512.21 25.976 512.271 26.9527 512.518 27.8895C512.766 28.8264 513.195 29.7051 513.783 30.4754C514.37 31.2457 515.104 31.8926 515.942 32.3792C516.78 32.8657 517.706 33.1823 518.667 33.3109C519.628 33.4396 520.605 33.3777 521.543 33.1289C522.48 32.8801 523.36 32.4492 524.132 31.8608C524.903 31.2724 525.551 30.538 526.039 29.6996C526.527 28.8612 526.845 27.9352 526.976 26.9744C527.106 26.0137 527.045 25.037 526.798 24.1001C526.55 23.1633 526.121 22.2846 525.533 21.5143V21.5143ZM570.27 80.1741C569.682 79.4037 568.949 78.7568 568.111 78.2703C567.273 77.7838 566.347 77.4672 565.386 77.3385C564.425 77.2099 563.447 77.2717 562.51 77.5205C561.572 77.7694 560.693 78.2003 559.921 78.7887C559.15 79.3771 558.501 80.1114 558.013 80.9498C557.525 81.7882 557.207 82.7142 557.077 83.675C556.947 84.6358 557.007 85.6125 557.255 86.5493C557.502 87.4862 557.932 88.3649 558.52 89.1352C559.107 89.9056 559.841 90.5524 560.679 91.039C561.517 91.5255 562.443 91.8421 563.404 91.9708C564.365 92.0994 565.342 92.0376 566.28 91.7887C567.217 91.5399 568.097 91.109 568.868 90.5206C569.64 89.9322 570.288 89.1979 570.776 88.3595C571.264 87.5211 571.582 86.595 571.712 85.6343C571.842 84.6735 571.782 83.6968 571.535 82.7599C571.287 81.8231 570.857 80.9444 570.27 80.1741V80.1741ZM407.548 -27.672C406.361 -29.2277 404.605 -30.2477 402.664 -30.5075C400.723 -30.7673 398.757 -30.2457 397.199 -29.0574C395.641 -27.8691 394.618 -26.1114 394.355 -24.171C394.092 -22.2307 394.611 -20.2666 395.798 -18.7108C396.984 -17.1551 398.741 -16.1351 400.682 -15.8753C402.623 -15.6155 404.588 -16.1371 406.147 -17.3254C407.705 -18.5138 408.728 -20.2714 408.99 -22.2118C409.253 -24.1521 408.734 -26.1162 407.548 -27.672V-27.672ZM436.06 -95.8054C435.472 -96.5757 434.738 -97.2226 433.9 -97.7091C433.062 -98.1957 432.136 -98.5123 431.175 -98.6409C430.214 -98.7696 429.237 -98.7077 428.3 -98.4589C427.362 -98.2101 426.482 -97.7792 425.711 -97.1908C424.939 -96.6024 424.291 -95.868 423.803 -95.0296C423.315 -94.1912 422.997 -93.2652 422.867 -92.3044C422.737 -91.3437 422.797 -90.367 423.045 -89.4301C423.292 -88.4932 423.722 -87.6146 424.309 -86.8442C424.897 -86.0739 425.631 -85.427 426.469 -84.9405C427.307 -84.4539 428.233 -84.1373 429.194 -84.0087C430.155 -83.88 431.132 -83.9419 432.069 -84.1907C433.007 -84.4395 433.887 -84.8704 434.658 -85.4588C435.43 -86.0472 436.078 -86.7816 436.566 -87.62C437.054 -88.4584 437.372 -89.3844 437.502 -90.3452C437.632 -91.306 437.572 -92.2826 437.324 -93.2195C437.077 -94.1564 436.647 -95.035 436.06 -95.8054V-95.8054ZM509.308 -105.279C508.121 -106.835 506.365 -107.855 504.424 -108.115C502.483 -108.374 500.517 -107.853 498.959 -106.664C497.401 -105.476 496.378 -103.718 496.115 -101.778C495.852 -99.8377 496.371 -97.8736 497.558 -96.3178C498.744 -94.762 500.501 -93.7421 502.442 -93.4823C504.383 -93.2225 506.348 -93.7441 507.907 -94.9324C509.465 -96.1207 510.488 -97.8784 510.751 -99.8188C511.013 -101.759 510.494 -103.723 509.308 -105.279V-105.279ZM554.045 -46.6191C552.858 -48.1749 551.101 -49.1949 549.161 -49.4547C547.22 -49.7145 545.254 -49.1929 543.696 -48.0046C542.138 -46.8162 541.115 -45.0586 540.852 -43.1182C540.589 -41.1779 541.108 -39.2137 542.295 -37.658C543.481 -36.1022 545.238 -35.0823 547.179 -34.8225C549.119 -34.5626 551.085 -35.0843 552.643 -36.2726C554.201 -37.4609 555.224 -39.2186 555.487 -41.159C555.75 -43.0993 555.231 -45.0634 554.045 -46.6191V-46.6191ZM334.3 -18.1984C333.113 -19.7541 331.356 -20.7741 329.415 -21.034C327.475 -21.2938 325.509 -20.7721 323.951 -19.5838C322.393 -18.3955 321.37 -16.6378 321.107 -14.6975C320.844 -12.7571 321.363 -10.793 322.549 -9.23724C323.736 -7.68148 325.493 -6.66153 327.434 -6.40172C329.374 -6.1419 331.34 -6.66353 332.898 -7.85185C334.456 -9.04017 335.479 -10.7979 335.742 -12.7382C336.005 -14.6786 335.486 -16.6426 334.3 -18.1984V-18.1984ZM289.563 -76.8582C288.376 -78.414 286.619 -79.434 284.679 -79.6938C282.738 -79.9536 280.772 -79.432 279.214 -78.2436C277.656 -77.0553 276.633 -75.2976 276.37 -73.3573C276.107 -71.4169 276.626 -69.4528 277.813 -67.8971C278.999 -66.3413 280.756 -65.3213 282.697 -65.0615C284.638 -64.8017 286.603 -65.3233 288.161 -66.5117C289.72 -67.7 290.743 -69.4577 291.005 -71.398C291.268 -73.3384 290.749 -75.3025 289.563 -76.8582V-76.8582ZM318.074 -144.992C316.888 -146.547 315.131 -147.567 313.19 -147.827C311.25 -148.087 309.284 -147.565 307.726 -146.377C306.168 -145.189 305.145 -143.431 304.882 -141.491C304.619 -139.55 305.138 -137.586 306.324 -136.03C307.511 -134.475 309.268 -133.455 311.208 -133.195C313.149 -132.935 315.115 -133.457 316.673 -134.645C318.231 -135.833 319.254 -137.591 319.517 -139.531C319.78 -141.472 319.261 -143.436 318.074 -144.992V-144.992ZM391.323 -154.465C390.735 -155.236 390.002 -155.882 389.164 -156.369C388.326 -156.855 387.4 -157.172 386.439 -157.301C385.478 -157.429 384.501 -157.368 383.563 -157.119C382.625 -156.87 381.746 -156.439 380.974 -155.851C380.203 -155.262 379.554 -154.528 379.066 -153.689C378.578 -152.851 378.26 -151.925 378.13 -150.964C378 -150.003 378.06 -149.027 378.308 -148.09C378.555 -147.153 378.985 -146.274 379.573 -145.504C380.16 -144.734 380.894 -144.087 381.732 -143.6C382.57 -143.114 383.496 -142.797 384.457 -142.669C385.418 -142.54 386.395 -142.602 387.333 -142.851C388.27 -143.099 389.15 -143.53 389.921 -144.119C390.693 -144.707 391.341 -145.441 391.829 -146.28C392.317 -147.118 392.635 -148.044 392.765 -149.005C392.896 -149.966 392.835 -150.942 392.588 -151.879C392.34 -152.816 391.91 -153.695 391.323 -154.465V-154.465ZM350.525 108.595C349.937 107.824 349.203 107.178 348.365 106.691C347.527 106.205 346.601 105.888 345.64 105.759C344.68 105.631 343.702 105.692 342.765 105.941C341.827 106.19 340.947 106.621 340.176 107.209C339.404 107.798 338.756 108.532 338.268 109.371C337.78 110.209 337.462 111.135 337.332 112.096C337.202 113.057 337.262 114.033 337.51 114.97C337.757 115.907 338.187 116.786 338.775 117.556C339.362 118.326 340.096 118.973 340.934 119.46C341.772 119.946 342.698 120.263 343.659 120.392C344.62 120.52 345.597 120.458 346.534 120.209C347.472 119.961 348.352 119.53 349.123 118.941C349.895 118.353 350.543 117.619 351.031 116.78C351.519 115.942 351.837 115.016 351.967 114.055C352.097 113.094 352.037 112.118 351.789 111.181C351.542 110.244 351.112 109.365 350.525 108.595V108.595ZM305.788 49.935C305.2 49.1647 304.467 48.5178 303.629 48.0313C302.791 47.5447 301.865 47.2281 300.904 47.0994C299.943 46.9708 298.966 47.0326 298.028 47.2815C297.09 47.5303 296.211 47.9612 295.439 48.5496C294.668 49.138 294.019 49.8723 293.531 50.7107C293.043 51.5491 292.725 52.4752 292.595 53.4359C292.465 54.3967 292.525 55.3734 292.773 56.3103C293.021 57.2471 293.45 58.1258 294.038 58.8962C294.625 59.6665 295.359 60.3134 296.197 60.7999C297.035 61.2864 297.961 61.603 298.922 61.7317C299.883 61.8603 300.86 61.7985 301.798 61.5497C302.735 61.3009 303.615 60.87 304.386 60.2816C305.158 59.6932 305.806 58.9588 306.294 58.1204C306.782 57.282 307.1 56.356 307.23 55.3952C307.361 54.4344 307.3 53.4578 307.053 52.5209C306.805 51.584 306.375 50.7053 305.788 49.935V49.935ZM232.54 59.4086C231.353 57.8528 229.596 56.8328 227.655 56.573C225.715 56.3132 223.749 56.8349 222.191 58.0232C220.633 59.2115 219.61 60.9692 219.347 62.9095C219.084 64.8499 219.603 66.814 220.789 68.3697C221.976 69.9255 223.733 70.9455 225.674 71.2053C227.614 71.4651 229.58 70.9435 231.138 69.7551C232.696 68.5668 233.719 66.8091 233.982 64.8688C234.245 62.9284 233.726 60.9643 232.54 59.4086ZM187.803 0.748765C186.616 -0.80699 184.859 -1.82698 182.919 -2.08679C180.978 -2.34661 179.012 -1.82497 177.454 -0.636644C175.896 0.551679 174.873 2.30934 174.61 4.2497C174.347 6.19006 174.866 8.15417 176.053 9.70993C177.239 11.2657 178.996 12.2856 180.937 12.5454C182.878 12.8053 184.843 12.2836 186.401 11.0953C187.96 9.907 188.983 8.14931 189.245 6.20896C189.508 4.2686 188.989 2.30452 187.803 0.748765V0.748765ZM216.314 -67.3846C215.727 -68.155 214.993 -68.8019 214.155 -69.2884C213.317 -69.7749 212.391 -70.0915 211.43 -70.2202C210.469 -70.3488 209.492 -70.287 208.554 -70.0382C207.617 -69.7894 206.737 -69.3585 205.966 -68.7701C205.194 -68.1817 204.546 -67.4473 204.058 -66.6089C203.57 -65.7705 203.252 -64.8445 203.122 -63.8837C202.992 -62.9229 203.052 -61.9462 203.3 -61.0094C203.547 -60.0725 203.977 -59.1938 204.564 -58.4235C205.152 -57.6531 205.886 -57.0062 206.724 -56.5197C207.562 -56.0332 208.487 -55.7166 209.448 -55.5879C210.409 -55.4593 211.387 -55.5212 212.324 -55.77C213.262 -56.0188 214.142 -56.4497 214.913 -57.0381C215.685 -57.6265 216.333 -58.3609 216.821 -59.1993C217.309 -60.0377 217.627 -60.9637 217.757 -61.9244C217.887 -62.8852 217.827 -63.8619 217.579 -64.7987C217.332 -65.7356 216.902 -66.6143 216.314 -67.3846V-67.3846ZM114.554 10.2223C113.368 8.66659 111.611 7.6466 109.67 7.38678C107.729 7.12697 105.764 7.64858 104.206 8.8369C102.647 10.0252 101.625 11.7829 101.362 13.7233C101.099 15.6636 101.618 17.6277 102.804 19.1835C103.991 20.7393 105.748 21.7592 107.688 22.019C109.629 22.2788 111.595 21.7572 113.153 20.5689C114.711 19.3806 115.734 17.6229 115.997 15.6825C116.26 13.7422 115.741 11.7781 114.554 10.2223V10.2223ZM69.8176 -48.4375C68.6312 -49.9932 66.8743 -51.0132 64.9335 -51.273C62.9928 -51.5328 61.0271 -51.0112 59.4689 -49.8229C57.9108 -48.6345 56.8878 -46.8769 56.625 -44.9365C56.3622 -42.9962 56.8811 -41.0321 58.0676 -39.4763C59.2541 -37.9206 61.011 -36.9006 62.9517 -36.6408C64.8925 -36.3809 66.8581 -36.9026 68.4163 -38.0909C69.9744 -39.2792 70.9975 -41.0369 71.2603 -42.9773C71.5231 -44.9176 71.0041 -46.8817 69.8176 -48.4375V-48.4375ZM98.3293 -116.571C97.1428 -118.127 95.3859 -119.147 93.4451 -119.406C91.5044 -119.666 89.5387 -119.145 87.9806 -117.956C86.4224 -116.768 85.3994 -115.01 85.1366 -113.07C84.8738 -111.13 85.3927 -109.165 86.5792 -107.61C87.7657 -106.054 89.5226 -105.034 91.4633 -104.774C93.4041 -104.514 95.3697 -105.036 96.9279 -106.224C98.486 -107.413 99.5091 -109.17 99.7719 -111.111C100.035 -113.051 99.5158 -115.015 98.3293 -116.571ZM171.578 -126.044C170.99 -126.815 170.256 -127.462 169.418 -127.948C168.58 -128.435 167.654 -128.751 166.694 -128.88C165.733 -129.009 164.755 -128.947 163.818 -128.698C162.88 -128.449 162 -128.018 161.229 -127.43C160.457 -126.841 159.809 -126.107 159.321 -125.269C158.833 -124.43 158.515 -123.504 158.385 -122.544C158.255 -121.583 158.315 -120.606 158.563 -119.669C158.81 -118.732 159.24 -117.854 159.828 -117.083C160.415 -116.313 161.149 -115.666 161.987 -115.18C162.825 -114.693 163.751 -114.376 164.712 -114.248C165.673 -114.119 166.65 -114.181 167.587 -114.43C168.525 -114.679 169.405 -115.11 170.176 -115.698C170.948 -116.286 171.596 -117.021 172.084 -117.859C172.572 -118.697 172.89 -119.623 173.02 -120.584C173.15 -121.545 173.09 -122.522 172.842 -123.459C172.595 -124.395 172.165 -125.274 171.578 -126.044V-126.044ZM488.662 606.303C487.476 604.747 485.719 603.727 483.778 603.467C481.837 603.207 479.872 603.729 478.314 604.917C476.755 606.105 475.732 607.863 475.47 609.804C475.207 611.744 475.726 613.708 476.912 615.264C478.099 616.819 479.856 617.839 481.796 618.099C483.737 618.359 485.703 617.837 487.261 616.649C488.819 615.461 489.842 613.703 490.105 611.763C490.368 609.822 489.849 607.858 488.662 606.303ZM415.414 615.776C414.227 614.22 412.471 613.2 410.53 612.941C408.589 612.681 406.623 613.202 405.065 614.391C403.507 615.579 402.484 617.337 402.221 619.277C401.958 621.217 402.477 623.182 403.664 624.737C404.85 626.293 406.607 627.313 408.548 627.573C410.489 627.833 412.454 627.311 414.013 626.123C415.571 624.934 416.594 623.177 416.857 621.236C417.119 619.296 416.6 617.332 415.414 615.776V615.776ZM370.677 557.116C369.491 555.561 367.734 554.541 365.793 554.281C363.852 554.021 361.887 554.543 360.328 555.731C358.77 556.919 357.747 558.677 357.485 560.617C357.222 562.558 357.741 564.522 358.927 566.077C360.114 567.633 361.87 568.653 363.811 568.913C365.752 569.173 367.718 568.651 369.276 567.463C370.834 566.275 371.857 564.517 372.12 562.577C372.383 560.636 371.864 558.672 370.677 557.116ZM399.189 488.983C398.002 487.427 396.245 486.407 394.305 486.147C392.364 485.888 390.398 486.409 388.84 487.598C387.282 488.786 386.259 490.544 385.996 492.484C385.733 494.424 386.252 496.388 387.439 497.944C388.625 499.5 390.382 500.52 392.323 500.78C394.264 501.039 396.229 500.518 397.787 499.329C399.346 498.141 400.369 496.383 400.631 494.443C400.894 492.503 400.375 490.539 399.189 488.983ZM472.448 479.501C471.262 477.945 469.505 476.925 467.564 476.665C465.623 476.406 463.658 476.927 462.1 478.115C460.541 479.304 459.518 481.061 459.256 483.002C458.993 484.942 459.512 486.906 460.698 488.462C461.885 490.018 463.642 491.038 465.582 491.298C467.523 491.557 469.489 491.036 471.047 489.847C472.605 488.659 473.628 486.901 473.891 484.961C474.154 483.021 473.635 481.057 472.448 479.501V479.501ZM517.185 538.161C515.999 536.605 514.242 535.585 512.301 535.325C510.36 535.065 508.394 535.587 506.836 536.775C505.278 537.964 504.255 539.721 503.992 541.662C503.73 543.602 504.248 545.566 505.435 547.122C506.621 548.678 508.378 549.698 510.319 549.957C512.26 550.217 514.225 549.696 515.784 548.507C517.342 547.319 518.365 545.561 518.628 543.621C518.89 541.681 518.372 539.716 517.185 538.161V538.161ZM220.242 254.344C219.055 252.788 217.298 251.768 215.358 251.508C213.417 251.248 211.451 251.77 209.893 252.958C208.335 254.147 207.312 255.904 207.049 257.845C206.786 259.785 207.305 261.749 208.492 263.305C209.678 264.861 211.435 265.881 213.376 266.14C215.317 266.4 217.282 265.879 218.84 264.69C220.399 263.502 221.422 261.744 221.684 259.804C221.947 257.863 221.428 255.899 220.242 254.344ZM146.994 263.817C145.807 262.261 144.05 261.241 142.109 260.982C140.169 260.722 138.203 261.243 136.645 262.432C135.087 263.62 134.064 265.378 133.801 267.318C133.538 269.259 134.057 271.223 135.243 272.778C136.43 274.334 138.187 275.354 140.128 275.614C142.068 275.874 144.034 275.352 145.592 274.164C147.15 272.975 148.173 271.218 148.436 269.277C148.699 267.337 148.18 265.373 146.994 263.817ZM102.257 205.157C101.07 203.602 99.3134 202.582 97.3726 202.322C95.4319 202.062 93.4662 202.584 91.908 203.772C90.3499 204.96 89.3269 206.718 89.0641 208.658C88.8013 210.599 89.3202 212.563 90.5067 214.119C91.6932 215.674 93.45 216.694 95.3908 216.954C97.3316 217.214 99.2972 216.692 100.855 215.504C102.414 214.316 103.437 212.558 103.699 210.618C103.962 208.677 103.443 206.713 102.257 205.157ZM130.768 137.024C129.582 135.468 127.825 134.448 125.884 134.188C123.944 133.929 121.978 134.45 120.42 135.639C118.861 136.827 117.839 138.585 117.576 140.525C117.313 142.465 117.832 144.429 119.018 145.985C120.205 147.541 121.962 148.561 123.902 148.821C125.843 149.081 127.809 148.559 129.367 147.371C130.925 146.182 131.948 144.425 132.211 142.484C132.474 140.544 131.955 138.58 130.768 137.024ZM204.028 127.542C202.841 125.986 201.084 124.966 199.144 124.706C197.203 124.447 195.237 124.968 193.679 126.157C192.121 127.345 191.098 129.103 190.835 131.043C190.572 132.983 191.091 134.947 192.278 136.503C193.464 138.059 195.221 139.079 197.162 139.339C199.103 139.598 201.068 139.077 202.626 137.889C204.185 136.7 205.208 134.943 205.47 133.002C205.733 131.062 205.214 129.098 204.028 127.542V127.542ZM248.765 186.202C247.578 184.646 245.821 183.626 243.88 183.366C241.94 183.106 239.974 183.628 238.416 184.816C236.858 186.005 235.835 187.762 235.572 189.703C235.309 191.643 235.828 193.607 237.015 195.163C238.201 196.719 239.958 197.739 241.899 197.998C243.839 198.258 245.805 197.737 247.363 196.548C248.921 195.36 249.944 193.602 250.207 191.662C250.47 189.722 249.951 187.758 248.765 186.202V186.202ZM252.692 507.93C251.506 506.374 249.749 505.354 247.808 505.095C245.867 504.835 243.902 505.356 242.343 506.545C240.785 507.733 239.762 509.491 239.499 511.431C239.237 513.371 239.756 515.335 240.942 516.891C242.128 518.447 243.885 519.467 245.826 519.727C247.767 519.987 249.733 519.465 251.291 518.277C252.849 517.088 253.872 515.331 254.135 513.39C254.397 511.45 253.879 509.486 252.692 507.93ZM179.444 517.404C178.257 515.848 176.5 514.828 174.56 514.568C172.619 514.308 170.653 514.83 169.095 516.018C167.537 517.207 166.514 518.964 166.251 520.905C165.988 522.845 166.507 524.809 167.694 526.365C168.88 527.921 170.637 528.941 172.578 529.2C174.518 529.46 176.484 528.939 178.042 527.75C179.6 526.562 180.624 524.804 180.886 522.864C181.149 520.923 180.63 518.959 179.444 517.404V517.404ZM134.707 458.744C133.52 457.188 131.764 456.168 129.823 455.908C127.882 455.648 125.916 456.17 124.358 457.358C122.8 458.547 121.777 460.304 121.514 462.245C121.251 464.185 121.77 466.149 122.957 467.705C124.143 469.261 125.9 470.281 127.841 470.541C129.782 470.8 131.747 470.279 133.306 469.09C134.864 467.902 135.887 466.144 136.15 464.204C136.412 462.264 135.893 460.3 134.707 458.744V458.744ZM163.219 390.61C162.032 389.055 160.275 388.035 158.334 387.775C156.394 387.515 154.428 388.037 152.87 389.225C151.312 390.413 150.289 392.171 150.026 394.111C149.763 396.052 150.282 398.016 151.469 399.572C152.655 401.127 154.412 402.147 156.353 402.407C158.293 402.667 160.259 402.145 161.817 400.957C163.375 399.769 164.398 398.011 164.661 396.071C164.924 394.13 164.405 392.166 163.219 390.61ZM236.467 381.137C235.28 379.581 233.524 378.561 231.583 378.301C229.642 378.041 227.676 378.563 226.118 379.751C224.56 380.94 223.537 382.697 223.274 384.638C223.011 386.578 223.53 388.542 224.717 390.098C225.903 391.654 227.66 392.674 229.601 392.934C231.542 393.193 233.507 392.672 235.066 391.483C236.624 390.295 237.647 388.537 237.91 386.597C238.172 384.657 237.653 382.693 236.467 381.137ZM281.204 439.797C280.017 438.241 278.26 437.221 276.32 436.961C274.379 436.701 272.413 437.223 270.855 438.411C269.297 439.6 268.274 441.357 268.011 443.298C267.748 445.238 268.267 447.202 269.454 448.758C270.64 450.314 272.397 451.334 274.338 451.593C276.279 451.853 278.244 451.332 279.802 450.143C281.36 448.955 282.384 447.197 282.646 445.257C282.909 443.317 282.39 441.352 281.204 439.797ZM118.482 331.951C117.295 330.395 115.538 329.375 113.598 329.115C111.657 328.855 109.691 329.377 108.133 330.565C106.575 331.754 105.552 333.511 105.289 335.452C105.026 337.392 105.545 339.356 106.732 340.912C107.918 342.468 109.675 343.488 111.616 343.747C113.557 344.007 115.522 343.486 117.08 342.297C118.639 341.109 119.662 339.351 119.924 337.411C120.187 335.47 119.668 333.506 118.482 331.951ZM45.2335 341.424C44.047 339.868 42.2901 338.848 40.3494 338.589C38.4086 338.329 36.4429 338.85 34.8848 340.039C33.3266 341.227 32.3036 342.985 32.0408 344.925C31.778 346.866 32.2969 348.83 33.4834 350.385C34.6699 351.941 36.4267 352.961 38.3675 353.221C40.3083 353.481 42.274 352.959 43.8321 351.771C45.3903 350.582 46.4133 348.825 46.6761 346.884C46.9389 344.944 46.42 342.98 45.2335 341.424V341.424ZM0.496726 282.764C-0.689766 281.209 -2.44662 280.189 -4.38738 279.929C-6.32814 279.669 -8.29383 280.191 -9.85198 281.379C-11.4101 282.567 -12.4332 284.325 -12.696 286.265C-12.9588 288.206 -12.4398 290.17 -11.2533 291.726C-10.0668 293.281 -8.30999 294.301 -6.36923 294.561C-4.42848 294.821 -2.46279 294.299 -0.90463 293.111C0.653525 291.923 1.67654 290.165 1.93935 288.225C2.20216 286.284 1.68322 284.32 0.496726 282.764V282.764ZM29.0084 214.631C27.8219 213.075 26.065 212.055 24.1242 211.795C22.1835 211.536 20.2178 212.057 18.6596 213.246C17.1015 214.434 16.0785 216.192 15.8157 218.132C15.5529 220.072 16.0718 222.036 17.2583 223.592C18.4448 225.148 20.2016 226.168 22.1424 226.428C24.0832 226.688 26.0488 226.166 27.607 224.978C29.1652 223.789 30.1881 222.032 30.4509 220.091C30.7138 218.151 30.1949 216.187 29.0084 214.631Z" fill="#2FC9AD" fill-opacity="0.98"/>
<path d="M979.617 387.745L728.084 420.277L574.46 218.842L672.369 -15.1267L923.902 -47.6596L1077.53 153.776L979.617 387.745ZM225.017 485.343L-26.5164 517.876L-180.141 316.44L-82.2315 82.472L169.302 49.9391L322.926 251.375L225.017 485.343Z" stroke="#2FC9AD" stroke-width="2"/>
</g>
</g>
<rect x="537" y="1008.24" width="245.004" height="245.004" rx="30" transform="rotate(-45 537 1008.24)" fill="#F5FDFF"/>
</g>
<defs>
<clipPath id="clip0_49_7">
<rect width="700" height="1216" fill="white"/>
</clipPath>
<clipPath id="clip1_49_7">
<rect x="-109.572" y="-147.775" width="739.55" height="785.92" rx="70" transform="rotate(-26 -109.572 -147.775)" fill="white"/>
</clipPath>
<clipPath id="clip2_49_7">
<rect width="649" height="540" fill="white" transform="translate(846.054 461.375) rotate(148.669)"/>
</clipPath>
<clipPath id="clip3_49_7">
<rect x="-314.655" y="-5.26367" width="739.462" height="700" rx="70" transform="rotate(-32 -314.655 -5.26367)" fill="white"/>
</clipPath>
<clipPath id="clip4_49_7">
<rect width="836.447" height="695.965" fill="white" transform="translate(883.143 244.395) rotate(142.669)"/>
</clipPath>
</defs>
</svg>
