<svg width="700" height="1216" viewBox="0 0 700 1216" fill="none" xmlns="http://www.w3.org/2000/svg">
<g clip-path="url(#clip0_63_5)">
<rect width="700" height="1216" fill="white"/>
<rect width="700" height="203" transform="translate(0 -29)" fill="#F58646"/>
<g clip-path="url(#clip1_63_5)">
<rect x="400" width="450" height="370" rx="50" fill="#F58646"/>
<path d="M541.544 -95.744C540.584 -95.744 539.795 -96.0213 539.176 -96.576C538.579 -97.152 538.28 -97.856 538.28 -98.688C538.28 -99.5413 538.579 -100.256 539.176 -100.832C539.795 -101.408 540.584 -101.696 541.544 -101.696C542.483 -101.696 543.251 -101.408 543.848 -100.832C544.467 -100.256 544.776 -99.5413 544.776 -98.688C544.776 -97.856 544.467 -97.152 543.848 -96.576C543.251 -96.0213 542.483 -95.744 541.544 -95.744ZM564.655 -95.744C563.695 -95.744 562.906 -96.0213 562.287 -96.576C561.69 -97.152 561.391 -97.856 561.391 -98.688C561.391 -99.5413 561.69 -100.256 562.287 -100.832C562.906 -101.408 563.695 -101.696 564.655 -101.696C565.594 -101.696 566.362 -101.408 566.959 -100.832C567.578 -100.256 567.887 -99.5413 567.887 -98.688C567.887 -97.856 567.578 -97.152 566.959 -96.576C566.362 -96.0213 565.594 -95.744 564.655 -95.744ZM587.766 -95.744C586.806 -95.744 586.017 -96.0213 585.398 -96.576C584.801 -97.152 584.502 -97.856 584.502 -98.688C584.502 -99.5413 584.801 -100.256 585.398 -100.832C586.017 -101.408 586.806 -101.696 587.766 -101.696C588.705 -101.696 589.473 -101.408 590.071 -100.832C590.689 -100.256 590.999 -99.5413 590.999 -98.688C590.999 -97.856 590.689 -97.152 590.071 -96.576C589.473 -96.0213 588.705 -95.744 587.766 -95.744ZM610.878 -95.744C609.918 -95.744 609.128 -96.0213 608.51 -96.576C607.912 -97.152 607.614 -97.856 607.614 -98.688C607.614 -99.5413 607.912 -100.256 608.51 -100.832C609.128 -101.408 609.918 -101.696 610.878 -101.696C611.816 -101.696 612.584 -101.408 613.182 -100.832C613.8 -100.256 614.11 -99.5413 614.11 -98.688C614.11 -97.856 613.8 -97.152 613.182 -96.576C612.584 -96.0213 611.816 -95.744 610.878 -95.744ZM633.989 -95.744C633.029 -95.744 632.24 -96.0213 631.621 -96.576C631.024 -97.152 630.725 -97.856 630.725 -98.688C630.725 -99.5413 631.024 -100.256 631.621 -100.832C632.24 -101.408 633.029 -101.696 633.989 -101.696C634.928 -101.696 635.696 -101.408 636.293 -100.832C636.912 -100.256 637.221 -99.5413 637.221 -98.688C637.221 -97.856 636.912 -97.152 636.293 -96.576C635.696 -96.0213 634.928 -95.744 633.989 -95.744ZM657.1 -95.744C656.14 -95.744 655.351 -96.0213 654.732 -96.576C654.135 -97.152 653.836 -97.856 653.836 -98.688C653.836 -99.5413 654.135 -100.256 654.732 -100.832C655.351 -101.408 656.14 -101.696 657.1 -101.696C658.039 -101.696 658.807 -101.408 659.404 -100.832C660.023 -100.256 660.332 -99.5413 660.332 -98.688C660.332 -97.856 660.023 -97.152 659.404 -96.576C658.807 -96.0213 658.039 -95.744 657.1 -95.744ZM680.211 -95.744C679.251 -95.744 678.462 -96.0213 677.843 -96.576C677.246 -97.152 676.947 -97.856 676.947 -98.688C676.947 -99.5413 677.246 -100.256 677.843 -100.832C678.462 -101.408 679.251 -101.696 680.211 -101.696C681.15 -101.696 681.918 -101.408 682.515 -100.832C683.134 -100.256 683.443 -99.5413 683.443 -98.688C683.443 -97.856 683.134 -97.152 682.515 -96.576C681.918 -96.0213 681.15 -95.744 680.211 -95.744ZM703.323 -95.744C702.363 -95.744 701.573 -96.0213 700.955 -96.576C700.357 -97.152 700.059 -97.856 700.059 -98.688C700.059 -99.5413 700.357 -100.256 700.955 -100.832C701.573 -101.408 702.363 -101.696 703.323 -101.696C704.261 -101.696 705.029 -101.408 705.627 -100.832C706.245 -100.256 706.555 -99.5413 706.555 -98.688C706.555 -97.856 706.245 -97.152 705.627 -96.576C705.029 -96.0213 704.261 -95.744 703.323 -95.744ZM726.434 -95.744C725.474 -95.744 724.685 -96.0213 724.066 -96.576C723.469 -97.152 723.17 -97.856 723.17 -98.688C723.17 -99.5413 723.469 -100.256 724.066 -100.832C724.685 -101.408 725.474 -101.696 726.434 -101.696C727.373 -101.696 728.141 -101.408 728.738 -100.832C729.357 -100.256 729.666 -99.5413 729.666 -98.688C729.666 -97.856 729.357 -97.152 728.738 -96.576C728.141 -96.0213 727.373 -95.744 726.434 -95.744ZM749.545 -95.744C748.585 -95.744 747.796 -96.0213 747.177 -96.576C746.58 -97.152 746.281 -97.856 746.281 -98.688C746.281 -99.5413 746.58 -100.256 747.177 -100.832C747.796 -101.408 748.585 -101.696 749.545 -101.696C750.484 -101.696 751.252 -101.408 751.849 -100.832C752.468 -100.256 752.777 -99.5413 752.777 -98.688C752.777 -97.856 752.468 -97.152 751.849 -96.576C751.252 -96.0213 750.484 -95.744 749.545 -95.744ZM541.544 -47.744C540.584 -47.744 539.795 -48.0213 539.176 -48.576C538.579 -49.152 538.28 -49.856 538.28 -50.688C538.28 -51.5413 538.579 -52.256 539.176 -52.832C539.795 -53.408 540.584 -53.696 541.544 -53.696C542.483 -53.696 543.251 -53.408 543.848 -52.832C544.467 -52.256 544.776 -51.5413 544.776 -50.688C544.776 -49.856 544.467 -49.152 543.848 -48.576C543.251 -48.0213 542.483 -47.744 541.544 -47.744ZM564.655 -47.744C563.695 -47.744 562.906 -48.0213 562.287 -48.576C561.69 -49.152 561.391 -49.856 561.391 -50.688C561.391 -51.5413 561.69 -52.256 562.287 -52.832C562.906 -53.408 563.695 -53.696 564.655 -53.696C565.594 -53.696 566.362 -53.408 566.959 -52.832C567.578 -52.256 567.887 -51.5413 567.887 -50.688C567.887 -49.856 567.578 -49.152 566.959 -48.576C566.362 -48.0213 565.594 -47.744 564.655 -47.744ZM587.766 -47.744C586.806 -47.744 586.017 -48.0213 585.398 -48.576C584.801 -49.152 584.502 -49.856 584.502 -50.688C584.502 -51.5413 584.801 -52.256 585.398 -52.832C586.017 -53.408 586.806 -53.696 587.766 -53.696C588.705 -53.696 589.473 -53.408 590.071 -52.832C590.689 -52.256 590.999 -51.5413 590.999 -50.688C590.999 -49.856 590.689 -49.152 590.071 -48.576C589.473 -48.0213 588.705 -47.744 587.766 -47.744ZM610.878 -47.744C609.918 -47.744 609.128 -48.0213 608.51 -48.576C607.912 -49.152 607.614 -49.856 607.614 -50.688C607.614 -51.5413 607.912 -52.256 608.51 -52.832C609.128 -53.408 609.918 -53.696 610.878 -53.696C611.816 -53.696 612.584 -53.408 613.182 -52.832C613.8 -52.256 614.11 -51.5413 614.11 -50.688C614.11 -49.856 613.8 -49.152 613.182 -48.576C612.584 -48.0213 611.816 -47.744 610.878 -47.744ZM633.989 -47.744C633.029 -47.744 632.24 -48.0213 631.621 -48.576C631.024 -49.152 630.725 -49.856 630.725 -50.688C630.725 -51.5413 631.024 -52.256 631.621 -52.832C632.24 -53.408 633.029 -53.696 633.989 -53.696C634.928 -53.696 635.696 -53.408 636.293 -52.832C636.912 -52.256 637.221 -51.5413 637.221 -50.688C637.221 -49.856 636.912 -49.152 636.293 -48.576C635.696 -48.0213 634.928 -47.744 633.989 -47.744ZM657.1 -47.744C656.14 -47.744 655.351 -48.0213 654.732 -48.576C654.135 -49.152 653.836 -49.856 653.836 -50.688C653.836 -51.5413 654.135 -52.256 654.732 -52.832C655.351 -53.408 656.14 -53.696 657.1 -53.696C658.039 -53.696 658.807 -53.408 659.404 -52.832C660.023 -52.256 660.332 -51.5413 660.332 -50.688C660.332 -49.856 660.023 -49.152 659.404 -48.576C658.807 -48.0213 658.039 -47.744 657.1 -47.744ZM680.211 -47.744C679.251 -47.744 678.462 -48.0213 677.843 -48.576C677.246 -49.152 676.947 -49.856 676.947 -50.688C676.947 -51.5413 677.246 -52.256 677.843 -52.832C678.462 -53.408 679.251 -53.696 680.211 -53.696C681.15 -53.696 681.918 -53.408 682.515 -52.832C683.134 -52.256 683.443 -51.5413 683.443 -50.688C683.443 -49.856 683.134 -49.152 682.515 -48.576C681.918 -48.0213 681.15 -47.744 680.211 -47.744ZM703.323 -47.744C702.363 -47.744 701.573 -48.0213 700.955 -48.576C700.357 -49.152 700.059 -49.856 700.059 -50.688C700.059 -51.5413 700.357 -52.256 700.955 -52.832C701.573 -53.408 702.363 -53.696 703.323 -53.696C704.261 -53.696 705.029 -53.408 705.627 -52.832C706.245 -52.256 706.555 -51.5413 706.555 -50.688C706.555 -49.856 706.245 -49.152 705.627 -48.576C705.029 -48.0213 704.261 -47.744 703.323 -47.744ZM726.434 -47.744C725.474 -47.744 724.685 -48.0213 724.066 -48.576C723.469 -49.152 723.17 -49.856 723.17 -50.688C723.17 -51.5413 723.469 -52.256 724.066 -52.832C724.685 -53.408 725.474 -53.696 726.434 -53.696C727.373 -53.696 728.141 -53.408 728.738 -52.832C729.357 -52.256 729.666 -51.5413 729.666 -50.688C729.666 -49.856 729.357 -49.152 728.738 -48.576C728.141 -48.0213 727.373 -47.744 726.434 -47.744ZM749.545 -47.744C748.585 -47.744 747.796 -48.0213 747.177 -48.576C746.58 -49.152 746.281 -49.856 746.281 -50.688C746.281 -51.5413 746.58 -52.256 747.177 -52.832C747.796 -53.408 748.585 -53.696 749.545 -53.696C750.484 -53.696 751.252 -53.408 751.849 -52.832C752.468 -52.256 752.777 -51.5413 752.777 -50.688C752.777 -49.856 752.468 -49.152 751.849 -48.576C751.252 -48.0213 750.484 -47.744 749.545 -47.744ZM541.544 0.256C540.584 0.256 539.795 -0.0213333 539.176 -0.576C538.579 -1.152 538.28 -1.856 538.28 -2.688C538.28 -3.54133 538.579 -4.256 539.176 -4.832C539.795 -5.408 540.584 -5.696 541.544 -5.696C542.483 -5.696 543.251 -5.408 543.848 -4.832C544.467 -4.256 544.776 -3.54133 544.776 -2.688C544.776 -1.856 544.467 -1.152 543.848 -0.576C543.251 -0.0213333 542.483 0.256 541.544 0.256ZM564.655 0.256C563.695 0.256 562.906 -0.0213333 562.287 -0.576C561.69 -1.152 561.391 -1.856 561.391 -2.688C561.391 -3.54133 561.69 -4.256 562.287 -4.832C562.906 -5.408 563.695 -5.696 564.655 -5.696C565.594 -5.696 566.362 -5.408 566.959 -4.832C567.578 -4.256 567.887 -3.54133 567.887 -2.688C567.887 -1.856 567.578 -1.152 566.959 -0.576C566.362 -0.0213333 565.594 0.256 564.655 0.256ZM587.766 0.256C586.806 0.256 586.017 -0.0213333 585.398 -0.576C584.801 -1.152 584.502 -1.856 584.502 -2.688C584.502 -3.54133 584.801 -4.256 585.398 -4.832C586.017 -5.408 586.806 -5.696 587.766 -5.696C588.705 -5.696 589.473 -5.408 590.071 -4.832C590.689 -4.256 590.999 -3.54133 590.999 -2.688C590.999 -1.856 590.689 -1.152 590.071 -0.576C589.473 -0.0213333 588.705 0.256 587.766 0.256ZM610.878 0.256C609.918 0.256 609.128 -0.0213333 608.51 -0.576C607.912 -1.152 607.614 -1.856 607.614 -2.688C607.614 -3.54133 607.912 -4.256 608.51 -4.832C609.128 -5.408 609.918 -5.696 610.878 -5.696C611.816 -5.696 612.584 -5.408 613.182 -4.832C613.8 -4.256 614.11 -3.54133 614.11 -2.688C614.11 -1.856 613.8 -1.152 613.182 -0.576C612.584 -0.0213333 611.816 0.256 610.878 0.256ZM633.989 0.256C633.029 0.256 632.24 -0.0213333 631.621 -0.576C631.024 -1.152 630.725 -1.856 630.725 -2.688C630.725 -3.54133 631.024 -4.256 631.621 -4.832C632.24 -5.408 633.029 -5.696 633.989 -5.696C634.928 -5.696 635.696 -5.408 636.293 -4.832C636.912 -4.256 637.221 -3.54133 637.221 -2.688C637.221 -1.856 636.912 -1.152 636.293 -0.576C635.696 -0.0213333 634.928 0.256 633.989 0.256ZM657.1 0.256C656.14 0.256 655.351 -0.0213333 654.732 -0.576C654.135 -1.152 653.836 -1.856 653.836 -2.688C653.836 -3.54133 654.135 -4.256 654.732 -4.832C655.351 -5.408 656.14 -5.696 657.1 -5.696C658.039 -5.696 658.807 -5.408 659.404 -4.832C660.023 -4.256 660.332 -3.54133 660.332 -2.688C660.332 -1.856 660.023 -1.152 659.404 -0.576C658.807 -0.0213333 658.039 0.256 657.1 0.256ZM680.211 0.256C679.251 0.256 678.462 -0.0213333 677.843 -0.576C677.246 -1.152 676.947 -1.856 676.947 -2.688C676.947 -3.54133 677.246 -4.256 677.843 -4.832C678.462 -5.408 679.251 -5.696 680.211 -5.696C681.15 -5.696 681.918 -5.408 682.515 -4.832C683.134 -4.256 683.443 -3.54133 683.443 -2.688C683.443 -1.856 683.134 -1.152 682.515 -0.576C681.918 -0.0213333 681.15 0.256 680.211 0.256ZM703.323 0.256C702.363 0.256 701.573 -0.0213333 700.955 -0.576C700.357 -1.152 700.059 -1.856 700.059 -2.688C700.059 -3.54133 700.357 -4.256 700.955 -4.832C701.573 -5.408 702.363 -5.696 703.323 -5.696C704.261 -5.696 705.029 -5.408 705.627 -4.832C706.245 -4.256 706.555 -3.54133 706.555 -2.688C706.555 -1.856 706.245 -1.152 705.627 -0.576C705.029 -0.0213333 704.261 0.256 703.323 0.256ZM726.434 0.256C725.474 0.256 724.685 -0.0213333 724.066 -0.576C723.469 -1.152 723.17 -1.856 723.17 -2.688C723.17 -3.54133 723.469 -4.256 724.066 -4.832C724.685 -5.408 725.474 -5.696 726.434 -5.696C727.373 -5.696 728.141 -5.408 728.738 -4.832C729.357 -4.256 729.666 -3.54133 729.666 -2.688C729.666 -1.856 729.357 -1.152 728.738 -0.576C728.141 -0.0213333 727.373 0.256 726.434 0.256ZM749.545 0.256C748.585 0.256 747.796 -0.0213333 747.177 -0.576C746.58 -1.152 746.281 -1.856 746.281 -2.688C746.281 -3.54133 746.58 -4.256 747.177 -4.832C747.796 -5.408 748.585 -5.696 749.545 -5.696C750.484 -5.696 751.252 -5.408 751.849 -4.832C752.468 -4.256 752.777 -3.54133 752.777 -2.688C752.777 -1.856 752.468 -1.152 751.849 -0.576C751.252 -0.0213333 750.484 0.256 749.545 0.256ZM541.544 48.256C540.584 48.256 539.795 47.9787 539.176 47.424C538.579 46.848 538.28 46.144 538.28 45.312C538.28 44.4587 538.579 43.744 539.176 43.168C539.795 42.592 540.584 42.304 541.544 42.304C542.483 42.304 543.251 42.592 543.848 43.168C544.467 43.744 544.776 44.4587 544.776 45.312C544.776 46.144 544.467 46.848 543.848 47.424C543.251 47.9787 542.483 48.256 541.544 48.256ZM564.655 48.256C563.695 48.256 562.906 47.9787 562.287 47.424C561.69 46.848 561.391 46.144 561.391 45.312C561.391 44.4587 561.69 43.744 562.287 43.168C562.906 42.592 563.695 42.304 564.655 42.304C565.594 42.304 566.362 42.592 566.959 43.168C567.578 43.744 567.887 44.4587 567.887 45.312C567.887 46.144 567.578 46.848 566.959 47.424C566.362 47.9787 565.594 48.256 564.655 48.256ZM587.766 48.256C586.806 48.256 586.017 47.9787 585.398 47.424C584.801 46.848 584.502 46.144 584.502 45.312C584.502 44.4587 584.801 43.744 585.398 43.168C586.017 42.592 586.806 42.304 587.766 42.304C588.705 42.304 589.473 42.592 590.071 43.168C590.689 43.744 590.999 44.4587 590.999 45.312C590.999 46.144 590.689 46.848 590.071 47.424C589.473 47.9787 588.705 48.256 587.766 48.256ZM610.878 48.256C609.918 48.256 609.128 47.9787 608.51 47.424C607.912 46.848 607.614 46.144 607.614 45.312C607.614 44.4587 607.912 43.744 608.51 43.168C609.128 42.592 609.918 42.304 610.878 42.304C611.816 42.304 612.584 42.592 613.182 43.168C613.8 43.744 614.11 44.4587 614.11 45.312C614.11 46.144 613.8 46.848 613.182 47.424C612.584 47.9787 611.816 48.256 610.878 48.256ZM633.989 48.256C633.029 48.256 632.24 47.9787 631.621 47.424C631.024 46.848 630.725 46.144 630.725 45.312C630.725 44.4587 631.024 43.744 631.621 43.168C632.24 42.592 633.029 42.304 633.989 42.304C634.928 42.304 635.696 42.592 636.293 43.168C636.912 43.744 637.221 44.4587 637.221 45.312C637.221 46.144 636.912 46.848 636.293 47.424C635.696 47.9787 634.928 48.256 633.989 48.256ZM657.1 48.256C656.14 48.256 655.351 47.9787 654.732 47.424C654.135 46.848 653.836 46.144 653.836 45.312C653.836 44.4587 654.135 43.744 654.732 43.168C655.351 42.592 656.14 42.304 657.1 42.304C658.039 42.304 658.807 42.592 659.404 43.168C660.023 43.744 660.332 44.4587 660.332 45.312C660.332 46.144 660.023 46.848 659.404 47.424C658.807 47.9787 658.039 48.256 657.1 48.256ZM680.211 48.256C679.251 48.256 678.462 47.9787 677.843 47.424C677.246 46.848 676.947 46.144 676.947 45.312C676.947 44.4587 677.246 43.744 677.843 43.168C678.462 42.592 679.251 42.304 680.211 42.304C681.15 42.304 681.918 42.592 682.515 43.168C683.134 43.744 683.443 44.4587 683.443 45.312C683.443 46.144 683.134 46.848 682.515 47.424C681.918 47.9787 681.15 48.256 680.211 48.256ZM703.323 48.256C702.363 48.256 701.573 47.9787 700.955 47.424C700.357 46.848 700.059 46.144 700.059 45.312C700.059 44.4587 700.357 43.744 700.955 43.168C701.573 42.592 702.363 42.304 703.323 42.304C704.261 42.304 705.029 42.592 705.627 43.168C706.245 43.744 706.555 44.4587 706.555 45.312C706.555 46.144 706.245 46.848 705.627 47.424C705.029 47.9787 704.261 48.256 703.323 48.256ZM726.434 48.256C725.474 48.256 724.685 47.9787 724.066 47.424C723.469 46.848 723.17 46.144 723.17 45.312C723.17 44.4587 723.469 43.744 724.066 43.168C724.685 42.592 725.474 42.304 726.434 42.304C727.373 42.304 728.141 42.592 728.738 43.168C729.357 43.744 729.666 44.4587 729.666 45.312C729.666 46.144 729.357 46.848 728.738 47.424C728.141 47.9787 727.373 48.256 726.434 48.256ZM749.545 48.256C748.585 48.256 747.796 47.9787 747.177 47.424C746.58 46.848 746.281 46.144 746.281 45.312C746.281 44.4587 746.58 43.744 747.177 43.168C747.796 42.592 748.585 42.304 749.545 42.304C750.484 42.304 751.252 42.592 751.849 43.168C752.468 43.744 752.777 44.4587 752.777 45.312C752.777 46.144 752.468 46.848 751.849 47.424C751.252 47.9787 750.484 48.256 749.545 48.256ZM541.544 96.256C540.584 96.256 539.795 95.9787 539.176 95.424C538.579 94.848 538.28 94.144 538.28 93.312C538.28 92.4587 538.579 91.744 539.176 91.168C539.795 90.592 540.584 90.304 541.544 90.304C542.483 90.304 543.251 90.592 543.848 91.168C544.467 91.744 544.776 92.4587 544.776 93.312C544.776 94.144 544.467 94.848 543.848 95.424C543.251 95.9787 542.483 96.256 541.544 96.256ZM564.655 96.256C563.695 96.256 562.906 95.9787 562.287 95.424C561.69 94.848 561.391 94.144 561.391 93.312C561.391 92.4587 561.69 91.744 562.287 91.168C562.906 90.592 563.695 90.304 564.655 90.304C565.594 90.304 566.362 90.592 566.959 91.168C567.578 91.744 567.887 92.4587 567.887 93.312C567.887 94.144 567.578 94.848 566.959 95.424C566.362 95.9787 565.594 96.256 564.655 96.256ZM587.766 96.256C586.806 96.256 586.017 95.9787 585.398 95.424C584.801 94.848 584.502 94.144 584.502 93.312C584.502 92.4587 584.801 91.744 585.398 91.168C586.017 90.592 586.806 90.304 587.766 90.304C588.705 90.304 589.473 90.592 590.071 91.168C590.689 91.744 590.999 92.4587 590.999 93.312C590.999 94.144 590.689 94.848 590.071 95.424C589.473 95.9787 588.705 96.256 587.766 96.256ZM610.878 96.256C609.918 96.256 609.128 95.9787 608.51 95.424C607.912 94.848 607.614 94.144 607.614 93.312C607.614 92.4587 607.912 91.744 608.51 91.168C609.128 90.592 609.918 90.304 610.878 90.304C611.816 90.304 612.584 90.592 613.182 91.168C613.8 91.744 614.11 92.4587 614.11 93.312C614.11 94.144 613.8 94.848 613.182 95.424C612.584 95.9787 611.816 96.256 610.878 96.256ZM633.989 96.256C633.029 96.256 632.24 95.9787 631.621 95.424C631.024 94.848 630.725 94.144 630.725 93.312C630.725 92.4587 631.024 91.744 631.621 91.168C632.24 90.592 633.029 90.304 633.989 90.304C634.928 90.304 635.696 90.592 636.293 91.168C636.912 91.744 637.221 92.4587 637.221 93.312C637.221 94.144 636.912 94.848 636.293 95.424C635.696 95.9787 634.928 96.256 633.989 96.256ZM657.1 96.256C656.14 96.256 655.351 95.9787 654.732 95.424C654.135 94.848 653.836 94.144 653.836 93.312C653.836 92.4587 654.135 91.744 654.732 91.168C655.351 90.592 656.14 90.304 657.1 90.304C658.039 90.304 658.807 90.592 659.404 91.168C660.023 91.744 660.332 92.4587 660.332 93.312C660.332 94.144 660.023 94.848 659.404 95.424C658.807 95.9787 658.039 96.256 657.1 96.256ZM680.211 96.256C679.251 96.256 678.462 95.9787 677.843 95.424C677.246 94.848 676.947 94.144 676.947 93.312C676.947 92.4587 677.246 91.744 677.843 91.168C678.462 90.592 679.251 90.304 680.211 90.304C681.15 90.304 681.918 90.592 682.515 91.168C683.134 91.744 683.443 92.4587 683.443 93.312C683.443 94.144 683.134 94.848 682.515 95.424C681.918 95.9787 681.15 96.256 680.211 96.256ZM703.323 96.256C702.363 96.256 701.573 95.9787 700.955 95.424C700.357 94.848 700.059 94.144 700.059 93.312C700.059 92.4587 700.357 91.744 700.955 91.168C701.573 90.592 702.363 90.304 703.323 90.304C704.261 90.304 705.029 90.592 705.627 91.168C706.245 91.744 706.555 92.4587 706.555 93.312C706.555 94.144 706.245 94.848 705.627 95.424C705.029 95.9787 704.261 96.256 703.323 96.256ZM726.434 96.256C725.474 96.256 724.685 95.9787 724.066 95.424C723.469 94.848 723.17 94.144 723.17 93.312C723.17 92.4587 723.469 91.744 724.066 91.168C724.685 90.592 725.474 90.304 726.434 90.304C727.373 90.304 728.141 90.592 728.738 91.168C729.357 91.744 729.666 92.4587 729.666 93.312C729.666 94.144 729.357 94.848 728.738 95.424C728.141 95.9787 727.373 96.256 726.434 96.256ZM749.545 96.256C748.585 96.256 747.796 95.9787 747.177 95.424C746.58 94.848 746.281 94.144 746.281 93.312C746.281 92.4587 746.58 91.744 747.177 91.168C747.796 90.592 748.585 90.304 749.545 90.304C750.484 90.304 751.252 90.592 751.849 91.168C752.468 91.744 752.777 92.4587 752.777 93.312C752.777 94.144 752.468 94.848 751.849 95.424C751.252 95.9787 750.484 96.256 749.545 96.256ZM541.544 144.256C540.584 144.256 539.795 143.979 539.176 143.424C538.579 142.848 538.28 142.144 538.28 141.312C538.28 140.459 538.579 139.744 539.176 139.168C539.795 138.592 540.584 138.304 541.544 138.304C542.483 138.304 543.251 138.592 543.848 139.168C544.467 139.744 544.776 140.459 544.776 141.312C544.776 142.144 544.467 142.848 543.848 143.424C543.251 143.979 542.483 144.256 541.544 144.256ZM564.655 144.256C563.695 144.256 562.906 143.979 562.287 143.424C561.69 142.848 561.391 142.144 561.391 141.312C561.391 140.459 561.69 139.744 562.287 139.168C562.906 138.592 563.695 138.304 564.655 138.304C565.594 138.304 566.362 138.592 566.959 139.168C567.578 139.744 567.887 140.459 567.887 141.312C567.887 142.144 567.578 142.848 566.959 143.424C566.362 143.979 565.594 144.256 564.655 144.256ZM587.766 144.256C586.806 144.256 586.017 143.979 585.398 143.424C584.801 142.848 584.502 142.144 584.502 141.312C584.502 140.459 584.801 139.744 585.398 139.168C586.017 138.592 586.806 138.304 587.766 138.304C588.705 138.304 589.473 138.592 590.071 139.168C590.689 139.744 590.999 140.459 590.999 141.312C590.999 142.144 590.689 142.848 590.071 143.424C589.473 143.979 588.705 144.256 587.766 144.256ZM610.878 144.256C609.918 144.256 609.128 143.979 608.51 143.424C607.912 142.848 607.614 142.144 607.614 141.312C607.614 140.459 607.912 139.744 608.51 139.168C609.128 138.592 609.918 138.304 610.878 138.304C611.816 138.304 612.584 138.592 613.182 139.168C613.8 139.744 614.11 140.459 614.11 141.312C614.11 142.144 613.8 142.848 613.182 143.424C612.584 143.979 611.816 144.256 610.878 144.256ZM633.989 144.256C633.029 144.256 632.24 143.979 631.621 143.424C631.024 142.848 630.725 142.144 630.725 141.312C630.725 140.459 631.024 139.744 631.621 139.168C632.24 138.592 633.029 138.304 633.989 138.304C634.928 138.304 635.696 138.592 636.293 139.168C636.912 139.744 637.221 140.459 637.221 141.312C637.221 142.144 636.912 142.848 636.293 143.424C635.696 143.979 634.928 144.256 633.989 144.256ZM657.1 144.256C656.14 144.256 655.351 143.979 654.732 143.424C654.135 142.848 653.836 142.144 653.836 141.312C653.836 140.459 654.135 139.744 654.732 139.168C655.351 138.592 656.14 138.304 657.1 138.304C658.039 138.304 658.807 138.592 659.404 139.168C660.023 139.744 660.332 140.459 660.332 141.312C660.332 142.144 660.023 142.848 659.404 143.424C658.807 143.979 658.039 144.256 657.1 144.256ZM680.211 144.256C679.251 144.256 678.462 143.979 677.843 143.424C677.246 142.848 676.947 142.144 676.947 141.312C676.947 140.459 677.246 139.744 677.843 139.168C678.462 138.592 679.251 138.304 680.211 138.304C681.15 138.304 681.918 138.592 682.515 139.168C683.134 139.744 683.443 140.459 683.443 141.312C683.443 142.144 683.134 142.848 682.515 143.424C681.918 143.979 681.15 144.256 680.211 144.256ZM703.323 144.256C702.363 144.256 701.573 143.979 700.955 143.424C700.357 142.848 700.059 142.144 700.059 141.312C700.059 140.459 700.357 139.744 700.955 139.168C701.573 138.592 702.363 138.304 703.323 138.304C704.261 138.304 705.029 138.592 705.627 139.168C706.245 139.744 706.555 140.459 706.555 141.312C706.555 142.144 706.245 142.848 705.627 143.424C705.029 143.979 704.261 144.256 703.323 144.256ZM726.434 144.256C725.474 144.256 724.685 143.979 724.066 143.424C723.469 142.848 723.17 142.144 723.17 141.312C723.17 140.459 723.469 139.744 724.066 139.168C724.685 138.592 725.474 138.304 726.434 138.304C727.373 138.304 728.141 138.592 728.738 139.168C729.357 139.744 729.666 140.459 729.666 141.312C729.666 142.144 729.357 142.848 728.738 143.424C728.141 143.979 727.373 144.256 726.434 144.256ZM749.545 144.256C748.585 144.256 747.796 143.979 747.177 143.424C746.58 142.848 746.281 142.144 746.281 141.312C746.281 140.459 746.58 139.744 747.177 139.168C747.796 138.592 748.585 138.304 749.545 138.304C750.484 138.304 751.252 138.592 751.849 139.168C752.468 139.744 752.777 140.459 752.777 141.312C752.777 142.144 752.468 142.848 751.849 143.424C751.252 143.979 750.484 144.256 749.545 144.256Z" fill="white"/>
</g>
<g clip-path="url(#clip2_63_5)">
<rect x="-150" width="450" height="370" rx="50" fill="#F58646"/>
<path d="M140.72 -31.7749C144.687 -37.6314 153.313 -37.6314 157.28 -31.7749L191.257 18.3923C195.754 25.0327 190.997 34 182.977 34H115.023C107.003 34 102.246 25.0328 106.743 18.3923L140.72 -31.7749Z" fill="white" fill-opacity="0.3"/>
<path d="M-185.436 181.972C-186.209 182.541 -187.01 182.786 -187.837 182.706C-188.659 182.596 -189.317 182.206 -189.81 181.536C-190.316 180.849 -190.5 180.097 -190.36 179.279C-190.203 178.448 -189.739 177.748 -188.966 177.179C-188.21 176.622 -187.421 176.399 -186.598 176.509C-185.758 176.605 -185.085 176.998 -184.579 177.685C-184.086 178.355 -183.918 179.105 -184.074 179.936C-184.227 180.736 -184.681 181.415 -185.436 181.972ZM-166.826 168.268C-167.599 168.837 -168.399 169.082 -169.226 169.002C-170.049 168.893 -170.707 168.503 -171.2 167.833C-171.706 167.146 -171.889 166.393 -171.75 165.575C-171.593 164.745 -171.128 164.045 -170.355 163.475C-169.599 162.919 -168.81 162.695 -167.988 162.805C-167.148 162.902 -166.475 163.294 -165.969 163.981C-165.476 164.651 -165.307 165.402 -165.464 166.232C-165.616 167.033 -166.07 167.712 -166.826 168.268ZM-148.216 154.565C-148.989 155.134 -149.789 155.379 -150.616 155.299C-151.438 155.189 -152.096 154.799 -152.59 154.129C-153.096 153.442 -153.279 152.69 -153.139 151.872C-152.983 151.041 -152.518 150.341 -151.745 149.772C-150.989 149.215 -150.2 148.992 -149.377 149.102C-148.538 149.199 -147.865 149.591 -147.359 150.278C-146.865 150.948 -146.697 151.698 -146.854 152.529C-147.006 153.33 -147.46 154.008 -148.216 154.565ZM-129.605 140.861C-130.378 141.431 -131.178 141.675 -132.006 141.595C-132.828 141.486 -133.486 141.096 -133.979 140.426C-134.485 139.739 -134.669 138.986 -134.529 138.168C-134.372 137.338 -133.908 136.638 -133.135 136.068C-132.379 135.512 -131.589 135.288 -130.767 135.398C-129.927 135.495 -129.254 135.887 -128.748 136.574C-128.255 137.244 -128.087 137.995 -128.243 138.825C-128.396 139.626 -128.85 140.305 -129.605 140.861ZM-110.995 127.158C-111.768 127.727 -112.568 127.972 -113.395 127.892C-114.218 127.782 -114.876 127.392 -115.369 126.723C-115.875 126.035 -116.058 125.283 -115.919 124.465C-115.762 123.634 -115.297 122.934 -114.524 122.365C-113.768 121.808 -112.979 121.585 -112.157 121.695C-111.317 121.792 -110.644 122.184 -110.138 122.871C-109.645 123.541 -109.476 124.291 -109.633 125.122C-109.785 125.923 -110.239 126.601 -110.995 127.158ZM-92.3847 113.454C-93.1578 114.024 -93.9578 114.268 -94.7849 114.188C-95.6074 114.079 -96.2653 113.689 -96.7587 113.019C-97.2646 112.332 -97.4479 111.579 -97.3084 110.761C-97.1518 109.931 -96.6869 109.231 -95.9139 108.662C-95.158 108.105 -94.3688 107.881 -93.5463 107.991C-92.7066 108.088 -92.0337 108.48 -91.5278 109.167C-91.0344 109.837 -90.8661 110.588 -91.0228 111.418C-91.1749 112.219 -91.6289 112.898 -92.3847 113.454ZM-73.7744 99.7509C-74.5474 100.32 -75.3475 100.565 -76.1745 100.485C-76.9971 100.375 -77.655 99.9855 -78.1483 99.3156C-78.6543 98.6284 -78.8376 97.8759 -78.6981 97.0578C-78.5414 96.2272 -78.0766 95.5273 -77.3035 94.958C-76.5477 94.4015 -75.7585 94.178 -74.936 94.2877C-74.0962 94.3847 -73.4234 94.7767 -72.9174 95.4639C-72.4241 96.1338 -72.2558 96.8841 -72.4124 97.7148C-72.5645 98.5156 -73.0185 99.1943 -73.7744 99.7509ZM-55.1641 86.0474C-55.9371 86.6166 -56.7371 86.8613 -57.5642 86.7815C-58.3867 86.6719 -59.0447 86.2821 -59.538 85.6121C-60.044 84.925 -60.2272 84.1724 -60.0877 83.3544C-59.9311 82.5237 -59.4662 81.8238 -58.6932 81.2546C-57.9373 80.698 -57.1481 80.4745 -56.3256 80.5842C-55.4859 80.6812 -54.8131 81.0732 -54.3071 81.7604C-53.8138 82.4304 -53.6454 83.1807 -53.8021 84.0113C-53.9542 84.8122 -54.4082 85.4908 -55.1641 86.0474ZM-36.5537 72.3439C-37.3268 72.9132 -38.1268 73.1579 -38.9539 73.078C-39.7764 72.9684 -40.4343 72.5786 -40.9277 71.9086C-41.4336 71.2215 -41.6169 70.4689 -41.4774 69.6509C-41.3208 68.8202 -40.8559 68.1203 -40.0829 67.5511C-39.327 66.9945 -38.5378 66.7711 -37.7153 66.8807C-36.8756 66.9777 -36.2027 67.3698 -35.6967 68.0569C-35.2034 68.7269 -35.0351 69.4772 -35.1917 70.3078C-35.3439 71.1087 -35.7979 71.7874 -36.5537 72.3439ZM-17.9434 58.6405C-18.7164 59.2097 -19.5165 59.4544 -20.3435 59.3746C-21.1661 59.2649 -21.824 58.8751 -22.3173 58.2051C-22.8233 57.518 -23.0065 56.7654 -22.8671 55.9474C-22.7104 55.1168 -22.2456 54.4168 -21.4725 53.8476C-20.7167 53.291 -19.9275 53.0676 -19.1049 53.1772C-18.2652 53.2742 -17.5924 53.6663 -17.0864 54.3534C-16.5931 55.0234 -16.4247 55.7737 -16.5814 56.6044C-16.7335 57.4052 -17.1875 58.0839 -17.9434 58.6405ZM-156.976 220.624C-157.749 221.193 -158.549 221.438 -159.376 221.358C-160.198 221.248 -160.856 220.858 -161.349 220.188C-161.855 219.501 -162.039 218.749 -161.899 217.931C-161.743 217.1 -161.278 216.4 -160.505 215.831C-159.749 215.274 -158.96 215.051 -158.137 215.161C-157.297 215.258 -156.625 215.65 -156.119 216.337C-155.625 217.007 -155.457 217.757 -155.614 218.588C-155.766 219.388 -156.22 220.067 -156.976 220.624ZM-138.365 206.92C-139.138 207.489 -139.938 207.734 -140.765 207.654C-141.588 207.545 -142.246 207.155 -142.739 206.485C-143.245 205.798 -143.428 205.045 -143.289 204.227C-143.132 203.397 -142.667 202.697 -141.894 202.127C-141.138 201.571 -140.349 201.347 -139.527 201.457C-138.687 201.554 -138.014 201.946 -137.508 202.633C-137.015 203.303 -136.847 204.054 -137.003 204.884C-137.155 205.685 -137.609 206.364 -138.365 206.92ZM-119.755 193.217C-120.528 193.786 -121.328 194.031 -122.155 193.951C-122.978 193.841 -123.635 193.451 -124.129 192.781C-124.635 192.094 -124.818 191.342 -124.679 190.524C-124.522 189.693 -124.057 188.993 -123.284 188.424C-122.528 187.867 -121.739 187.644 -120.916 187.754C-120.077 187.851 -119.404 188.243 -118.898 188.93C-118.405 189.6 -118.236 190.35 -118.393 191.181C-118.545 191.982 -118.999 192.66 -119.755 193.217ZM-101.145 179.513C-101.918 180.083 -102.718 180.327 -103.545 180.247C-104.367 180.138 -105.025 179.748 -105.518 179.078C-106.024 178.391 -106.208 177.638 -106.068 176.82C-105.912 175.99 -105.447 175.29 -104.674 174.72C-103.918 174.164 -103.129 173.94 -102.306 174.05C-101.466 174.147 -100.794 174.539 -100.288 175.226C-99.7942 175.896 -99.6259 176.647 -99.7825 177.477C-99.9347 178.278 -100.389 178.957 -101.145 179.513ZM-82.5342 165.81C-83.3072 166.379 -84.1073 166.624 -84.9343 166.544C-85.7569 166.434 -86.4148 166.045 -86.9081 165.375C-87.4141 164.687 -87.5973 163.935 -87.4579 163.117C-87.3012 162.286 -86.8364 161.586 -86.0633 161.017C-85.3075 160.46 -84.5183 160.237 -83.6957 160.347C-82.856 160.444 -82.1832 160.836 -81.6772 161.523C-81.1839 162.193 -81.0155 162.943 -81.1722 163.774C-81.3243 164.575 -81.7783 165.253 -82.5342 165.81ZM-63.9238 152.106C-64.6969 152.676 -65.4969 152.92 -66.324 152.84C-67.1465 152.731 -67.8044 152.341 -68.2978 151.671C-68.8037 150.984 -68.987 150.231 -68.8475 149.413C-68.6909 148.583 -68.226 147.883 -67.453 147.314C-66.6971 146.757 -65.9079 146.533 -65.0854 146.643C-64.2457 146.74 -63.5728 147.132 -63.0669 147.819C-62.5735 148.489 -62.4052 149.24 -62.5619 150.07C-62.714 150.871 -63.168 151.55 -63.9238 152.106ZM-45.3135 138.403C-46.0865 138.972 -46.8866 139.217 -47.7137 139.137C-48.5362 139.027 -49.1941 138.638 -49.6874 137.968C-50.1934 137.28 -50.3767 136.528 -50.2372 135.71C-50.0805 134.879 -49.6157 134.179 -48.8427 133.61C-48.0868 133.053 -47.2976 132.83 -46.4751 132.94C-45.6353 133.037 -44.9625 133.429 -44.4565 134.116C-43.9632 134.786 -43.7949 135.536 -43.9515 136.367C-44.1036 137.168 -44.5576 137.846 -45.3135 138.403ZM-26.7032 124.699C-27.4762 125.269 -28.2763 125.513 -29.1033 125.434C-29.9258 125.324 -30.5838 124.934 -31.0771 124.264C-31.5831 123.577 -31.7663 122.824 -31.6268 122.006C-31.4702 121.176 -31.0054 120.476 -30.2323 119.907C-29.4765 119.35 -28.6873 119.127 -27.8647 119.236C-27.025 119.333 -26.3522 119.725 -25.8462 120.412C-25.3529 121.082 -25.1845 121.833 -25.3412 122.663C-25.4933 123.464 -25.9473 124.143 -26.7032 124.699ZM-8.09282 110.996C-8.86586 111.565 -9.66591 111.81 -10.493 111.73C-11.3155 111.62 -11.9734 111.231 -12.4668 110.561C-12.9727 109.873 -13.156 109.121 -13.0165 108.303C-12.8599 107.472 -12.395 106.772 -11.622 106.203C-10.8661 105.647 -10.0769 105.423 -9.25438 105.533C-8.41467 105.63 -7.74183 106.022 -7.23585 106.709C-6.74253 107.379 -6.5742 108.129 -6.73085 108.96C-6.88297 109.761 -7.33696 110.439 -8.09282 110.996ZM10.5175 97.2925C9.74448 97.8617 8.94443 98.1064 8.11736 98.0266C7.29483 97.9169 6.6369 97.5271 6.14358 96.8572C5.63761 96.17 5.45436 95.4174 5.59383 94.5994C5.75048 93.7688 6.21533 93.0688 6.98837 92.4996C7.74423 91.9431 8.53343 91.7196 9.35596 91.8292C10.1957 91.9262 10.8685 92.3183 11.3745 93.0054C11.8678 93.6754 12.0361 94.4257 11.8795 95.2564C11.7274 96.0572 11.2734 96.7359 10.5175 97.2925ZM-128.515 259.276C-129.288 259.845 -130.088 260.09 -130.915 260.01C-131.737 259.9 -132.395 259.51 -132.889 258.84C-133.395 258.153 -133.578 257.401 -133.438 256.583C-133.282 255.752 -132.817 255.052 -132.044 254.483C-131.288 253.926 -130.499 253.703 -129.676 253.813C-128.836 253.91 -128.164 254.302 -127.658 254.989C-127.164 255.659 -126.996 256.409 -127.153 257.24C-127.305 258.04 -127.759 258.719 -128.515 259.276ZM-109.904 245.572C-110.677 246.141 -111.477 246.386 -112.304 246.306C-113.127 246.197 -113.785 245.807 -114.278 245.137C-114.784 244.45 -114.967 243.697 -114.828 242.879C-114.671 242.049 -114.206 241.349 -113.433 240.779C-112.678 240.223 -111.888 239.999 -111.066 240.109C-110.226 240.206 -109.553 240.598 -109.047 241.285C-108.554 241.955 -108.386 242.706 -108.542 243.536C-108.694 244.337 -109.148 245.016 -109.904 245.572ZM-91.294 231.869C-92.067 232.438 -92.867 232.683 -93.6941 232.603C-94.5166 232.493 -95.1746 232.103 -95.6679 231.433C-96.1739 230.746 -96.3571 229.994 -96.2176 229.176C-96.061 228.345 -95.5961 227.645 -94.8231 227.076C-94.0672 226.519 -93.278 226.296 -92.4555 226.406C-91.6158 226.503 -90.943 226.895 -90.437 227.582C-89.9437 228.252 -89.7753 229.002 -89.932 229.833C-90.0841 230.634 -90.5381 231.312 -91.294 231.869ZM-72.6836 218.165C-73.4567 218.735 -74.2567 218.979 -75.0838 218.899C-75.9063 218.79 -76.5642 218.4 -77.0576 217.73C-77.5635 217.043 -77.7468 216.29 -77.6073 215.472C-77.4507 214.642 -76.9858 213.942 -76.2128 213.372C-75.4569 212.816 -74.6677 212.592 -73.8452 212.702C-73.0055 212.799 -72.3326 213.191 -71.8267 213.878C-71.3333 214.548 -71.165 215.299 -71.3216 216.129C-71.4738 216.93 -71.9278 217.609 -72.6836 218.165ZM-54.0733 204.462C-54.8463 205.031 -55.6464 205.276 -56.4734 205.196C-57.296 205.086 -57.9539 204.697 -58.4472 204.027C-58.9532 203.339 -59.1364 202.587 -58.997 201.769C-58.8403 200.938 -58.3755 200.238 -57.6024 199.669C-56.8466 199.112 -56.0574 198.889 -55.2348 198.999C-54.3951 199.096 -53.7223 199.488 -53.2163 200.175C-52.723 200.845 -52.5547 201.595 -52.7113 202.426C-52.8634 203.227 -53.3174 203.905 -54.0733 204.462ZM-35.4629 190.758C-36.236 191.328 -37.036 191.572 -37.8631 191.492C-38.6856 191.383 -39.3436 190.993 -39.8369 190.323C-40.3429 189.636 -40.5261 188.883 -40.3866 188.065C-40.23 187.235 -39.7651 186.535 -38.9921 185.966C-38.2362 185.409 -37.447 185.185 -36.6245 185.295C-35.7848 185.392 -35.1119 185.784 -34.606 186.471C-34.1127 187.141 -33.9443 187.892 -34.101 188.722C-34.2531 189.523 -34.7071 190.202 -35.4629 190.758ZM-16.8526 177.055C-17.6256 177.624 -18.4257 177.869 -19.2528 177.789C-20.0753 177.679 -20.7332 177.29 -21.2265 176.62C-21.7325 175.932 -21.9158 175.18 -21.7763 174.362C-21.6196 173.531 -21.1548 172.831 -20.3818 172.262C-19.6259 171.705 -18.8367 171.482 -18.0142 171.592C-17.1745 171.689 -16.5016 172.081 -15.9956 172.768C-15.5023 173.438 -15.334 174.188 -15.4906 175.019C-15.6428 175.82 -16.0967 176.498 -16.8526 177.055ZM1.75773 163.351C0.984691 163.921 0.18464 164.165 -0.642423 164.086C-1.46496 163.976 -2.12288 163.586 -2.61621 162.916C-3.12218 162.229 -3.30543 161.476 -3.16596 160.658C-3.0093 159.828 -2.54446 159.128 -1.77142 158.559C-1.01556 158.002 -0.22636 157.779 0.596173 157.888C1.43589 157.985 2.10873 158.377 2.6147 159.064C3.10802 159.734 3.27636 160.485 3.11971 161.315C2.96758 162.116 2.51359 162.795 1.75773 163.351ZM20.3681 149.648C19.595 150.217 18.795 150.462 17.9679 150.382C17.1454 150.272 16.4875 149.883 15.9941 149.213C15.4882 148.525 15.3049 147.773 15.4444 146.955C15.601 146.124 16.0659 145.424 16.8389 144.855C17.5948 144.299 18.384 144.075 19.2065 144.185C20.0462 144.282 20.7191 144.674 21.225 145.361C21.7184 146.031 21.8867 146.781 21.73 147.612C21.5779 148.413 21.1239 149.091 20.3681 149.648ZM38.9784 135.944C38.2054 136.514 37.4053 136.758 36.5783 136.679C35.7557 136.569 35.0978 136.179 34.6045 135.509C34.0985 134.822 33.9153 134.069 34.0547 133.251C34.2114 132.421 34.6762 131.721 35.4493 131.152C36.2051 130.595 36.9943 130.372 37.8169 130.481C38.6566 130.578 39.3294 130.97 39.8354 131.657C40.3287 132.327 40.497 133.078 40.3404 133.908C40.1883 134.709 39.7343 135.388 38.9784 135.944ZM-100.054 297.928C-100.827 298.497 -101.627 298.742 -102.454 298.662C-103.276 298.552 -103.934 298.162 -104.428 297.492C-104.934 296.805 -105.117 296.053 -104.977 295.235C-104.821 294.404 -104.356 293.704 -103.583 293.135C-102.827 292.578 -102.038 292.355 -101.215 292.465C-100.376 292.562 -99.7027 292.954 -99.1968 293.641C-98.7034 294.311 -98.5351 295.061 -98.6918 295.892C-98.8439 296.692 -99.2979 297.371 -100.054 297.928ZM-81.4434 284.224C-82.2164 284.794 -83.0165 285.038 -83.8436 284.958C-84.6661 284.849 -85.324 284.459 -85.8173 283.789C-86.3233 283.102 -86.5066 282.349 -86.3671 281.531C-86.2104 280.701 -85.7456 280.001 -84.9726 279.431C-84.2167 278.875 -83.4275 278.651 -82.605 278.761C-81.7652 278.858 -81.0924 279.25 -80.5864 279.937C-80.0931 280.607 -79.9248 281.358 -80.0814 282.188C-80.2335 282.989 -80.6875 283.668 -81.4434 284.224ZM-62.8331 270.521C-63.6061 271.09 -64.4062 271.335 -65.2332 271.255C-66.0558 271.145 -66.7137 270.755 -67.207 270.085C-67.713 269.398 -67.8962 268.646 -67.7568 267.828C-67.6001 266.997 -67.1353 266.297 -66.3622 265.728C-65.6064 265.171 -64.8172 264.948 -63.9946 265.058C-63.1549 265.155 -62.4821 265.547 -61.9761 266.234C-61.4828 266.904 -61.3144 267.654 -61.4711 268.485C-61.6232 269.286 -62.0772 269.964 -62.8331 270.521ZM-44.2227 256.817C-44.9958 257.387 -45.7958 257.631 -46.6229 257.551C-47.4454 257.442 -48.1033 257.052 -48.5967 256.382C-49.1026 255.695 -49.2859 254.942 -49.1464 254.124C-48.9898 253.294 -48.5249 252.594 -47.7519 252.024C-46.996 251.468 -46.2068 251.244 -45.3843 251.354C-44.5446 251.451 -43.8717 251.843 -43.3658 252.53C-42.8724 253.2 -42.7041 253.951 -42.8608 254.781C-43.0129 255.582 -43.4669 256.261 -44.2227 256.817ZM-25.6124 243.114C-26.3854 243.683 -27.1855 243.928 -28.0125 243.848C-28.8351 243.738 -29.493 243.349 -29.9863 242.679C-30.4923 241.991 -30.6755 241.239 -30.5361 240.421C-30.3794 239.59 -29.9146 238.89 -29.1415 238.321C-28.3857 237.764 -27.5965 237.541 -26.7739 237.651C-25.9342 237.748 -25.2614 238.14 -24.7554 238.827C-24.2621 239.497 -24.0938 240.247 -24.2504 241.078C-24.4025 241.879 -24.8565 242.557 -25.6124 243.114ZM-7.00205 229.41C-7.77509 229.98 -8.57514 230.224 -9.4022 230.144C-10.2247 230.035 -10.8827 229.645 -11.376 228.975C-11.882 228.288 -12.0652 227.535 -11.9257 226.717C-11.7691 225.887 -11.3042 225.187 -10.5312 224.618C-9.77534 224.061 -8.98614 223.838 -8.16361 223.947C-7.32389 224.044 -6.65105 224.436 -6.14508 225.123C-5.65176 225.793 -5.48342 226.544 -5.64007 227.374C-5.7922 228.175 -6.24619 228.854 -7.00205 229.41ZM11.6083 215.707C10.8352 216.276 10.0352 216.521 9.20813 216.441C8.3856 216.331 7.72767 215.942 7.23435 215.272C6.72838 214.584 6.54513 213.832 6.6846 213.014C6.84125 212.183 7.30609 211.483 8.07913 210.914C8.835 210.357 9.62419 210.134 10.4467 210.244C11.2864 210.341 11.9593 210.733 12.4653 211.42C12.9586 212.09 13.1269 212.84 12.9703 213.671C12.8181 214.472 12.3641 215.15 11.6083 215.707ZM30.2186 202.003C29.4456 202.573 28.6455 202.817 27.8185 202.738C26.9959 202.628 26.338 202.238 25.8447 201.568C25.3387 200.881 25.1555 200.128 25.2949 199.31C25.4516 198.48 25.9164 197.78 26.6895 197.211C27.4453 196.654 28.2345 196.431 29.0571 196.54C29.8968 196.637 30.5696 197.029 31.0756 197.716C31.5689 198.386 31.7372 199.137 31.5806 199.967C31.4285 200.768 30.9745 201.447 30.2186 202.003ZM48.829 188.3C48.0559 188.869 47.2559 189.114 46.4288 189.034C45.6063 188.924 44.9483 188.535 44.455 187.865C43.9491 187.178 43.7658 186.425 43.9053 185.607C44.0619 184.776 44.5268 184.076 45.2998 183.507C46.0557 182.951 46.8449 182.727 47.6674 182.837C48.5071 182.934 49.18 183.326 49.6859 184.013C50.1793 184.683 50.3476 185.433 50.1909 186.264C50.0388 187.065 49.5848 187.743 48.829 188.3ZM67.4393 174.596C66.6663 175.166 65.8662 175.41 65.0391 175.331C64.2166 175.221 63.5587 174.831 63.0654 174.161C62.5594 173.474 62.3761 172.721 62.5156 171.903C62.6723 171.073 63.1371 170.373 63.9102 169.804C64.666 169.247 65.4552 169.024 66.2777 169.133C67.1175 169.23 67.7903 169.622 68.2963 170.309C68.7896 170.979 68.9579 171.73 68.8013 172.56C68.6492 173.361 68.1952 174.04 67.4393 174.596ZM-71.5928 336.58C-72.3659 337.149 -73.1659 337.394 -73.993 337.314C-74.8155 337.204 -75.4735 336.814 -75.9668 336.144C-76.4728 335.457 -76.656 334.705 -76.5165 333.887C-76.3599 333.056 -75.895 332.356 -75.122 331.787C-74.3661 331.23 -73.5769 331.007 -72.7544 331.117C-71.9147 331.214 -71.2419 331.606 -70.7359 332.293C-70.2426 332.963 -70.0742 333.713 -70.2309 334.544C-70.383 335.345 -70.837 336.023 -71.5928 336.58ZM-52.9825 322.876C-53.7555 323.446 -54.5556 323.69 -55.3827 323.61C-56.2052 323.501 -56.8631 323.111 -57.3564 322.441C-57.8624 321.754 -58.0457 321.001 -57.9062 320.183C-57.7495 319.353 -57.2847 318.653 -56.5117 318.083C-55.7558 317.527 -54.9666 317.303 -54.1441 317.413C-53.3044 317.51 -52.6315 317.902 -52.1255 318.589C-51.6322 319.259 -51.4639 320.01 -51.6205 320.84C-51.7727 321.641 -52.2266 322.32 -52.9825 322.876ZM-34.3722 309.173C-35.1452 309.742 -35.9453 309.987 -36.7723 309.907C-37.5949 309.797 -38.2528 309.407 -38.7461 308.738C-39.2521 308.05 -39.4353 307.298 -39.2959 306.48C-39.1392 305.649 -38.6744 304.949 -37.9013 304.38C-37.1455 303.823 -36.3563 303.6 -35.5337 303.71C-34.694 303.807 -34.0212 304.199 -33.5152 304.886C-33.0219 305.556 -32.8535 306.306 -33.0102 307.137C-33.1623 307.938 -33.6163 308.616 -34.3722 309.173ZM-15.7618 295.469C-16.5349 296.039 -17.3349 296.283 -18.162 296.203C-18.9845 296.094 -19.6425 295.704 -20.1358 295.034C-20.6417 294.347 -20.825 293.594 -20.6855 292.776C-20.5289 291.946 -20.064 291.246 -19.291 290.676C-18.5351 290.12 -17.7459 289.896 -16.9234 290.006C-16.0837 290.103 -15.4108 290.495 -14.9049 291.182C-14.4115 291.852 -14.2432 292.603 -14.3999 293.433C-14.552 294.234 -15.006 294.913 -15.7618 295.469ZM2.8485 281.766C2.07546 282.335 1.27541 282.58 0.44835 282.5C-0.374183 282.39 -1.03211 282.001 -1.52543 281.331C-2.0314 280.643 -2.21465 279.891 -2.07518 279.073C-1.91853 278.242 -1.45369 277.542 -0.680646 276.973C0.0752155 276.416 0.864413 276.193 1.68695 276.303C2.52666 276.4 3.1995 276.792 3.70547 277.479C4.19879 278.149 4.36713 278.899 4.21048 279.73C4.05836 280.531 3.60437 281.209 2.8485 281.766ZM21.4588 268.062C20.6858 268.632 19.8858 268.876 19.0587 268.796C18.2362 268.687 17.5782 268.297 17.0849 267.627C16.5789 266.94 16.3957 266.187 16.5352 265.369C16.6918 264.539 17.1567 263.839 17.9297 263.27C18.6856 262.713 19.4748 262.49 20.2973 262.599C21.137 262.696 21.8098 263.088 22.3158 263.775C22.8091 264.445 22.9775 265.196 22.8208 266.026C22.6687 266.827 22.2147 267.506 21.4588 268.062ZM40.0692 254.359C39.2961 254.928 38.4961 255.173 37.669 255.093C36.8465 254.983 36.1886 254.594 35.6952 253.924C35.1893 253.236 35.006 252.484 35.1455 251.666C35.3021 250.835 35.767 250.135 36.54 249.566C37.2959 249.01 38.0851 248.786 38.9076 248.896C39.7473 248.993 40.4202 249.385 40.9261 250.072C41.4195 250.742 41.5878 251.492 41.4312 252.323C41.279 253.124 40.825 253.802 40.0692 254.359ZM58.6795 240.655C57.9065 241.225 57.1064 241.469 56.2794 241.39C55.4568 241.28 54.7989 240.89 54.3056 240.22C53.7996 239.533 53.6164 238.78 53.7558 237.962C53.9125 237.132 54.3773 236.432 55.1504 235.863C55.9062 235.306 56.6954 235.083 57.518 235.192C58.3577 235.289 59.0305 235.681 59.5365 236.368C60.0298 237.038 60.1981 237.789 60.0415 238.619C59.8894 239.42 59.4354 240.099 58.6795 240.655ZM77.2899 226.952C76.5168 227.521 75.7168 227.766 74.8897 227.686C74.0672 227.576 73.4092 227.187 72.9159 226.517C72.4099 225.83 72.2267 225.077 72.3662 224.259C72.5228 223.428 72.9877 222.728 73.7607 222.159C74.5166 221.603 75.3058 221.379 76.1283 221.489C76.968 221.586 77.6409 221.978 78.1468 222.665C78.6401 223.335 78.8085 224.085 78.6518 224.916C78.4997 225.717 78.0457 226.395 77.2899 226.952ZM95.9002 213.248C95.1272 213.818 94.3271 214.062 93.5 213.983C92.6775 213.873 92.0196 213.483 91.5263 212.813C91.0203 212.126 90.837 211.373 90.9765 210.555C91.1332 209.725 91.598 209.025 92.371 208.456C93.1269 207.899 93.9161 207.676 94.7386 207.785C95.5783 207.882 96.2512 208.274 96.7572 208.961C97.2505 209.631 97.4188 210.382 97.2622 211.212C97.11 212.013 96.6561 212.692 95.9002 213.248ZM-43.132 375.232C-43.905 375.801 -44.705 376.046 -45.5321 375.966C-46.3546 375.856 -47.0126 375.466 -47.5059 374.796C-48.0119 374.109 -48.1951 373.357 -48.0556 372.539C-47.899 371.708 -47.4341 371.008 -46.6611 370.439C-45.9052 369.882 -45.116 369.659 -44.2935 369.769C-43.4538 369.866 -42.781 370.258 -42.275 370.945C-41.7817 371.615 -41.6133 372.365 -41.77 373.196C-41.9221 373.997 -42.3761 374.675 -43.132 375.232ZM-24.5216 361.528C-25.2947 362.098 -26.0947 362.342 -26.9218 362.262C-27.7443 362.153 -28.4022 361.763 -28.8956 361.093C-29.4015 360.406 -29.5848 359.653 -29.4453 358.835C-29.2887 358.005 -28.8238 357.305 -28.0508 356.735C-27.2949 356.179 -26.5057 355.955 -25.6832 356.065C-24.8435 356.162 -24.1706 356.554 -23.6646 357.241C-23.1713 357.911 -23.003 358.662 -23.1596 359.492C-23.3118 360.293 -23.7658 360.972 -24.5216 361.528ZM-5.91128 347.825C-6.68432 348.394 -7.48437 348.639 -8.31143 348.559C-9.13397 348.449 -9.79189 348.059 -10.2852 347.39C-10.7912 346.702 -10.9744 345.95 -10.835 345.132C-10.6783 344.301 -10.2135 343.601 -9.44043 343.032C-8.68457 342.475 -7.89537 342.252 -7.07284 342.362C-6.23312 342.459 -5.56028 342.851 -5.05431 343.538C-4.56099 344.208 -4.39265 344.958 -4.5493 345.789C-4.70143 346.59 -5.15542 347.268 -5.91128 347.825ZM12.6991 334.121C11.926 334.691 11.126 334.935 10.2989 334.855C9.47637 334.746 8.81844 334.356 8.32512 333.686C7.81915 332.999 7.6359 332.246 7.77537 331.428C7.93202 330.598 8.39687 329.898 9.16991 329.329C9.92577 328.772 10.715 328.548 11.5375 328.658C12.3772 328.755 13.0501 329.147 13.556 329.834C14.0493 330.504 14.2177 331.255 14.061 332.085C13.9089 332.886 13.4549 333.565 12.6991 334.121ZM31.3094 320.418C30.5364 320.987 29.7363 321.232 28.9092 321.152C28.0867 321.042 27.4288 320.653 26.9355 319.983C26.4295 319.295 26.2462 318.543 26.3857 317.725C26.5424 316.894 27.0072 316.194 27.7802 315.625C28.5361 315.068 29.3253 314.845 30.1478 314.955C30.9876 315.052 31.6604 315.444 32.1664 316.131C32.6597 316.801 32.828 317.551 32.6714 318.382C32.5193 319.183 32.0653 319.861 31.3094 320.418ZM49.9197 306.714C49.1467 307.284 48.3466 307.528 47.5196 307.449C46.697 307.339 46.0391 306.949 45.5458 306.279C45.0398 305.592 44.8566 304.839 44.996 304.021C45.1527 303.191 45.6175 302.491 46.3906 301.922C47.1464 301.365 47.9356 301.142 48.7582 301.251C49.5979 301.348 50.2707 301.74 50.7767 302.427C51.27 303.097 51.4384 303.848 51.2817 304.678C51.1296 305.479 50.6756 306.158 49.9197 306.714ZM68.5301 293.011C67.757 293.58 66.957 293.825 66.1299 293.745C65.3074 293.635 64.6495 293.246 64.1561 292.576C63.6502 291.888 63.4669 291.136 63.6064 290.318C63.763 289.487 64.2279 288.787 65.0009 288.218C65.7568 287.662 66.546 287.438 67.3685 287.548C68.2082 287.645 68.8811 288.037 69.387 288.724C69.8804 289.394 70.0487 290.144 69.892 290.975C69.7399 291.776 69.2859 292.454 68.5301 293.011ZM87.1404 279.307C86.3674 279.877 85.5673 280.121 84.7403 280.042C83.9177 279.932 83.2598 279.542 82.7665 278.872C82.2605 278.185 82.0773 277.432 82.2167 276.614C82.3734 275.784 82.8382 275.084 83.6113 274.515C84.3671 273.958 85.1563 273.735 85.9789 273.844C86.8186 273.941 87.4914 274.333 87.9974 275.02C88.4907 275.69 88.659 276.441 88.5024 277.271C88.3503 278.072 87.8963 278.751 87.1404 279.307ZM105.751 265.604C104.978 266.173 104.178 266.418 103.351 266.338C102.528 266.228 101.87 265.839 101.377 265.169C100.871 264.482 100.688 263.729 100.827 262.911C100.984 262.08 101.449 261.38 102.222 260.811C102.977 260.255 103.767 260.031 104.589 260.141C105.429 260.238 106.102 260.63 106.608 261.317C107.101 261.987 107.269 262.737 107.113 263.568C106.961 264.369 106.507 265.047 105.751 265.604ZM124.361 251.901C123.588 252.47 122.788 252.714 121.961 252.635C121.138 252.525 120.48 252.135 119.987 251.465C119.481 250.778 119.298 250.025 119.437 249.207C119.594 248.377 120.059 247.677 120.832 247.108C121.588 246.551 122.377 246.328 123.2 246.437C124.039 246.534 124.712 246.926 125.218 247.613C125.711 248.283 125.88 249.034 125.723 249.864C125.571 250.665 125.117 251.344 124.361 251.901Z" fill="white"/>
</g>
<path d="M-6.94382 858.197C1.55794 881.852 10.7323 905.275 18.5615 929.161C23.7403 944.962 42.44 991.152 32.7394 1014.53C29.9807 1021.18 22.6796 1025.47 16.0109 1028.18C10.6606 1030.35 -35.3348 1035.29 -40.4007 1035.83C-56.7581 1037.58 -74.0978 1040.48 -90.6611 1040.48" stroke="#F58646" stroke-opacity="0.5" stroke-width="3" stroke-linecap="round"/>
<path d="M630.748 683.023C646.129 635.466 661.504 609.038 696.136 572.997C827.793 435.98 1015 1081.8 829.422 1040.96C761.844 1026.09 722.066 1002.53 677.72 949.414C610.019 868.323 598.242 783.534 630.748 683.023Z" stroke="#F58646" stroke-opacity="0.5" stroke-width="3"/>
<path d="M665.08 664.404C688.485 620.24 708.216 596.884 748.58 567.404C902.03 455.33 974.248 1123.85 798.58 1051.4C734.611 1025.02 699.528 994.914 665.08 934.904C612.489 843.289 615.614 757.743 665.08 664.404Z" stroke="#F58646" stroke-opacity="0.5" stroke-width="3"/>
<path d="M38.5 43C-0.970367 91.6039 -113.5 94 -113.5 94L-141 -51L70.5 -72.5C70.5 -72.5 68.0056 6.66679 38.5 43Z" fill="white" fill-opacity="0.3"/>
<path d="M564.866 34.5C524.206 18.0304 622.366 -62 622.366 -62L737.866 -44.5C737.866 -44.5 759.162 63.7759 712.366 88C684.968 102.183 673.198 143.561 643.866 134C611.594 123.48 643.866 66.5 564.866 34.5Z" fill="white" fill-opacity="0.3"/>
</g>
<defs>
<clipPath id="clip0_63_5">
<rect width="700" height="1216" fill="white"/>
</clipPath>
<clipPath id="clip1_63_5">
<rect x="400" width="450" height="370" rx="50" fill="white"/>
</clipPath>
<clipPath id="clip2_63_5">
<rect x="-150" width="450" height="370" rx="50" fill="white"/>
</clipPath>
</defs>
</svg>
