<svg width="1440" height="780" viewBox="0 0 1440 780" fill="none" xmlns="http://www.w3.org/2000/svg">
<g clip-path="url(#clip0_97_58)">
<rect width="1440" height="780" fill="white"/>
<path d="M1600 376.331V-63C1600 -73.4934 1591.49 -82 1581 -82H-200.489C-211.18 -82 -219.766 -73.183 -219.482 -62.496L-207.833 376.448C-207.631 384.06 -202.904 390.816 -195.822 393.614L644.524 725.676C692.925 744.801 746.875 744.307 794.917 724.299L1588.3 393.871C1595.39 390.921 1600 384.003 1600 376.331Z" fill="#ECF0FF"/>
<g clip-path="url(#clip1_97_58)">
<path d="M0 -128.75L1440 -128.75V387.75L0 387.75V-128.75Z" fill="#ECF0FF" fill-opacity="0.5"/>
<path d="M959 278.779C660.766 278.779 419 105.345 419 -108.596C419 -322.538 660.766 -495.971 959 -495.971C1257.23 -495.971 1499 -322.538 1499 -108.596C1499 105.345 1257.23 278.779 959 278.779Z" fill="url(#paint0_linear_97_58)" fill-opacity="0.2"/>
<path d="M482 278.779C183.766 278.779 -58 105.345 -58 -108.596C-58 -322.538 183.766 -495.971 482 -495.971C780.234 -495.971 1022 -322.538 1022 -108.596C1022 105.345 780.234 278.779 482 278.779Z" fill="url(#paint1_linear_97_58)" fill-opacity="0.2"/>
<path d="M720.5 238.75C422.266 238.75 180.5 65.3163 180.5 -148.625C180.5 -362.566 422.266 -536 720.5 -536C1018.73 -536 1260.5 -362.566 1260.5 -148.625C1260.5 65.3163 1018.73 238.75 720.5 238.75Z" fill="url(#paint2_linear_97_58)" fill-opacity="0.2"/>
</g>
<path d="M1415.73 363.285C1426.93 355.685 1440.56 356.399 1445.19 364.829L1475.63 420.169C1479.72 427.609 1475.28 438.458 1465.4 445.166L1391.89 495.058C1380.69 502.658 1367.06 501.944 1362.42 493.514L1331.99 438.174C1327.89 430.734 1332.34 419.885 1342.22 413.178L1415.73 363.285Z" fill="#CFD6EE"/>
<path d="M1361.73 344.285C1372.93 336.685 1386.56 337.399 1391.19 345.829L1421.63 401.169C1425.72 408.609 1421.28 419.458 1411.4 426.166L1337.89 476.058C1326.69 483.658 1313.06 482.944 1308.42 474.514L1277.99 419.174C1273.89 411.734 1278.34 400.885 1288.22 394.178L1361.73 344.285Z" fill="white"/>
<path d="M4.56614 188.895C4.21655 188.25 4.14233 187.589 4.3435 186.911C4.56056 186.262 4.99142 185.763 5.63606 185.413C6.2807 185.064 6.91937 184.983 7.55206 185.171C8.22995 185.372 8.74369 185.795 9.09328 186.439C9.42698 187.055 9.4853 187.687 9.26824 188.335C9.09638 188.997 8.68812 189.503 8.04348 189.853C7.39884 190.202 6.73757 190.276 6.05969 190.075C5.39769 189.903 4.89984 189.51 4.56614 188.895ZM20.8136 218.855C20.464 218.21 20.3898 217.549 20.591 216.871C20.8081 216.222 21.2389 215.723 21.8836 215.373C22.5282 215.024 23.1669 214.943 23.7996 215.131C24.4774 215.332 24.9912 215.755 25.3408 216.399C25.6745 217.015 25.7328 217.647 25.5157 218.295C25.3439 218.957 24.9356 219.463 24.291 219.813C23.6463 220.162 22.9851 220.237 22.3072 220.035C21.6452 219.863 21.1473 219.47 20.8136 218.855ZM37.0611 248.815C36.7116 248.17 36.6373 247.509 36.8385 246.831C37.0556 246.182 37.4864 245.683 38.1311 245.334C38.7757 244.984 39.4144 244.903 40.0471 245.091C40.725 245.292 41.2387 245.715 41.5883 246.359C41.922 246.975 41.9803 247.607 41.7632 248.255C41.5914 248.917 41.1831 249.423 40.5385 249.773C39.8938 250.122 39.2326 250.197 38.5547 249.995C37.8927 249.824 37.3948 249.43 37.0611 248.815ZM53.3086 278.775C52.9591 278.13 52.8848 277.469 53.086 276.791C53.3031 276.142 53.7339 275.643 54.3786 275.294C55.0232 274.944 55.6619 274.863 56.2946 275.051C56.9725 275.252 57.4862 275.675 57.8358 276.32C58.1695 276.935 58.2278 277.567 58.0107 278.215C57.8389 278.877 57.4306 279.383 56.786 279.733C56.1413 280.082 55.4801 280.157 54.8022 279.955C54.1402 279.784 53.6423 279.39 53.3086 278.775ZM69.5561 308.735C69.2066 308.09 69.1323 307.429 69.3335 306.751C69.5506 306.102 69.9814 305.603 70.6261 305.254C71.2707 304.904 71.9094 304.823 72.5421 305.011C73.22 305.212 73.7337 305.635 74.0833 306.28C74.417 306.895 74.4753 307.527 74.2583 308.175C74.0864 308.837 73.6781 309.343 73.0335 309.693C72.3888 310.042 71.7276 310.117 71.0497 309.915C70.3877 309.744 69.8898 309.35 69.5561 308.735ZM85.8036 338.695C85.4541 338.05 85.3798 337.389 85.581 336.711C85.7981 336.062 86.2289 335.563 86.8736 335.214C87.5182 334.864 88.1569 334.783 88.7896 334.971C89.4675 335.172 89.9812 335.595 90.3308 336.24C90.6645 336.855 90.7228 337.487 90.5058 338.135C90.3339 338.797 89.9256 339.303 89.281 339.653C88.6363 340.002 87.9751 340.077 87.2972 339.875C86.6352 339.704 86.1374 339.31 85.8036 338.695ZM102.051 368.655C101.702 368.01 101.627 367.349 101.829 366.671C102.046 366.022 102.476 365.523 103.121 365.174C103.766 364.824 104.404 364.743 105.037 364.931C105.715 365.132 106.229 365.555 106.578 366.2C106.912 366.815 106.97 367.447 106.753 368.095C106.581 368.757 106.173 369.263 105.528 369.613C104.884 369.962 104.223 370.037 103.545 369.836C102.883 369.664 102.385 369.27 102.051 368.655ZM118.299 398.615C117.949 397.97 117.875 397.309 118.076 396.631C118.293 395.982 118.724 395.483 119.369 395.134C120.013 394.784 120.652 394.703 121.285 394.891C121.962 395.092 122.476 395.515 122.826 396.16C123.159 396.775 123.218 397.407 123.001 398.056C122.829 398.718 122.421 399.223 121.776 399.573C121.131 399.923 120.47 399.997 119.792 399.796C119.13 399.624 118.632 399.23 118.299 398.615ZM134.546 428.575C134.197 427.93 134.122 427.269 134.324 426.591C134.541 425.942 134.971 425.443 135.616 425.094C136.261 424.744 136.899 424.663 137.532 424.851C138.21 425.052 138.724 425.475 139.073 426.12C139.407 426.735 139.465 427.367 139.248 428.016C139.076 428.678 138.668 429.183 138.023 429.533C137.379 429.883 136.718 429.957 136.04 429.756C135.378 429.584 134.88 429.19 134.546 428.575ZM150.794 458.535C150.444 457.89 150.37 457.229 150.571 456.551C150.788 455.902 151.219 455.403 151.864 455.054C152.508 454.704 153.147 454.623 153.78 454.811C154.457 455.012 154.971 455.435 155.321 456.08C155.654 456.695 155.713 457.327 155.496 457.976C155.324 458.638 154.916 459.143 154.271 459.493C153.626 459.843 152.965 459.917 152.287 459.716C151.625 459.544 151.127 459.15 150.794 458.535ZM167.041 488.495C166.692 487.85 166.617 487.189 166.819 486.511C167.036 485.862 167.466 485.363 168.111 485.014C168.756 484.664 169.394 484.583 170.027 484.771C170.705 484.972 171.219 485.395 171.568 486.04C171.902 486.655 171.96 487.287 171.743 487.936C171.571 488.598 171.163 489.103 170.518 489.453C169.874 489.803 169.213 489.877 168.535 489.676C167.873 489.504 167.375 489.11 167.041 488.495ZM-21.8056 203.196C-22.1551 202.551 -22.2294 201.89 -22.0282 201.212C-21.8111 200.564 -21.3803 200.065 -20.7356 199.715C-20.091 199.365 -19.4523 199.284 -18.8196 199.472C-18.1417 199.673 -17.628 200.096 -17.2784 200.741C-16.9447 201.356 -16.8864 201.988 -17.1035 202.637C-17.2753 203.299 -17.6836 203.805 -18.3282 204.154C-18.9729 204.504 -19.6341 204.578 -20.312 204.377C-20.974 204.205 -21.4719 203.811 -21.8056 203.196ZM-5.55805 233.156C-5.90765 232.511 -5.98186 231.85 -5.78069 231.172C-5.56363 230.524 -5.13278 230.025 -4.48814 229.675C-3.8435 229.325 -3.20483 229.245 -2.57213 229.432C-1.89425 229.633 -1.38051 230.056 -1.03091 230.701C-0.697211 231.316 -0.63889 231.948 -0.85595 232.597C-1.02782 233.259 -1.43607 233.765 -2.08071 234.114C-2.72535 234.464 -3.38662 234.538 -4.06451 234.337C-4.7265 234.165 -5.22435 233.771 -5.55805 233.156ZM10.6894 263.116C10.3399 262.471 10.2656 261.81 10.4668 261.132C10.6839 260.484 11.1147 259.985 11.7594 259.635C12.404 259.285 13.0427 259.205 13.6754 259.392C14.3533 259.593 14.867 260.016 15.2166 260.661C15.5503 261.276 15.6086 261.908 15.3916 262.557C15.2197 263.219 14.8114 263.725 14.1668 264.074C13.5221 264.424 12.8609 264.498 12.183 264.297C11.521 264.125 11.0231 263.731 10.6894 263.116ZM26.9369 293.076C26.5874 292.431 26.5131 291.77 26.7143 291.092C26.9314 290.444 27.3622 289.945 28.0069 289.595C28.6515 289.245 29.2902 289.165 29.9229 289.352C30.6008 289.553 31.1145 289.976 31.4641 290.621C31.7978 291.236 31.8561 291.868 31.6391 292.517C31.4672 293.179 31.0589 293.685 30.4143 294.034C29.7696 294.384 29.1084 294.458 28.4305 294.257C27.7685 294.085 27.2707 293.691 26.9369 293.076ZM43.1845 323.036C42.8349 322.392 42.7606 321.73 42.9618 321.052C43.1789 320.404 43.6097 319.905 44.2544 319.555C44.899 319.206 45.5377 319.125 46.1704 319.312C46.8483 319.514 47.362 319.936 47.7116 320.581C48.0453 321.196 48.1036 321.828 47.8866 322.477C47.7147 323.139 47.3064 323.645 46.6618 323.994C46.0172 324.344 45.3559 324.418 44.678 324.217C44.016 324.045 43.5182 323.652 43.1845 323.036ZM59.432 352.996C59.0824 352.352 59.0081 351.69 59.2093 351.012C59.4264 350.364 59.8572 349.865 60.5019 349.515C61.1465 349.166 61.7852 349.085 62.4179 349.272C63.0958 349.474 63.6095 349.896 63.9591 350.541C64.2928 351.156 64.3511 351.788 64.1341 352.437C63.9622 353.099 63.5539 353.605 62.9093 353.954C62.2647 354.304 61.6034 354.378 60.9255 354.177C60.2635 354.005 59.7657 353.612 59.432 352.996ZM75.6795 382.956C75.3299 382.312 75.2557 381.65 75.4568 380.972C75.6739 380.324 76.1047 379.825 76.7494 379.475C77.394 379.126 78.0327 379.045 78.6654 379.232C79.3433 379.434 79.857 379.856 80.2066 380.501C80.5403 381.116 80.5986 381.748 80.3816 382.397C80.2097 383.059 79.8014 383.565 79.1568 383.914C78.5122 384.264 77.8509 384.338 77.173 384.137C76.511 383.965 76.0132 383.572 75.6795 382.956ZM91.927 412.916C91.5774 412.272 91.5032 411.61 91.7043 410.932C91.9214 410.284 92.3522 409.785 92.9969 409.435C93.6415 409.086 94.2802 409.005 94.9129 409.192C95.5908 409.394 96.1045 409.817 96.4541 410.461C96.7878 411.077 96.8461 411.708 96.6291 412.357C96.4572 413.019 96.0489 413.525 95.4043 413.874C94.7597 414.224 94.0984 414.298 93.4205 414.097C92.7585 413.925 92.2607 413.532 91.927 412.916ZM108.174 442.876C107.825 442.232 107.751 441.57 107.952 440.893C108.169 440.244 108.6 439.745 109.244 439.395C109.889 439.046 110.528 438.965 111.16 439.152C111.838 439.354 112.352 439.777 112.702 440.421C113.035 441.037 113.094 441.669 112.877 442.317C112.705 442.979 112.296 443.485 111.652 443.834C111.007 444.184 110.346 444.258 109.668 444.057C109.006 443.885 108.508 443.492 108.174 442.876ZM124.422 472.836C124.072 472.192 123.998 471.53 124.199 470.853C124.416 470.204 124.847 469.705 125.492 469.355C126.137 469.006 126.775 468.925 127.408 469.113C128.086 469.314 128.6 469.737 128.949 470.381C129.283 470.997 129.341 471.629 129.124 472.277C128.952 472.939 128.544 473.445 127.899 473.795C127.255 474.144 126.593 474.218 125.916 474.017C125.254 473.845 124.756 473.452 124.422 472.836ZM140.669 502.796C140.32 502.152 140.246 501.49 140.447 500.813C140.664 500.164 141.095 499.665 141.739 499.315C142.384 498.966 143.023 498.885 143.655 499.073C144.333 499.274 144.847 499.697 145.197 500.341C145.53 500.957 145.589 501.589 145.372 502.237C145.2 502.899 144.791 503.405 144.147 503.755C143.502 504.104 142.841 504.178 142.163 503.977C141.501 503.805 141.003 503.412 140.669 502.796ZM-48.1773 217.498C-48.5268 216.853 -48.6011 216.192 -48.3999 215.514C-48.1828 214.865 -47.752 214.366 -47.1073 214.017C-46.4627 213.667 -45.824 213.586 -45.1913 213.774C-44.5134 213.975 -43.9997 214.398 -43.6501 215.042C-43.3164 215.658 -43.2581 216.29 -43.4751 216.938C-43.647 217.6 -44.0553 218.106 -44.6999 218.456C-45.3446 218.805 -46.0058 218.88 -46.6837 218.678C-47.3457 218.507 -47.8435 218.113 -48.1773 217.498ZM-31.9297 247.458C-32.2793 246.813 -32.3536 246.152 -32.1524 245.474C-31.9353 244.825 -31.5045 244.326 -30.8598 243.977C-30.2152 243.627 -29.5765 243.546 -28.9438 243.734C-28.2659 243.935 -27.7522 244.358 -27.4026 245.003C-27.0689 245.618 -27.0106 246.25 -27.2276 246.898C-27.3995 247.56 -27.8078 248.066 -28.4524 248.416C-29.0971 248.765 -29.7583 248.84 -30.4362 248.638C-31.0982 248.467 -31.596 248.073 -31.9297 247.458ZM-15.6822 277.418C-16.0318 276.773 -16.1061 276.112 -15.9049 275.434C-15.6878 274.785 -15.257 274.286 -14.6123 273.937C-13.9677 273.587 -13.329 273.506 -12.6963 273.694C-12.0184 273.895 -11.5047 274.318 -11.1551 274.963C-10.8214 275.578 -10.7631 276.21 -10.9801 276.858C-11.152 277.52 -11.5603 278.026 -12.2049 278.376C-12.8495 278.725 -13.5108 278.8 -14.1887 278.598C-14.8507 278.427 -15.3485 278.033 -15.6822 277.418ZM0.565254 307.378C0.215661 306.733 0.141449 306.072 0.342619 305.394C0.559679 304.745 0.99053 304.246 1.63517 303.897C2.27981 303.547 2.91848 303.466 3.55118 303.654C4.22906 303.855 4.7428 304.278 5.0924 304.923C5.4261 305.538 5.48442 306.17 5.26736 306.818C5.09549 307.48 4.68724 307.986 4.04259 308.336C3.39795 308.685 2.73669 308.76 2.0588 308.558C1.39681 308.387 0.898956 307.993 0.565254 307.378ZM16.8128 337.338C16.4632 336.693 16.389 336.032 16.5901 335.354C16.8072 334.705 17.238 334.206 17.8827 333.857C18.5273 333.507 19.166 333.426 19.7987 333.614C20.4766 333.815 20.9903 334.238 21.3399 334.883C21.6736 335.498 21.7319 336.13 21.5149 336.778C21.343 337.44 20.9347 337.946 20.2901 338.296C19.6455 338.645 18.9842 338.72 18.3063 338.519C17.6443 338.347 17.1465 337.953 16.8128 337.338ZM33.0603 367.298C32.7107 366.653 32.6365 365.992 32.8376 365.314C33.0547 364.665 33.4855 364.166 34.1302 363.817C34.7748 363.467 35.4135 363.386 36.0462 363.574C36.7241 363.775 37.2378 364.198 37.5874 364.843C37.9211 365.458 37.9794 366.09 37.7624 366.739C37.5905 367.401 37.1822 367.906 36.5376 368.256C35.893 368.605 35.2317 368.68 34.5538 368.479C33.8918 368.307 33.394 367.913 33.0603 367.298ZM49.3078 397.258C48.9582 396.613 48.884 395.952 49.0851 395.274C49.3022 394.625 49.733 394.126 50.3777 393.777C51.0223 393.427 51.661 393.346 52.2937 393.534C52.9716 393.735 53.4853 394.158 53.8349 394.803C54.1686 395.418 54.2269 396.05 54.0099 396.699C53.838 397.361 53.4297 397.866 52.7851 398.216C52.1405 398.566 51.4792 398.64 50.8013 398.439C50.1393 398.267 49.6415 397.873 49.3078 397.258ZM65.5553 427.218C65.2057 426.573 65.1315 425.912 65.3326 425.234C65.5497 424.585 65.9805 424.086 66.6252 423.737C67.2698 423.387 67.9085 423.306 68.5412 423.494C69.2191 423.695 69.7328 424.118 70.0824 424.763C70.4161 425.378 70.4744 426.01 70.2574 426.659C70.0855 427.321 69.6772 427.826 69.0326 428.176C68.388 428.526 67.7267 428.6 67.0488 428.399C66.3868 428.227 65.889 427.833 65.5553 427.218ZM81.8028 457.178C81.4532 456.533 81.379 455.872 81.5801 455.194C81.7972 454.545 82.228 454.046 82.8727 453.697C83.5173 453.347 84.156 453.266 84.7887 453.454C85.4666 453.655 85.9803 454.078 86.3299 454.723C86.6636 455.338 86.7219 455.97 86.5049 456.619C86.333 457.281 85.9247 457.786 85.2801 458.136C84.6355 458.486 83.9742 458.56 83.2963 458.359C82.6343 458.187 82.1365 457.793 81.8028 457.178ZM98.0503 487.138C97.7007 486.493 97.6265 485.832 97.8276 485.154C98.0447 484.505 98.4755 484.006 99.1202 483.657C99.7648 483.307 100.403 483.226 101.036 483.414C101.714 483.615 102.228 484.038 102.577 484.683C102.911 485.298 102.969 485.93 102.752 486.579C102.581 487.241 102.172 487.746 101.528 488.096C100.883 488.446 100.222 488.52 99.5438 488.319C98.8818 488.147 98.384 487.753 98.0503 487.138ZM114.298 517.098C113.948 516.453 113.874 515.792 114.075 515.114C114.292 514.466 114.723 513.966 115.368 513.617C116.012 513.267 116.651 513.186 117.284 513.374C117.962 513.575 118.475 513.998 118.825 514.643C119.159 515.258 119.217 515.89 119 516.539C118.828 517.201 118.42 517.706 117.775 518.056C117.13 518.406 116.469 518.48 115.791 518.279C115.129 518.107 114.631 517.713 114.298 517.098ZM-74.5489 231.799C-74.8985 231.154 -74.9728 230.493 -74.7716 229.815C-74.5545 229.167 -74.1237 228.668 -73.479 228.318C-72.8344 227.968 -72.1957 227.888 -71.563 228.075C-70.8851 228.276 -70.3714 228.699 -70.0218 229.344C-69.6881 229.959 -69.6298 230.591 -69.8468 231.24C-70.0187 231.902 -70.427 232.408 -71.0716 232.757C-71.7162 233.107 -72.3775 233.181 -73.0554 232.98C-73.7174 232.808 -74.2152 232.414 -74.5489 231.799ZM-58.3014 261.759C-58.651 261.114 -58.7252 260.453 -58.5241 259.775C-58.307 259.127 -57.8762 258.628 -57.2315 258.278C-56.5869 257.928 -55.9482 257.848 -55.3155 258.035C-54.6376 258.236 -54.1239 258.659 -53.7743 259.304C-53.4406 259.919 -53.3823 260.551 -53.5993 261.2C-53.7712 261.862 -54.1795 262.368 -54.8241 262.717C-55.4687 263.067 -56.13 263.141 -56.8079 262.94C-57.4699 262.768 -57.9677 262.374 -58.3014 261.759ZM-42.0539 291.719C-42.4035 291.075 -42.4777 290.413 -42.2766 289.735C-42.0595 289.087 -41.6287 288.588 -40.984 288.238C-40.3394 287.889 -39.7007 287.808 -39.068 287.995C-38.3901 288.197 -37.8764 288.619 -37.5268 289.264C-37.1931 289.879 -37.1348 290.511 -37.3518 291.16C-37.5237 291.822 -37.932 292.328 -38.5766 292.677C-39.2212 293.027 -39.8825 293.101 -40.5604 292.9C-41.2224 292.728 -41.7202 292.334 -42.0539 291.719ZM-25.8064 321.679C-26.156 321.035 -26.2302 320.373 -26.0291 319.695C-25.812 319.047 -25.3812 318.548 -24.7365 318.198C-24.0919 317.849 -23.4532 317.768 -22.8205 317.955C-22.1426 318.157 -21.6289 318.579 -21.2793 319.224C-20.9456 319.839 -20.8873 320.471 -21.1043 321.12C-21.2762 321.782 -21.6845 322.288 -22.3291 322.637C-22.9737 322.987 -23.635 323.061 -24.3129 322.86C-24.9749 322.688 -25.4727 322.295 -25.8064 321.679ZM-9.55894 351.639C-9.90853 350.995 -9.98274 350.333 -9.78157 349.655C-9.56451 349.007 -9.13366 348.508 -8.48902 348.158C-7.84438 347.809 -7.20571 347.728 -6.57302 347.915C-5.89513 348.117 -5.38139 348.539 -5.0318 349.184C-4.6981 349.799 -4.63977 350.431 -4.85684 351.08C-5.0287 351.742 -5.43696 352.248 -6.0816 352.597C-6.72624 352.947 -7.3875 353.021 -8.06539 352.82C-8.72739 352.648 -9.22524 352.255 -9.55894 351.639ZM6.68856 381.599C6.33897 380.955 6.26476 380.293 6.46593 379.615C6.68299 378.967 7.11384 378.468 7.75848 378.118C8.40312 377.769 9.04179 377.688 9.67448 377.875C10.3524 378.077 10.8661 378.5 11.2157 379.144C11.5494 379.759 11.6077 380.391 11.3907 381.04C11.2188 381.702 10.8105 382.208 10.1659 382.557C9.52126 382.907 8.86 382.981 8.18211 382.78C7.52011 382.608 7.02226 382.215 6.68856 381.599ZM22.9361 411.559C22.5865 410.915 22.5123 410.253 22.7134 409.575C22.9305 408.927 23.3613 408.428 24.006 408.078C24.6506 407.729 25.2893 407.648 25.922 407.835C26.5999 408.037 27.1136 408.46 27.4632 409.104C27.7969 409.72 27.8552 410.351 27.6382 411C27.4663 411.662 27.058 412.168 26.4134 412.517C25.7688 412.867 25.1075 412.941 24.4296 412.74C23.7676 412.568 23.2698 412.175 22.9361 411.559ZM39.1836 441.519C38.834 440.875 38.7598 440.213 38.9609 439.536C39.178 438.887 39.6088 438.388 40.2535 438.038C40.8981 437.689 41.5368 437.608 42.1695 437.796C42.8474 437.997 43.3611 438.42 43.7107 439.064C44.0444 439.68 44.1027 440.312 43.8857 440.96C43.7138 441.622 43.3055 442.128 42.6609 442.477C42.0163 442.827 41.355 442.901 40.6771 442.7C40.0151 442.528 39.5173 442.135 39.1836 441.519ZM55.4311 471.479C55.0815 470.835 55.0073 470.173 55.2084 469.496C55.4255 468.847 55.8563 468.348 56.501 467.998C57.1456 467.649 57.7843 467.568 58.417 467.756C59.0949 467.957 59.6086 468.38 59.9582 469.024C60.2919 469.64 60.3502 470.272 60.1332 470.92C59.9613 471.582 59.5531 472.088 58.9084 472.438C58.2638 472.787 57.6025 472.861 56.9246 472.66C56.2626 472.488 55.7648 472.095 55.4311 471.479ZM71.6786 501.439C71.329 500.795 71.2548 500.133 71.4559 499.456C71.673 498.807 72.1038 498.308 72.7485 497.958C73.3931 497.609 74.0318 497.528 74.6645 497.716C75.3424 497.917 75.8561 498.34 76.2057 498.984C76.5394 499.6 76.5977 500.232 76.3807 500.88C76.2088 501.542 75.8006 502.048 75.1559 502.398C74.5113 502.747 73.85 502.821 73.1721 502.62C72.5101 502.448 72.0123 502.055 71.6786 501.439ZM87.9261 531.399C87.5765 530.755 87.5023 530.094 87.7034 529.416C87.9205 528.767 88.3513 528.268 88.996 527.918C89.6406 527.569 90.2793 527.488 90.912 527.676C91.5899 527.877 92.1036 528.3 92.4532 528.944C92.7869 529.56 92.8452 530.192 92.6282 530.84C92.4563 531.502 92.0481 532.008 91.4034 532.358C90.7588 532.707 90.0975 532.781 89.4196 532.58C88.7576 532.408 88.2598 532.015 87.9261 531.399ZM-100.921 246.101C-101.27 245.456 -101.344 244.795 -101.143 244.117C-100.926 243.468 -100.495 242.969 -99.8507 242.62C-99.2061 242.27 -98.5674 242.189 -97.9347 242.377C-97.2568 242.578 -96.7431 243.001 -96.3935 243.646C-96.0598 244.261 -96.0015 244.893 -96.2185 245.541C-96.3904 246.203 -96.7987 246.709 -97.4433 247.059C-98.0879 247.408 -98.7492 247.483 -99.4271 247.281C-100.089 247.11 -100.587 246.716 -100.921 246.101ZM-84.6731 276.061C-85.0227 275.416 -85.0969 274.755 -84.8958 274.077C-84.6787 273.428 -84.2479 272.929 -83.6032 272.58C-82.9586 272.23 -82.3199 272.149 -81.6872 272.337C-81.0093 272.538 -80.4956 272.961 -80.146 273.606C-79.8123 274.221 -79.754 274.853 -79.971 275.501C-80.1429 276.163 -80.5512 276.669 -81.1958 277.019C-81.8404 277.368 -82.5017 277.443 -83.1796 277.241C-83.8416 277.07 -84.3394 276.676 -84.6731 276.061ZM-68.4256 306.021C-68.7752 305.376 -68.8494 304.715 -68.6483 304.037C-68.4312 303.388 -68.0004 302.889 -67.3557 302.54C-66.7111 302.19 -66.0724 302.109 -65.4397 302.297C-64.7618 302.498 -64.2481 302.921 -63.8985 303.566C-63.5648 304.181 -63.5065 304.813 -63.7235 305.461C-63.8954 306.123 -64.3037 306.629 -64.9483 306.979C-65.5929 307.328 -66.2542 307.403 -66.9321 307.201C-67.5941 307.03 -68.0919 306.636 -68.4256 306.021ZM-52.1781 335.981C-52.5277 335.336 -52.6019 334.675 -52.4008 333.997C-52.1837 333.348 -51.7529 332.849 -51.1082 332.5C-50.4636 332.15 -49.8249 332.069 -49.1922 332.257C-48.5143 332.458 -48.0006 332.881 -47.651 333.526C-47.3173 334.141 -47.259 334.773 -47.476 335.422C-47.6479 336.084 -48.0562 336.589 -48.7008 336.939C-49.3454 337.288 -50.0067 337.363 -50.6846 337.162C-51.3466 336.99 -51.8444 336.596 -52.1781 335.981ZM-35.9306 365.941C-36.2802 365.296 -36.3544 364.635 -36.1533 363.957C-35.9362 363.308 -35.5054 362.809 -34.8607 362.46C-34.2161 362.11 -33.5774 362.029 -32.9447 362.217C-32.2668 362.418 -31.7531 362.841 -31.4035 363.486C-31.0698 364.101 -31.0115 364.733 -31.2285 365.382C-31.4004 366.044 -31.8087 366.549 -32.4533 366.899C-33.0979 367.249 -33.7592 367.323 -34.4371 367.122C-35.0991 366.95 -35.5969 366.556 -35.9306 365.941ZM-19.6831 395.901C-20.0327 395.256 -20.1069 394.595 -19.9058 393.917C-19.6887 393.268 -19.2579 392.769 -18.6132 392.42C-17.9686 392.07 -17.3299 391.989 -16.6972 392.177C-16.0193 392.378 -15.5056 392.801 -15.156 393.446C-14.8223 394.061 -14.764 394.693 -14.981 395.342C-15.1529 396.004 -15.5612 396.509 -16.2058 396.859C-16.8504 397.209 -17.5117 397.283 -18.1896 397.082C-18.8516 396.91 -19.3494 396.516 -19.6831 395.901ZM-3.43563 425.861C-3.78522 425.216 -3.85944 424.555 -3.65827 423.877C-3.44121 423.228 -3.01036 422.729 -2.36571 422.38C-1.72107 422.03 -1.0824 421.949 -0.44971 422.137C0.228177 422.338 0.741917 422.761 1.09151 423.406C1.42521 424.021 1.48353 424.653 1.26647 425.302C1.09461 425.964 0.686351 426.469 0.0417095 426.819C-0.602932 427.169 -1.2642 427.243 -1.94208 427.042C-2.60408 426.87 -3.10193 426.476 -3.43563 425.861ZM12.8119 455.821C12.4623 455.176 12.3881 454.515 12.5892 453.837C12.8063 453.188 13.2371 452.689 13.8818 452.34C14.5264 451.99 15.1651 451.909 15.7978 452.097C16.4757 452.298 16.9894 452.721 17.339 453.366C17.6727 453.981 17.731 454.613 17.514 455.262C17.3421 455.924 16.9339 456.429 16.2892 456.779C15.6446 457.129 14.9833 457.203 14.3054 457.002C13.6434 456.83 13.1456 456.436 12.8119 455.821ZM29.0594 485.781C28.7098 485.136 28.6356 484.475 28.8367 483.797C29.0538 483.148 29.4846 482.649 30.1293 482.3C30.7739 481.95 31.4126 481.869 32.0453 482.057C32.7232 482.258 33.2369 482.681 33.5865 483.326C33.9202 483.941 33.9785 484.573 33.7615 485.222C33.5896 485.884 33.1814 486.389 32.5367 486.739C31.8921 487.089 31.2308 487.163 30.5529 486.962C29.8909 486.79 29.3931 486.396 29.0594 485.781ZM45.3069 515.741C44.9573 515.096 44.8831 514.435 45.0842 513.757C45.3013 513.109 45.7321 512.609 46.3768 512.26C47.0214 511.91 47.6601 511.829 48.2928 512.017C48.9707 512.218 49.4844 512.641 49.834 513.286C50.1677 513.901 50.226 514.533 50.009 515.182C49.8371 515.844 49.4289 516.349 48.7842 516.699C48.1396 517.049 47.4783 517.123 46.8004 516.922C46.1384 516.75 45.6406 516.356 45.3069 515.741ZM61.5544 545.701C61.2048 545.056 61.1306 544.395 61.3317 543.717C61.5488 543.069 61.9797 542.569 62.6243 542.22C63.2689 541.87 63.9076 541.789 64.5403 541.977C65.2182 542.178 65.7319 542.601 66.0815 543.246C66.4152 543.861 66.4735 544.493 66.2565 545.142C66.0846 545.804 65.6764 546.31 65.0317 546.659C64.3871 547.009 63.7258 547.083 63.0479 546.882C62.3859 546.71 61.8881 546.316 61.5544 545.701ZM-127.292 260.402C-127.642 259.758 -127.716 259.096 -127.515 258.418C-127.298 257.77 -126.867 257.271 -126.222 256.921C-125.578 256.571 -124.939 256.491 -124.306 256.678C-123.629 256.88 -123.115 257.302 -122.765 257.947C-122.431 258.562 -122.373 259.194 -122.59 259.843C-122.762 260.505 -123.17 261.011 -123.815 261.36C-124.46 261.71 -125.121 261.784 -125.799 261.583C-126.461 261.411 -126.959 261.017 -127.292 260.402ZM-111.045 290.362C-111.394 289.718 -111.469 289.056 -111.267 288.378C-111.05 287.73 -110.62 287.231 -109.975 286.881C-109.33 286.532 -108.692 286.451 -108.059 286.638C-107.381 286.84 -106.867 287.262 -106.518 287.907C-106.184 288.522 -106.126 289.154 -106.343 289.803C-106.515 290.465 -106.923 290.971 -107.567 291.32C-108.212 291.67 -108.873 291.744 -109.551 291.543C-110.213 291.371 -110.711 290.978 -111.045 290.362ZM-94.7973 320.322C-95.1469 319.678 -95.2211 319.016 -95.02 318.338C-94.8029 317.69 -94.3721 317.191 -93.7274 316.841C-93.0828 316.492 -92.4441 316.411 -91.8114 316.598C-91.1335 316.8 -90.6198 317.222 -90.2702 317.867C-89.9365 318.482 -89.8782 319.114 -90.0952 319.763C-90.2671 320.425 -90.6754 320.931 -91.32 321.28C-91.9646 321.63 -92.6259 321.704 -93.3038 321.503C-93.9658 321.331 -94.4636 320.938 -94.7973 320.322ZM-78.5498 350.282C-78.8994 349.638 -78.9736 348.976 -78.7725 348.298C-78.5554 347.65 -78.1246 347.151 -77.4799 346.801C-76.8353 346.452 -76.1966 346.371 -75.5639 346.558C-74.886 346.76 -74.3723 347.183 -74.0227 347.827C-73.689 348.442 -73.6307 349.074 -73.8477 349.723C-74.0196 350.385 -74.4278 350.891 -75.0725 351.24C-75.7171 351.59 -76.3784 351.664 -77.0563 351.463C-77.7183 351.291 -78.2161 350.898 -78.5498 350.282ZM-62.3023 380.242C-62.6519 379.598 -62.7261 378.936 -62.525 378.258C-62.3079 377.61 -61.8771 377.111 -61.2324 376.761C-60.5878 376.412 -59.9491 376.331 -59.3164 376.518C-58.6385 376.72 -58.1248 377.143 -57.7752 377.787C-57.4415 378.403 -57.3832 379.034 -57.6002 379.683C-57.7721 380.345 -58.1803 380.851 -58.825 381.2C-59.4696 381.55 -60.1309 381.624 -60.8088 381.423C-61.4708 381.251 -61.9686 380.858 -62.3023 380.242ZM-46.0548 410.202C-46.4044 409.558 -46.4786 408.896 -46.2775 408.219C-46.0604 407.57 -45.6296 407.071 -44.9849 406.721C-44.3403 406.372 -43.7016 406.291 -43.0689 406.478C-42.391 406.68 -41.8773 407.103 -41.5277 407.747C-41.194 408.363 -41.1357 408.995 -41.3527 409.643C-41.5246 410.305 -41.9328 410.811 -42.5775 411.16C-43.2221 411.51 -43.8834 411.584 -44.5613 411.383C-45.2233 411.211 -45.7211 410.818 -46.0548 410.202ZM-29.8073 440.162C-30.1569 439.518 -30.2311 438.856 -30.03 438.179C-29.8129 437.53 -29.3821 437.031 -28.7374 436.681C-28.0928 436.332 -27.4541 436.251 -26.8214 436.439C-26.1435 436.64 -25.6298 437.063 -25.2802 437.707C-24.9465 438.323 -24.8882 438.955 -25.1052 439.603C-25.2771 440.265 -25.6853 440.771 -26.33 441.121C-26.9746 441.47 -27.6359 441.544 -28.3138 441.343C-28.9758 441.171 -29.4736 440.778 -29.8073 440.162ZM-13.5598 470.122C-13.9094 469.478 -13.9836 468.816 -13.7825 468.139C-13.5654 467.49 -13.1345 466.991 -12.4899 466.641C-11.8453 466.292 -11.2066 466.211 -10.5739 466.399C-9.89602 466.6 -9.38228 467.023 -9.03268 467.667C-8.69898 468.283 -8.64066 468.915 -8.85772 469.563C-9.02959 470.225 -9.43784 470.731 -10.0825 471.081C-10.7271 471.43 -11.3884 471.504 -12.0663 471.303C-12.7283 471.131 -13.2261 470.738 -13.5598 470.122ZM2.68768 500.082C2.33808 499.438 2.26387 498.776 2.46504 498.099C2.6821 497.45 3.11295 496.951 3.75759 496.601C4.40224 496.252 5.0409 496.171 5.6736 496.359C6.35149 496.56 6.86523 496.983 7.21482 497.627C7.54852 498.243 7.60684 498.875 7.38978 499.523C7.21791 500.185 6.80966 500.691 6.16502 501.041C5.52038 501.39 4.85911 501.464 4.18122 501.263C3.51923 501.091 3.02138 500.698 2.68768 500.082ZM18.9352 530.042C18.5856 529.398 18.5114 528.737 18.7125 528.059C18.9296 527.41 19.3605 526.911 20.0051 526.561C20.6497 526.212 21.2884 526.131 21.9211 526.319C22.599 526.52 23.1127 526.943 23.4623 527.587C23.796 528.203 23.8543 528.835 23.6373 529.483C23.4654 530.145 23.0572 530.651 22.4125 531.001C21.7679 531.35 21.1066 531.424 20.4287 531.223C19.7667 531.051 19.2689 530.658 18.9352 530.042ZM35.1827 560.002C34.8331 559.358 34.7589 558.697 34.96 558.019C35.1771 557.37 35.608 556.871 36.2526 556.521C36.8972 556.172 37.5359 556.091 38.1686 556.279C38.8465 556.48 39.3602 556.903 39.7098 557.547C40.0435 558.163 40.1018 558.795 39.8848 559.443C39.7129 560.105 39.3047 560.611 38.66 560.961C38.0154 561.31 37.3541 561.384 36.6762 561.183C36.0142 561.011 35.5164 560.618 35.1827 560.002ZM-153.664 274.704C-154.014 274.059 -154.088 273.398 -153.887 272.72C-153.67 272.071 -153.239 271.572 -152.594 271.223C-151.949 270.873 -151.311 270.792 -150.678 270.98C-150 271.181 -149.486 271.604 -149.137 272.249C-148.803 272.864 -148.745 273.496 -148.962 274.144C-149.134 274.806 -149.542 275.312 -150.187 275.662C-150.831 276.011 -151.493 276.086 -152.17 275.884C-152.832 275.713 -153.33 275.319 -153.664 274.704ZM-137.417 304.664C-137.766 304.019 -137.84 303.358 -137.639 302.68C-137.422 302.031 -136.991 301.532 -136.347 301.183C-135.702 300.833 -135.063 300.752 -134.431 300.94C-133.753 301.141 -133.239 301.564 -132.889 302.209C-132.556 302.824 -132.497 303.456 -132.714 304.104C-132.886 304.766 -133.295 305.272 -133.939 305.622C-134.584 305.971 -135.245 306.046 -135.923 305.845C-136.585 305.673 -137.083 305.279 -137.417 304.664ZM-121.169 334.624C-121.519 333.979 -121.593 333.318 -121.392 332.64C-121.175 331.991 -120.744 331.492 -120.099 331.143C-119.454 330.793 -118.816 330.712 -118.183 330.9C-117.505 331.101 -116.991 331.524 -116.642 332.169C-116.308 332.784 -116.25 333.416 -116.467 334.065C-116.639 334.727 -117.047 335.232 -117.692 335.582C-118.336 335.932 -118.998 336.006 -119.675 335.805C-120.337 335.633 -120.835 335.239 -121.169 334.624ZM-104.922 364.584C-105.271 363.939 -105.345 363.278 -105.144 362.6C-104.927 361.951 -104.496 361.452 -103.852 361.103C-103.207 360.753 -102.568 360.672 -101.936 360.86C-101.258 361.061 -100.744 361.484 -100.394 362.129C-100.061 362.744 -100.002 363.376 -100.219 364.025C-100.391 364.687 -100.8 365.192 -101.444 365.542C-102.089 365.892 -102.75 365.966 -103.428 365.765C-104.09 365.593 -104.588 365.199 -104.922 364.584ZM-88.674 394.544C-89.0236 393.899 -89.0978 393.238 -88.8967 392.56C-88.6796 391.911 -88.2488 391.412 -87.6041 391.063C-86.9595 390.713 -86.3208 390.632 -85.6881 390.82C-85.0102 391.021 -84.4965 391.444 -84.1469 392.089C-83.8132 392.704 -83.7549 393.336 -83.9719 393.985C-84.1438 394.647 -84.552 395.152 -85.1967 395.502C-85.8413 395.852 -86.5026 395.926 -87.1805 395.725C-87.8425 395.553 -88.3403 395.159 -88.674 394.544ZM-72.4265 424.504C-72.7761 423.859 -72.8503 423.198 -72.6492 422.52C-72.4321 421.871 -72.0012 421.372 -71.3566 421.023C-70.712 420.673 -70.0733 420.592 -69.4406 420.78C-68.7627 420.981 -68.249 421.404 -67.8994 422.049C-67.5657 422.664 -67.5074 423.296 -67.7244 423.945C-67.8963 424.607 -68.3045 425.112 -68.9492 425.462C-69.5938 425.812 -70.2551 425.886 -70.933 425.685C-71.595 425.513 -72.0928 425.119 -72.4265 424.504ZM-56.179 454.464C-56.5286 453.819 -56.6028 453.158 -56.4017 452.48C-56.1846 451.831 -55.7537 451.332 -55.1091 450.983C-54.4645 450.633 -53.8258 450.552 -53.1931 450.74C-52.5152 450.941 -52.0015 451.364 -51.6519 452.009C-51.3182 452.624 -51.2599 453.256 -51.4769 453.905C-51.6488 454.567 -52.057 455.072 -52.7017 455.422C-53.3463 455.772 -54.0076 455.846 -54.6855 455.645C-55.3475 455.473 -55.8453 455.079 -56.179 454.464ZM-39.9315 484.424C-40.2811 483.779 -40.3553 483.118 -40.1542 482.44C-39.9371 481.792 -39.5062 481.292 -38.8616 480.943C-38.217 480.593 -37.5783 480.512 -36.9456 480.7C-36.2677 480.901 -35.754 481.324 -35.4044 481.969C-35.0707 482.584 -35.0124 483.216 -35.2294 483.865C-35.4013 484.527 -35.8095 485.032 -36.4542 485.382C-37.0988 485.732 -37.7601 485.806 -38.438 485.605C-39.1 485.433 -39.5978 485.039 -39.9315 484.424ZM-23.684 514.384C-24.0336 513.739 -24.1078 513.078 -23.9067 512.4C-23.6896 511.752 -23.2587 511.252 -22.6141 510.903C-21.9695 510.553 -21.3308 510.472 -20.6981 510.66C-20.0202 510.861 -19.5065 511.284 -19.1569 511.929C-18.8232 512.544 -18.7649 513.176 -18.9819 513.825C-19.1538 514.487 -19.562 514.993 -20.2067 515.342C-20.8513 515.692 -21.5126 515.766 -22.1905 515.565C-22.8525 515.393 -23.3503 514.999 -23.684 514.384ZM-7.43652 544.344C-7.78611 543.699 -7.86032 543.038 -7.65915 542.36C-7.44209 541.712 -7.01124 541.212 -6.3666 540.863C-5.72196 540.513 -5.08329 540.432 -4.4506 540.62C-3.77271 540.821 -3.25897 541.244 -2.90938 541.889C-2.57567 542.504 -2.51735 543.136 -2.73441 543.785C-2.90628 544.447 -3.31453 544.953 -3.95918 545.302C-4.60382 545.652 -5.26508 545.726 -5.94297 545.525C-6.60497 545.353 -7.10281 544.959 -7.43652 544.344ZM8.81099 574.304C8.46139 573.659 8.38718 572.998 8.58835 572.32C8.80541 571.672 9.23626 571.173 9.8809 570.823C10.5255 570.473 11.1642 570.392 11.7969 570.58C12.4748 570.781 12.9885 571.204 13.3381 571.849C13.6718 572.464 13.7301 573.096 13.5131 573.745C13.3412 574.407 12.933 574.913 12.2883 575.262C11.6437 575.612 10.9824 575.686 10.3045 575.485C9.64254 575.313 9.14469 574.919 8.81099 574.304Z" fill="#041F8D"/>
<path d="M1155.52 429.3C1154.64 429.3 1153.9 429 1153.3 428.4C1152.74 427.8 1152.46 427.06 1152.46 426.18C1152.46 425.3 1152.74 424.58 1153.3 424.02C1153.9 423.42 1154.64 423.12 1155.52 423.12C1156.36 423.12 1157.06 423.42 1157.62 424.02C1158.22 424.58 1158.52 425.3 1158.52 426.18C1158.52 427.06 1158.22 427.8 1157.62 428.4C1157.06 429 1156.36 429.3 1155.52 429.3ZM1196.42 429.3C1195.54 429.3 1194.8 429 1194.2 428.4C1193.64 427.8 1193.36 427.06 1193.36 426.18C1193.36 425.3 1193.64 424.58 1194.2 424.02C1194.8 423.42 1195.54 423.12 1196.42 423.12C1197.26 423.12 1197.96 423.42 1198.52 424.02C1199.12 424.58 1199.42 425.3 1199.42 426.18C1199.42 427.06 1199.12 427.8 1198.52 428.4C1197.96 429 1197.26 429.3 1196.42 429.3ZM1237.32 429.3C1236.44 429.3 1235.7 429 1235.1 428.4C1234.54 427.8 1234.26 427.06 1234.26 426.18C1234.26 425.3 1234.54 424.58 1235.1 424.02C1235.7 423.42 1236.44 423.12 1237.32 423.12C1238.16 423.12 1238.86 423.42 1239.42 424.02C1240.02 424.58 1240.32 425.3 1240.32 426.18C1240.32 427.06 1240.02 427.8 1239.42 428.4C1238.86 429 1238.16 429.3 1237.32 429.3ZM1278.22 429.3C1277.34 429.3 1276.6 429 1276 428.4C1275.44 427.8 1275.16 427.06 1275.16 426.18C1275.16 425.3 1275.44 424.58 1276 424.02C1276.6 423.42 1277.34 423.12 1278.22 423.12C1279.06 423.12 1279.76 423.42 1280.32 424.02C1280.92 424.58 1281.22 425.3 1281.22 426.18C1281.22 427.06 1280.92 427.8 1280.32 428.4C1279.76 429 1279.06 429.3 1278.22 429.3ZM1319.11 429.3C1318.23 429.3 1317.49 429 1316.89 428.4C1316.33 427.8 1316.05 427.06 1316.05 426.18C1316.05 425.3 1316.33 424.58 1316.89 424.02C1317.49 423.42 1318.23 423.12 1319.11 423.12C1319.95 423.12 1320.65 423.42 1321.21 424.02C1321.81 424.58 1322.11 425.3 1322.11 426.18C1322.11 427.06 1321.81 427.8 1321.21 428.4C1320.65 429 1319.95 429.3 1319.11 429.3ZM1360.01 429.3C1359.13 429.3 1358.39 429 1357.79 428.4C1357.23 427.8 1356.95 427.06 1356.95 426.18C1356.95 425.3 1357.23 424.58 1357.79 424.02C1358.39 423.42 1359.13 423.12 1360.01 423.12C1360.85 423.12 1361.55 423.42 1362.11 424.02C1362.71 424.58 1363.01 425.3 1363.01 426.18C1363.01 427.06 1362.71 427.8 1362.11 428.4C1361.55 429 1360.85 429.3 1360.01 429.3ZM1400.91 429.3C1400.03 429.3 1399.29 429 1398.69 428.4C1398.13 427.8 1397.85 427.06 1397.85 426.18C1397.85 425.3 1398.13 424.58 1398.69 424.02C1399.29 423.42 1400.03 423.12 1400.91 423.12C1401.75 423.12 1402.45 423.42 1403.01 424.02C1403.61 424.58 1403.91 425.3 1403.91 426.18C1403.91 427.06 1403.61 427.8 1403.01 428.4C1402.45 429 1401.75 429.3 1400.91 429.3ZM1441.81 429.3C1440.93 429.3 1440.19 429 1439.59 428.4C1439.03 427.8 1438.75 427.06 1438.75 426.18C1438.75 425.3 1439.03 424.58 1439.59 424.02C1440.19 423.42 1440.93 423.12 1441.81 423.12C1442.65 423.12 1443.35 423.42 1443.91 424.02C1444.51 424.58 1444.81 425.3 1444.81 426.18C1444.81 427.06 1444.51 427.8 1443.91 428.4C1443.35 429 1442.65 429.3 1441.81 429.3ZM1482.71 429.3C1481.83 429.3 1481.09 429 1480.49 428.4C1479.93 427.8 1479.65 427.06 1479.65 426.18C1479.65 425.3 1479.93 424.58 1480.49 424.02C1481.09 423.42 1481.83 423.12 1482.71 423.12C1483.55 423.12 1484.25 423.42 1484.81 424.02C1485.41 424.58 1485.71 425.3 1485.71 426.18C1485.71 427.06 1485.41 427.8 1484.81 428.4C1484.25 429 1483.55 429.3 1482.71 429.3ZM1523.61 429.3C1522.73 429.3 1521.99 429 1521.39 428.4C1520.83 427.8 1520.55 427.06 1520.55 426.18C1520.55 425.3 1520.83 424.58 1521.39 424.02C1521.99 423.42 1522.73 423.12 1523.61 423.12C1524.45 423.12 1525.15 423.42 1525.71 424.02C1526.31 424.58 1526.61 425.3 1526.61 426.18C1526.61 427.06 1526.31 427.8 1525.71 428.4C1525.15 429 1524.45 429.3 1523.61 429.3ZM1564.5 429.3C1563.62 429.3 1562.88 429 1562.28 428.4C1561.72 427.8 1561.44 427.06 1561.44 426.18C1561.44 425.3 1561.72 424.58 1562.28 424.02C1562.88 423.42 1563.62 423.12 1564.5 423.12C1565.34 423.12 1566.04 423.42 1566.6 424.02C1567.2 424.58 1567.5 425.3 1567.5 426.18C1567.5 427.06 1567.2 427.8 1566.6 428.4C1566.04 429 1565.34 429.3 1564.5 429.3ZM1155.52 459.3C1154.64 459.3 1153.9 459 1153.3 458.4C1152.74 457.8 1152.46 457.06 1152.46 456.18C1152.46 455.3 1152.74 454.58 1153.3 454.02C1153.9 453.42 1154.64 453.12 1155.52 453.12C1156.36 453.12 1157.06 453.42 1157.62 454.02C1158.22 454.58 1158.52 455.3 1158.52 456.18C1158.52 457.06 1158.22 457.8 1157.62 458.4C1157.06 459 1156.36 459.3 1155.52 459.3ZM1196.42 459.3C1195.54 459.3 1194.8 459 1194.2 458.4C1193.64 457.8 1193.36 457.06 1193.36 456.18C1193.36 455.3 1193.64 454.58 1194.2 454.02C1194.8 453.42 1195.54 453.12 1196.42 453.12C1197.26 453.12 1197.96 453.42 1198.52 454.02C1199.12 454.58 1199.42 455.3 1199.42 456.18C1199.42 457.06 1199.12 457.8 1198.52 458.4C1197.96 459 1197.26 459.3 1196.42 459.3ZM1237.32 459.3C1236.44 459.3 1235.7 459 1235.1 458.4C1234.54 457.8 1234.26 457.06 1234.26 456.18C1234.26 455.3 1234.54 454.58 1235.1 454.02C1235.7 453.42 1236.44 453.12 1237.32 453.12C1238.16 453.12 1238.86 453.42 1239.42 454.02C1240.02 454.58 1240.32 455.3 1240.32 456.18C1240.32 457.06 1240.02 457.8 1239.42 458.4C1238.86 459 1238.16 459.3 1237.32 459.3ZM1278.22 459.3C1277.34 459.3 1276.6 459 1276 458.4C1275.44 457.8 1275.16 457.06 1275.16 456.18C1275.16 455.3 1275.44 454.58 1276 454.02C1276.6 453.42 1277.34 453.12 1278.22 453.12C1279.06 453.12 1279.76 453.42 1280.32 454.02C1280.92 454.58 1281.22 455.3 1281.22 456.18C1281.22 457.06 1280.92 457.8 1280.32 458.4C1279.76 459 1279.06 459.3 1278.22 459.3ZM1319.11 459.3C1318.23 459.3 1317.49 459 1316.89 458.4C1316.33 457.8 1316.05 457.06 1316.05 456.18C1316.05 455.3 1316.33 454.58 1316.89 454.02C1317.49 453.42 1318.23 453.12 1319.11 453.12C1319.95 453.12 1320.65 453.42 1321.21 454.02C1321.81 454.58 1322.11 455.3 1322.11 456.18C1322.11 457.06 1321.81 457.8 1321.21 458.4C1320.65 459 1319.95 459.3 1319.11 459.3ZM1360.01 459.3C1359.13 459.3 1358.39 459 1357.79 458.4C1357.23 457.8 1356.95 457.06 1356.95 456.18C1356.95 455.3 1357.23 454.58 1357.79 454.02C1358.39 453.42 1359.13 453.12 1360.01 453.12C1360.85 453.12 1361.55 453.42 1362.11 454.02C1362.71 454.58 1363.01 455.3 1363.01 456.18C1363.01 457.06 1362.71 457.8 1362.11 458.4C1361.55 459 1360.85 459.3 1360.01 459.3ZM1400.91 459.3C1400.03 459.3 1399.29 459 1398.69 458.4C1398.13 457.8 1397.85 457.06 1397.85 456.18C1397.85 455.3 1398.13 454.58 1398.69 454.02C1399.29 453.42 1400.03 453.12 1400.91 453.12C1401.75 453.12 1402.45 453.42 1403.01 454.02C1403.61 454.58 1403.91 455.3 1403.91 456.18C1403.91 457.06 1403.61 457.8 1403.01 458.4C1402.45 459 1401.75 459.3 1400.91 459.3ZM1441.81 459.3C1440.93 459.3 1440.19 459 1439.59 458.4C1439.03 457.8 1438.75 457.06 1438.75 456.18C1438.75 455.3 1439.03 454.58 1439.59 454.02C1440.19 453.42 1440.93 453.12 1441.81 453.12C1442.65 453.12 1443.35 453.42 1443.91 454.02C1444.51 454.58 1444.81 455.3 1444.81 456.18C1444.81 457.06 1444.51 457.8 1443.91 458.4C1443.35 459 1442.65 459.3 1441.81 459.3ZM1482.71 459.3C1481.83 459.3 1481.09 459 1480.49 458.4C1479.93 457.8 1479.65 457.06 1479.65 456.18C1479.65 455.3 1479.93 454.58 1480.49 454.02C1481.09 453.42 1481.83 453.12 1482.71 453.12C1483.55 453.12 1484.25 453.42 1484.81 454.02C1485.41 454.58 1485.71 455.3 1485.71 456.18C1485.71 457.06 1485.41 457.8 1484.81 458.4C1484.25 459 1483.55 459.3 1482.71 459.3ZM1523.61 459.3C1522.73 459.3 1521.99 459 1521.39 458.4C1520.83 457.8 1520.55 457.06 1520.55 456.18C1520.55 455.3 1520.83 454.58 1521.39 454.02C1521.99 453.42 1522.73 453.12 1523.61 453.12C1524.45 453.12 1525.15 453.42 1525.71 454.02C1526.31 454.58 1526.61 455.3 1526.61 456.18C1526.61 457.06 1526.31 457.8 1525.71 458.4C1525.15 459 1524.45 459.3 1523.61 459.3ZM1564.5 459.3C1563.62 459.3 1562.88 459 1562.28 458.4C1561.72 457.8 1561.44 457.06 1561.44 456.18C1561.44 455.3 1561.72 454.58 1562.28 454.02C1562.88 453.42 1563.62 453.12 1564.5 453.12C1565.34 453.12 1566.04 453.42 1566.6 454.02C1567.2 454.58 1567.5 455.3 1567.5 456.18C1567.5 457.06 1567.2 457.8 1566.6 458.4C1566.04 459 1565.34 459.3 1564.5 459.3ZM1155.52 489.3C1154.64 489.3 1153.9 489 1153.3 488.4C1152.74 487.8 1152.46 487.06 1152.46 486.18C1152.46 485.3 1152.74 484.58 1153.3 484.02C1153.9 483.42 1154.64 483.12 1155.52 483.12C1156.36 483.12 1157.06 483.42 1157.62 484.02C1158.22 484.58 1158.52 485.3 1158.52 486.18C1158.52 487.06 1158.22 487.8 1157.62 488.4C1157.06 489 1156.36 489.3 1155.52 489.3ZM1196.42 489.3C1195.54 489.3 1194.8 489 1194.2 488.4C1193.64 487.8 1193.36 487.06 1193.36 486.18C1193.36 485.3 1193.64 484.58 1194.2 484.02C1194.8 483.42 1195.54 483.12 1196.42 483.12C1197.26 483.12 1197.96 483.42 1198.52 484.02C1199.12 484.58 1199.42 485.3 1199.42 486.18C1199.42 487.06 1199.12 487.8 1198.52 488.4C1197.96 489 1197.26 489.3 1196.42 489.3ZM1237.32 489.3C1236.44 489.3 1235.7 489 1235.1 488.4C1234.54 487.8 1234.26 487.06 1234.26 486.18C1234.26 485.3 1234.54 484.58 1235.1 484.02C1235.7 483.42 1236.44 483.12 1237.32 483.12C1238.16 483.12 1238.86 483.42 1239.42 484.02C1240.02 484.58 1240.32 485.3 1240.32 486.18C1240.32 487.06 1240.02 487.8 1239.42 488.4C1238.86 489 1238.16 489.3 1237.32 489.3ZM1278.22 489.3C1277.34 489.3 1276.6 489 1276 488.4C1275.44 487.8 1275.16 487.06 1275.16 486.18C1275.16 485.3 1275.44 484.58 1276 484.02C1276.6 483.42 1277.34 483.12 1278.22 483.12C1279.06 483.12 1279.76 483.42 1280.32 484.02C1280.92 484.58 1281.22 485.3 1281.22 486.18C1281.22 487.06 1280.92 487.8 1280.32 488.4C1279.76 489 1279.06 489.3 1278.22 489.3ZM1319.11 489.3C1318.23 489.3 1317.49 489 1316.89 488.4C1316.33 487.8 1316.05 487.06 1316.05 486.18C1316.05 485.3 1316.33 484.58 1316.89 484.02C1317.49 483.42 1318.23 483.12 1319.11 483.12C1319.95 483.12 1320.65 483.42 1321.21 484.02C1321.81 484.58 1322.11 485.3 1322.11 486.18C1322.11 487.06 1321.81 487.8 1321.21 488.4C1320.65 489 1319.95 489.3 1319.11 489.3ZM1360.01 489.3C1359.13 489.3 1358.39 489 1357.79 488.4C1357.23 487.8 1356.95 487.06 1356.95 486.18C1356.95 485.3 1357.23 484.58 1357.79 484.02C1358.39 483.42 1359.13 483.12 1360.01 483.12C1360.85 483.12 1361.55 483.42 1362.11 484.02C1362.71 484.58 1363.01 485.3 1363.01 486.18C1363.01 487.06 1362.71 487.8 1362.11 488.4C1361.55 489 1360.85 489.3 1360.01 489.3ZM1400.91 489.3C1400.03 489.3 1399.29 489 1398.69 488.4C1398.13 487.8 1397.85 487.06 1397.85 486.18C1397.85 485.3 1398.13 484.58 1398.69 484.02C1399.29 483.42 1400.03 483.12 1400.91 483.12C1401.75 483.12 1402.45 483.42 1403.01 484.02C1403.61 484.58 1403.91 485.3 1403.91 486.18C1403.91 487.06 1403.61 487.8 1403.01 488.4C1402.45 489 1401.75 489.3 1400.91 489.3ZM1441.81 489.3C1440.93 489.3 1440.19 489 1439.59 488.4C1439.03 487.8 1438.75 487.06 1438.75 486.18C1438.75 485.3 1439.03 484.58 1439.59 484.02C1440.19 483.42 1440.93 483.12 1441.81 483.12C1442.65 483.12 1443.35 483.42 1443.91 484.02C1444.51 484.58 1444.81 485.3 1444.81 486.18C1444.81 487.06 1444.51 487.8 1443.91 488.4C1443.35 489 1442.65 489.3 1441.81 489.3ZM1482.71 489.3C1481.83 489.3 1481.09 489 1480.49 488.4C1479.93 487.8 1479.65 487.06 1479.65 486.18C1479.65 485.3 1479.93 484.58 1480.49 484.02C1481.09 483.42 1481.83 483.12 1482.71 483.12C1483.55 483.12 1484.25 483.42 1484.81 484.02C1485.41 484.58 1485.71 485.3 1485.71 486.18C1485.71 487.06 1485.41 487.8 1484.81 488.4C1484.25 489 1483.55 489.3 1482.71 489.3ZM1523.61 489.3C1522.73 489.3 1521.99 489 1521.39 488.4C1520.83 487.8 1520.55 487.06 1520.55 486.18C1520.55 485.3 1520.83 484.58 1521.39 484.02C1521.99 483.42 1522.73 483.12 1523.61 483.12C1524.45 483.12 1525.15 483.42 1525.71 484.02C1526.31 484.58 1526.61 485.3 1526.61 486.18C1526.61 487.06 1526.31 487.8 1525.71 488.4C1525.15 489 1524.45 489.3 1523.61 489.3ZM1564.5 489.3C1563.62 489.3 1562.88 489 1562.28 488.4C1561.72 487.8 1561.44 487.06 1561.44 486.18C1561.44 485.3 1561.72 484.58 1562.28 484.02C1562.88 483.42 1563.62 483.12 1564.5 483.12C1565.34 483.12 1566.04 483.42 1566.6 484.02C1567.2 484.58 1567.5 485.3 1567.5 486.18C1567.5 487.06 1567.2 487.8 1566.6 488.4C1566.04 489 1565.34 489.3 1564.5 489.3ZM1155.52 519.3C1154.64 519.3 1153.9 519 1153.3 518.4C1152.74 517.8 1152.46 517.06 1152.46 516.18C1152.46 515.3 1152.74 514.58 1153.3 514.02C1153.9 513.42 1154.64 513.12 1155.52 513.12C1156.36 513.12 1157.06 513.42 1157.62 514.02C1158.22 514.58 1158.52 515.3 1158.52 516.18C1158.52 517.06 1158.22 517.8 1157.62 518.4C1157.06 519 1156.36 519.3 1155.52 519.3ZM1196.42 519.3C1195.54 519.3 1194.8 519 1194.2 518.4C1193.64 517.8 1193.36 517.06 1193.36 516.18C1193.36 515.3 1193.64 514.58 1194.2 514.02C1194.8 513.42 1195.54 513.12 1196.42 513.12C1197.26 513.12 1197.96 513.42 1198.52 514.02C1199.12 514.58 1199.42 515.3 1199.42 516.18C1199.42 517.06 1199.12 517.8 1198.52 518.4C1197.96 519 1197.26 519.3 1196.42 519.3ZM1237.32 519.3C1236.44 519.3 1235.7 519 1235.1 518.4C1234.54 517.8 1234.26 517.06 1234.26 516.18C1234.26 515.3 1234.54 514.58 1235.1 514.02C1235.7 513.42 1236.44 513.12 1237.32 513.12C1238.16 513.12 1238.86 513.42 1239.42 514.02C1240.02 514.58 1240.32 515.3 1240.32 516.18C1240.32 517.06 1240.02 517.8 1239.42 518.4C1238.86 519 1238.16 519.3 1237.32 519.3ZM1278.22 519.3C1277.34 519.3 1276.6 519 1276 518.4C1275.44 517.8 1275.16 517.06 1275.16 516.18C1275.16 515.3 1275.44 514.58 1276 514.02C1276.6 513.42 1277.34 513.12 1278.22 513.12C1279.06 513.12 1279.76 513.42 1280.32 514.02C1280.92 514.58 1281.22 515.3 1281.22 516.18C1281.22 517.06 1280.92 517.8 1280.32 518.4C1279.76 519 1279.06 519.3 1278.22 519.3ZM1319.11 519.3C1318.23 519.3 1317.49 519 1316.89 518.4C1316.33 517.8 1316.05 517.06 1316.05 516.18C1316.05 515.3 1316.33 514.58 1316.89 514.02C1317.49 513.42 1318.23 513.12 1319.11 513.12C1319.95 513.12 1320.65 513.42 1321.21 514.02C1321.81 514.58 1322.11 515.3 1322.11 516.18C1322.11 517.06 1321.81 517.8 1321.21 518.4C1320.65 519 1319.95 519.3 1319.11 519.3ZM1360.01 519.3C1359.13 519.3 1358.39 519 1357.79 518.4C1357.23 517.8 1356.95 517.06 1356.95 516.18C1356.95 515.3 1357.23 514.58 1357.79 514.02C1358.39 513.42 1359.13 513.12 1360.01 513.12C1360.85 513.12 1361.55 513.42 1362.11 514.02C1362.71 514.58 1363.01 515.3 1363.01 516.18C1363.01 517.06 1362.71 517.8 1362.11 518.4C1361.55 519 1360.85 519.3 1360.01 519.3ZM1400.91 519.3C1400.03 519.3 1399.29 519 1398.69 518.4C1398.13 517.8 1397.85 517.06 1397.85 516.18C1397.85 515.3 1398.13 514.58 1398.69 514.02C1399.29 513.42 1400.03 513.12 1400.91 513.12C1401.75 513.12 1402.45 513.42 1403.01 514.02C1403.61 514.58 1403.91 515.3 1403.91 516.18C1403.91 517.06 1403.61 517.8 1403.01 518.4C1402.45 519 1401.75 519.3 1400.91 519.3ZM1441.81 519.3C1440.93 519.3 1440.19 519 1439.59 518.4C1439.03 517.8 1438.75 517.06 1438.75 516.18C1438.75 515.3 1439.03 514.58 1439.59 514.02C1440.19 513.42 1440.93 513.12 1441.81 513.12C1442.65 513.12 1443.35 513.42 1443.91 514.02C1444.51 514.58 1444.81 515.3 1444.81 516.18C1444.81 517.06 1444.51 517.8 1443.91 518.4C1443.35 519 1442.65 519.3 1441.81 519.3ZM1482.71 519.3C1481.83 519.3 1481.09 519 1480.49 518.4C1479.93 517.8 1479.65 517.06 1479.65 516.18C1479.65 515.3 1479.93 514.58 1480.49 514.02C1481.09 513.42 1481.83 513.12 1482.71 513.12C1483.55 513.12 1484.25 513.42 1484.81 514.02C1485.41 514.58 1485.71 515.3 1485.71 516.18C1485.71 517.06 1485.41 517.8 1484.81 518.4C1484.25 519 1483.55 519.3 1482.71 519.3ZM1523.61 519.3C1522.73 519.3 1521.99 519 1521.39 518.4C1520.83 517.8 1520.55 517.06 1520.55 516.18C1520.55 515.3 1520.83 514.58 1521.39 514.02C1521.99 513.42 1522.73 513.12 1523.61 513.12C1524.45 513.12 1525.15 513.42 1525.71 514.02C1526.31 514.58 1526.61 515.3 1526.61 516.18C1526.61 517.06 1526.31 517.8 1525.71 518.4C1525.15 519 1524.45 519.3 1523.61 519.3ZM1564.5 519.3C1563.62 519.3 1562.88 519 1562.28 518.4C1561.72 517.8 1561.44 517.06 1561.44 516.18C1561.44 515.3 1561.72 514.58 1562.28 514.02C1562.88 513.42 1563.62 513.12 1564.5 513.12C1565.34 513.12 1566.04 513.42 1566.6 514.02C1567.2 514.58 1567.5 515.3 1567.5 516.18C1567.5 517.06 1567.2 517.8 1566.6 518.4C1566.04 519 1565.34 519.3 1564.5 519.3ZM1155.52 549.3C1154.64 549.3 1153.9 549 1153.3 548.4C1152.74 547.8 1152.46 547.06 1152.46 546.18C1152.46 545.3 1152.74 544.58 1153.3 544.02C1153.9 543.42 1154.64 543.12 1155.52 543.12C1156.36 543.12 1157.06 543.42 1157.62 544.02C1158.22 544.58 1158.52 545.3 1158.52 546.18C1158.52 547.06 1158.22 547.8 1157.62 548.4C1157.06 549 1156.36 549.3 1155.52 549.3ZM1196.42 549.3C1195.54 549.3 1194.8 549 1194.2 548.4C1193.64 547.8 1193.36 547.06 1193.36 546.18C1193.36 545.3 1193.64 544.58 1194.2 544.02C1194.8 543.42 1195.54 543.12 1196.42 543.12C1197.26 543.12 1197.96 543.42 1198.52 544.02C1199.12 544.58 1199.42 545.3 1199.42 546.18C1199.42 547.06 1199.12 547.8 1198.52 548.4C1197.96 549 1197.26 549.3 1196.42 549.3ZM1237.32 549.3C1236.44 549.3 1235.7 549 1235.1 548.4C1234.54 547.8 1234.26 547.06 1234.26 546.18C1234.26 545.3 1234.54 544.58 1235.1 544.02C1235.7 543.42 1236.44 543.12 1237.32 543.12C1238.16 543.12 1238.86 543.42 1239.42 544.02C1240.02 544.58 1240.32 545.3 1240.32 546.18C1240.32 547.06 1240.02 547.8 1239.42 548.4C1238.86 549 1238.16 549.3 1237.32 549.3ZM1278.22 549.3C1277.34 549.3 1276.6 549 1276 548.4C1275.44 547.8 1275.16 547.06 1275.16 546.18C1275.16 545.3 1275.44 544.58 1276 544.02C1276.6 543.42 1277.34 543.12 1278.22 543.12C1279.06 543.12 1279.76 543.42 1280.32 544.02C1280.92 544.58 1281.22 545.3 1281.22 546.18C1281.22 547.06 1280.92 547.8 1280.32 548.4C1279.76 549 1279.06 549.3 1278.22 549.3ZM1319.11 549.3C1318.23 549.3 1317.49 549 1316.89 548.4C1316.33 547.8 1316.05 547.06 1316.05 546.18C1316.05 545.3 1316.33 544.58 1316.89 544.02C1317.49 543.42 1318.23 543.12 1319.11 543.12C1319.95 543.12 1320.65 543.42 1321.21 544.02C1321.81 544.58 1322.11 545.3 1322.11 546.18C1322.11 547.06 1321.81 547.8 1321.21 548.4C1320.65 549 1319.95 549.3 1319.11 549.3ZM1360.01 549.3C1359.13 549.3 1358.39 549 1357.79 548.4C1357.23 547.8 1356.95 547.06 1356.95 546.18C1356.95 545.3 1357.23 544.58 1357.79 544.02C1358.39 543.42 1359.13 543.12 1360.01 543.12C1360.85 543.12 1361.55 543.42 1362.11 544.02C1362.71 544.58 1363.01 545.3 1363.01 546.18C1363.01 547.06 1362.71 547.8 1362.11 548.4C1361.55 549 1360.85 549.3 1360.01 549.3ZM1400.91 549.3C1400.03 549.3 1399.29 549 1398.69 548.4C1398.13 547.8 1397.85 547.06 1397.85 546.18C1397.85 545.3 1398.13 544.58 1398.69 544.02C1399.29 543.42 1400.03 543.12 1400.91 543.12C1401.75 543.12 1402.45 543.42 1403.01 544.02C1403.61 544.58 1403.91 545.3 1403.91 546.18C1403.91 547.06 1403.61 547.8 1403.01 548.4C1402.45 549 1401.75 549.3 1400.91 549.3ZM1441.81 549.3C1440.93 549.3 1440.19 549 1439.59 548.4C1439.03 547.8 1438.75 547.06 1438.75 546.18C1438.75 545.3 1439.03 544.58 1439.59 544.02C1440.19 543.42 1440.93 543.12 1441.81 543.12C1442.65 543.12 1443.35 543.42 1443.91 544.02C1444.51 544.58 1444.81 545.3 1444.81 546.18C1444.81 547.06 1444.51 547.8 1443.91 548.4C1443.35 549 1442.65 549.3 1441.81 549.3ZM1482.71 549.3C1481.83 549.3 1481.09 549 1480.49 548.4C1479.93 547.8 1479.65 547.06 1479.65 546.18C1479.65 545.3 1479.93 544.58 1480.49 544.02C1481.09 543.42 1481.83 543.12 1482.71 543.12C1483.55 543.12 1484.25 543.42 1484.81 544.02C1485.41 544.58 1485.71 545.3 1485.71 546.18C1485.71 547.06 1485.41 547.8 1484.81 548.4C1484.25 549 1483.55 549.3 1482.71 549.3ZM1523.61 549.3C1522.73 549.3 1521.99 549 1521.39 548.4C1520.83 547.8 1520.55 547.06 1520.55 546.18C1520.55 545.3 1520.83 544.58 1521.39 544.02C1521.99 543.42 1522.73 543.12 1523.61 543.12C1524.45 543.12 1525.15 543.42 1525.71 544.02C1526.31 544.58 1526.61 545.3 1526.61 546.18C1526.61 547.06 1526.31 547.8 1525.71 548.4C1525.15 549 1524.45 549.3 1523.61 549.3ZM1564.5 549.3C1563.62 549.3 1562.88 549 1562.28 548.4C1561.72 547.8 1561.44 547.06 1561.44 546.18C1561.44 545.3 1561.72 544.58 1562.28 544.02C1562.88 543.42 1563.62 543.12 1564.5 543.12C1565.34 543.12 1566.04 543.42 1566.6 544.02C1567.2 544.58 1567.5 545.3 1567.5 546.18C1567.5 547.06 1567.2 547.8 1566.6 548.4C1566.04 549 1565.34 549.3 1564.5 549.3ZM1155.52 579.3C1154.64 579.3 1153.9 579 1153.3 578.4C1152.74 577.8 1152.46 577.06 1152.46 576.18C1152.46 575.3 1152.74 574.58 1153.3 574.02C1153.9 573.42 1154.64 573.12 1155.52 573.12C1156.36 573.12 1157.06 573.42 1157.62 574.02C1158.22 574.58 1158.52 575.3 1158.52 576.18C1158.52 577.06 1158.22 577.8 1157.62 578.4C1157.06 579 1156.36 579.3 1155.52 579.3ZM1196.42 579.3C1195.54 579.3 1194.8 579 1194.2 578.4C1193.64 577.8 1193.36 577.06 1193.36 576.18C1193.36 575.3 1193.64 574.58 1194.2 574.02C1194.8 573.42 1195.54 573.12 1196.42 573.12C1197.26 573.12 1197.96 573.42 1198.52 574.02C1199.12 574.58 1199.42 575.3 1199.42 576.18C1199.42 577.06 1199.12 577.8 1198.52 578.4C1197.96 579 1197.26 579.3 1196.42 579.3ZM1237.32 579.3C1236.44 579.3 1235.7 579 1235.1 578.4C1234.54 577.8 1234.26 577.06 1234.26 576.18C1234.26 575.3 1234.54 574.58 1235.1 574.02C1235.7 573.42 1236.44 573.12 1237.32 573.12C1238.16 573.12 1238.86 573.42 1239.42 574.02C1240.02 574.58 1240.32 575.3 1240.32 576.18C1240.32 577.06 1240.02 577.8 1239.42 578.4C1238.86 579 1238.16 579.3 1237.32 579.3ZM1278.22 579.3C1277.34 579.3 1276.6 579 1276 578.4C1275.44 577.8 1275.16 577.06 1275.16 576.18C1275.16 575.3 1275.44 574.58 1276 574.02C1276.6 573.42 1277.34 573.12 1278.22 573.12C1279.06 573.12 1279.76 573.42 1280.32 574.02C1280.92 574.58 1281.22 575.3 1281.22 576.18C1281.22 577.06 1280.92 577.8 1280.32 578.4C1279.76 579 1279.06 579.3 1278.22 579.3ZM1319.11 579.3C1318.23 579.3 1317.49 579 1316.89 578.4C1316.33 577.8 1316.05 577.06 1316.05 576.18C1316.05 575.3 1316.33 574.58 1316.89 574.02C1317.49 573.42 1318.23 573.12 1319.11 573.12C1319.95 573.12 1320.65 573.42 1321.21 574.02C1321.81 574.58 1322.11 575.3 1322.11 576.18C1322.11 577.06 1321.81 577.8 1321.21 578.4C1320.65 579 1319.95 579.3 1319.11 579.3ZM1360.01 579.3C1359.13 579.3 1358.39 579 1357.79 578.4C1357.23 577.8 1356.95 577.06 1356.95 576.18C1356.95 575.3 1357.23 574.58 1357.79 574.02C1358.39 573.42 1359.13 573.12 1360.01 573.12C1360.85 573.12 1361.55 573.42 1362.11 574.02C1362.71 574.58 1363.01 575.3 1363.01 576.18C1363.01 577.06 1362.71 577.8 1362.11 578.4C1361.55 579 1360.85 579.3 1360.01 579.3ZM1400.91 579.3C1400.03 579.3 1399.29 579 1398.69 578.4C1398.13 577.8 1397.85 577.06 1397.85 576.18C1397.85 575.3 1398.13 574.58 1398.69 574.02C1399.29 573.42 1400.03 573.12 1400.91 573.12C1401.75 573.12 1402.45 573.42 1403.01 574.02C1403.61 574.58 1403.91 575.3 1403.91 576.18C1403.91 577.06 1403.61 577.8 1403.01 578.4C1402.45 579 1401.75 579.3 1400.91 579.3ZM1441.81 579.3C1440.93 579.3 1440.19 579 1439.59 578.4C1439.03 577.8 1438.75 577.06 1438.75 576.18C1438.75 575.3 1439.03 574.58 1439.59 574.02C1440.19 573.42 1440.93 573.12 1441.81 573.12C1442.65 573.12 1443.35 573.42 1443.91 574.02C1444.51 574.58 1444.81 575.3 1444.81 576.18C1444.81 577.06 1444.51 577.8 1443.91 578.4C1443.35 579 1442.65 579.3 1441.81 579.3ZM1482.71 579.3C1481.83 579.3 1481.09 579 1480.49 578.4C1479.93 577.8 1479.65 577.06 1479.65 576.18C1479.65 575.3 1479.93 574.58 1480.49 574.02C1481.09 573.42 1481.83 573.12 1482.71 573.12C1483.55 573.12 1484.25 573.42 1484.81 574.02C1485.41 574.58 1485.71 575.3 1485.71 576.18C1485.71 577.06 1485.41 577.8 1484.81 578.4C1484.25 579 1483.55 579.3 1482.71 579.3ZM1523.61 579.3C1522.73 579.3 1521.99 579 1521.39 578.4C1520.83 577.8 1520.55 577.06 1520.55 576.18C1520.55 575.3 1520.83 574.58 1521.39 574.02C1521.99 573.42 1522.73 573.12 1523.61 573.12C1524.45 573.12 1525.15 573.42 1525.71 574.02C1526.31 574.58 1526.61 575.3 1526.61 576.18C1526.61 577.06 1526.31 577.8 1525.71 578.4C1525.15 579 1524.45 579.3 1523.61 579.3ZM1564.5 579.3C1563.62 579.3 1562.88 579 1562.28 578.4C1561.72 577.8 1561.44 577.06 1561.44 576.18C1561.44 575.3 1561.72 574.58 1562.28 574.02C1562.88 573.42 1563.62 573.12 1564.5 573.12C1565.34 573.12 1566.04 573.42 1566.6 574.02C1567.2 574.58 1567.5 575.3 1567.5 576.18C1567.5 577.06 1567.2 577.8 1566.6 578.4C1566.04 579 1565.34 579.3 1564.5 579.3ZM1155.52 609.3C1154.64 609.3 1153.9 609 1153.3 608.4C1152.74 607.8 1152.46 607.06 1152.46 606.18C1152.46 605.3 1152.74 604.58 1153.3 604.02C1153.9 603.42 1154.64 603.12 1155.52 603.12C1156.36 603.12 1157.06 603.42 1157.62 604.02C1158.22 604.58 1158.52 605.3 1158.52 606.18C1158.52 607.06 1158.22 607.8 1157.62 608.4C1157.06 609 1156.36 609.3 1155.52 609.3ZM1196.42 609.3C1195.54 609.3 1194.8 609 1194.2 608.4C1193.64 607.8 1193.36 607.06 1193.36 606.18C1193.36 605.3 1193.64 604.58 1194.2 604.02C1194.8 603.42 1195.54 603.12 1196.42 603.12C1197.26 603.12 1197.96 603.42 1198.52 604.02C1199.12 604.58 1199.42 605.3 1199.42 606.18C1199.42 607.06 1199.12 607.8 1198.52 608.4C1197.96 609 1197.26 609.3 1196.42 609.3ZM1237.32 609.3C1236.44 609.3 1235.7 609 1235.1 608.4C1234.54 607.8 1234.26 607.06 1234.26 606.18C1234.26 605.3 1234.54 604.58 1235.1 604.02C1235.7 603.42 1236.44 603.12 1237.32 603.12C1238.16 603.12 1238.86 603.42 1239.42 604.02C1240.02 604.58 1240.32 605.3 1240.32 606.18C1240.32 607.06 1240.02 607.8 1239.42 608.4C1238.86 609 1238.16 609.3 1237.32 609.3ZM1278.22 609.3C1277.34 609.3 1276.6 609 1276 608.4C1275.44 607.8 1275.16 607.06 1275.16 606.18C1275.16 605.3 1275.44 604.58 1276 604.02C1276.6 603.42 1277.34 603.12 1278.22 603.12C1279.06 603.12 1279.76 603.42 1280.32 604.02C1280.92 604.58 1281.22 605.3 1281.22 606.18C1281.22 607.06 1280.92 607.8 1280.32 608.4C1279.76 609 1279.06 609.3 1278.22 609.3ZM1319.11 609.3C1318.23 609.3 1317.49 609 1316.89 608.4C1316.33 607.8 1316.05 607.06 1316.05 606.18C1316.05 605.3 1316.33 604.58 1316.89 604.02C1317.49 603.42 1318.23 603.12 1319.11 603.12C1319.95 603.12 1320.65 603.42 1321.21 604.02C1321.81 604.58 1322.11 605.3 1322.11 606.18C1322.11 607.06 1321.81 607.8 1321.21 608.4C1320.65 609 1319.95 609.3 1319.11 609.3ZM1360.01 609.3C1359.13 609.3 1358.39 609 1357.79 608.4C1357.23 607.8 1356.95 607.06 1356.95 606.18C1356.95 605.3 1357.23 604.58 1357.79 604.02C1358.39 603.42 1359.13 603.12 1360.01 603.12C1360.85 603.12 1361.55 603.42 1362.11 604.02C1362.71 604.58 1363.01 605.3 1363.01 606.18C1363.01 607.06 1362.71 607.8 1362.11 608.4C1361.55 609 1360.85 609.3 1360.01 609.3ZM1400.91 609.3C1400.03 609.3 1399.29 609 1398.69 608.4C1398.13 607.8 1397.85 607.06 1397.85 606.18C1397.85 605.3 1398.13 604.58 1398.69 604.02C1399.29 603.42 1400.03 603.12 1400.91 603.12C1401.75 603.12 1402.45 603.42 1403.01 604.02C1403.61 604.58 1403.91 605.3 1403.91 606.18C1403.91 607.06 1403.61 607.8 1403.01 608.4C1402.45 609 1401.75 609.3 1400.91 609.3ZM1441.81 609.3C1440.93 609.3 1440.19 609 1439.59 608.4C1439.03 607.8 1438.75 607.06 1438.75 606.18C1438.75 605.3 1439.03 604.58 1439.59 604.02C1440.19 603.42 1440.93 603.12 1441.81 603.12C1442.65 603.12 1443.35 603.42 1443.91 604.02C1444.51 604.58 1444.81 605.3 1444.81 606.18C1444.81 607.06 1444.51 607.8 1443.91 608.4C1443.35 609 1442.65 609.3 1441.81 609.3ZM1482.71 609.3C1481.83 609.3 1481.09 609 1480.49 608.4C1479.93 607.8 1479.65 607.06 1479.65 606.18C1479.65 605.3 1479.93 604.58 1480.49 604.02C1481.09 603.42 1481.83 603.12 1482.71 603.12C1483.55 603.12 1484.25 603.42 1484.81 604.02C1485.41 604.58 1485.71 605.3 1485.71 606.18C1485.71 607.06 1485.41 607.8 1484.81 608.4C1484.25 609 1483.55 609.3 1482.71 609.3ZM1523.61 609.3C1522.73 609.3 1521.99 609 1521.39 608.4C1520.83 607.8 1520.55 607.06 1520.55 606.18C1520.55 605.3 1520.83 604.58 1521.39 604.02C1521.99 603.42 1522.73 603.12 1523.61 603.12C1524.45 603.12 1525.15 603.42 1525.71 604.02C1526.31 604.58 1526.61 605.3 1526.61 606.18C1526.61 607.06 1526.31 607.8 1525.71 608.4C1525.15 609 1524.45 609.3 1523.61 609.3ZM1564.5 609.3C1563.62 609.3 1562.88 609 1562.28 608.4C1561.72 607.8 1561.44 607.06 1561.44 606.18C1561.44 605.3 1561.72 604.58 1562.28 604.02C1562.88 603.42 1563.62 603.12 1564.5 603.12C1565.34 603.12 1566.04 603.42 1566.6 604.02C1567.2 604.58 1567.5 605.3 1567.5 606.18C1567.5 607.06 1567.2 607.8 1566.6 608.4C1566.04 609 1565.34 609.3 1564.5 609.3Z" fill="#041F8D"/>
<path d="M-50.2624 333.721C-23.3662 316.671 8.2487 318.328 20.3514 337.421L69.4965 414.951C81.5992 434.044 69.6068 463.343 42.7106 480.392L-66.5057 549.623C-93.4018 566.672 -125.017 565.015 -137.119 545.922L-186.265 468.392C-198.367 449.299 -186.375 420 -159.479 402.951L-50.2624 333.721Z" fill="#CFD6EE"/>
<path d="M32.424 308.307C59.3202 291.258 90.935 292.915 103.038 312.008L159.131 400.498C171.233 419.591 159.241 448.89 132.345 465.939L7.68823 544.957C-19.208 562.006 -50.8228 560.349 -62.9255 541.256L-119.018 452.766C-131.121 433.673 -119.129 404.374 -92.2324 387.325L32.424 308.307Z" fill="#CFD6EE" fill-opacity="0.32"/>
<path d="M-19.073 306.428L-128.038 327.756C-131.504 328.434 -135.077 328.322 -138.493 327.427C-159.394 321.955 -175.965 345.238 -163.948 363.193L-127.853 417.125C-115.226 435.992 -91.1244 443.457 -70.0442 435.03L9.47883 403.24C29.4731 395.247 42.2354 375.495 41.3047 353.982C39.9642 322.998 11.3626 300.471 -19.073 306.428Z" fill="white"/>
</g>
<defs>
<linearGradient id="paint0_linear_97_58" x1="720.5" y1="3.74247" x2="720.5" y2="242.624" gradientUnits="userSpaceOnUse">
<stop stop-color="#AFAEFF" stop-opacity="0"/>
<stop offset="1" stop-color="#AFAEFF" stop-opacity="0.5"/>
</linearGradient>
<linearGradient id="paint1_linear_97_58" x1="720.5" y1="3.74247" x2="720.5" y2="242.624" gradientUnits="userSpaceOnUse">
<stop stop-color="#AFAEFF" stop-opacity="0"/>
<stop offset="1" stop-color="#AFAEFF" stop-opacity="0.5"/>
</linearGradient>
<linearGradient id="paint2_linear_97_58" x1="720.5" y1="3.74251" x2="720.5" y2="242.624" gradientUnits="userSpaceOnUse">
<stop stop-color="#AFAEFF" stop-opacity="0"/>
<stop offset="1" stop-color="#AFAEFF" stop-opacity="0.5"/>
</linearGradient>
<clipPath id="clip0_97_58">
<rect width="1440" height="780" fill="white"/>
</clipPath>
<clipPath id="clip1_97_58">
<rect width="1440" height="1033" fill="white" transform="matrix(-1 0 0 1 1440 -387)"/>
</clipPath>
</defs>
</svg>
