<svg width="400" height="932" viewBox="0 0 400 932" fill="none" xmlns="http://www.w3.org/2000/svg">
<g clip-path="url(#clip0_2_4)">
<rect width="400" height="932" fill="white"/>
<rect x="-273" y="473" width="300" height="300" rx="150" fill="#EEF7FF"/>
<rect x="-369" y="490" width="381" height="266" rx="133" fill="white"/>
<path d="M598.8 -55H-119.2C-119.2 -55 -165.999 128.164 -119.2 228.5C-13.5132 455.092 365.744 343.367 515.3 143C565.496 75.7495 598.8 -55 598.8 -55Z" fill="#E4F2FF"/>
<path d="M621.8 -84H-96.2004C-96.2004 -84 -142.999 99.1638 -96.2004 199.5C9.48683 426.092 388.744 314.367 538.3 114C588.496 46.7495 621.8 -84 621.8 -84Z" fill="#3794E9"/>
<rect x="396.783" y="710.871" width="119" height="200" rx="59.5" transform="rotate(6.54346 396.783 710.871)" fill="#EEF7FF"/>
<rect x="403.066" y="704.577" width="123" height="223" rx="61.5" transform="rotate(5.54712 403.066 704.577)" fill="#3794E9"/>
<path d="M16.1394 61.041C16.6567 57.1263 21.2945 55.3279 24.3158 57.8705L49.4824 79.0501C52.3896 81.4967 51.6132 86.1638 48.0706 87.5375L18.5946 98.9672C15.052 100.341 11.3323 97.4172 11.8301 93.6503L16.1394 61.041Z" fill="#89C6FF"/>
<rect x="373" y="12" width="43" height="36" rx="18" fill="#89C6FF"/>
<path d="M511.161 102.503C511.759 102.547 512.239 102.756 512.599 103.131C512.945 103.517 513.098 103.97 513.06 104.488C513.021 105.02 512.802 105.452 512.403 105.783C511.991 106.114 511.486 106.257 510.887 106.213C510.302 106.17 509.837 105.955 509.491 105.569C509.132 105.181 508.972 104.722 509.011 104.19C509.049 103.671 509.275 103.246 509.687 102.916C510.084 102.598 510.576 102.46 511.161 102.503ZM500.346 101.706C500.944 101.75 501.423 101.959 501.784 102.333C502.129 102.72 502.283 103.172 502.245 103.691C502.206 104.223 501.987 104.654 501.588 104.986C501.176 105.317 500.671 105.46 500.072 105.416C499.487 105.373 499.022 105.158 498.676 104.771C498.317 104.384 498.157 103.924 498.196 103.392C498.234 102.874 498.459 102.449 498.871 102.118C499.269 101.8 499.761 101.663 500.346 101.706ZM489.531 100.908C490.129 100.952 490.608 101.162 490.968 101.536C491.314 101.922 491.468 102.375 491.43 102.893C491.391 103.425 491.172 103.857 490.773 104.189C490.361 104.519 489.855 104.662 489.257 104.618C488.672 104.575 488.207 104.36 487.861 103.974C487.502 103.586 487.342 103.127 487.381 102.595C487.419 102.076 487.644 101.652 488.056 101.321C488.454 101.003 488.946 100.865 489.531 100.908ZM478.715 100.111C479.314 100.155 479.793 100.364 480.153 100.738C480.499 101.125 480.653 101.577 480.615 102.096C480.575 102.628 480.356 103.06 479.958 103.391C479.546 103.722 479.04 103.865 478.442 103.821C477.857 103.778 477.391 103.563 477.046 103.176C476.686 102.789 476.526 102.329 476.566 101.797C476.604 101.279 476.829 100.854 477.241 100.524C477.639 100.205 478.13 100.068 478.715 100.111ZM467.9 99.3134C468.499 99.3576 468.978 99.5667 469.338 99.9409C469.684 100.327 469.838 100.78 469.799 101.298C469.76 101.83 469.541 102.262 469.142 102.594C468.73 102.924 468.225 103.067 467.627 103.023C467.042 102.98 466.576 102.765 466.23 102.379C465.871 101.991 465.711 101.532 465.75 101C465.789 100.481 466.014 100.057 466.426 99.7261C466.824 99.4079 467.315 99.2703 467.9 99.3134ZM457.085 98.516C457.683 98.5601 458.163 98.7693 458.523 99.1434C458.869 99.5299 459.023 99.9824 458.984 100.501C458.945 101.033 458.726 101.465 458.327 101.796C457.915 102.127 457.41 102.27 456.812 102.226C456.226 102.183 455.761 101.968 455.415 101.582C455.056 101.194 454.896 100.734 454.935 100.202C454.974 99.6839 455.199 99.2593 455.611 98.9287C456.009 98.6104 456.5 98.4729 457.085 98.516ZM446.27 97.7186C446.868 97.7627 447.348 97.9718 447.708 98.346C448.054 98.7325 448.207 99.185 448.169 99.7036C448.13 100.235 447.911 100.667 447.512 100.999C447.1 101.329 446.595 101.473 445.996 101.428C445.411 101.385 444.946 101.171 444.6 100.784C444.241 100.397 444.081 99.9369 444.12 99.405C444.158 98.8865 444.383 98.4619 444.796 98.1313C445.193 97.813 445.685 97.6754 446.27 97.7186ZM435.455 96.9211C436.053 96.9652 436.532 97.1744 436.893 97.5486C437.238 97.935 437.392 98.3876 437.354 98.9062C437.315 99.438 437.096 99.8698 436.697 100.201C436.285 100.532 435.78 100.675 435.181 100.631C434.596 100.588 434.131 100.373 433.785 99.9866C433.426 99.5992 433.266 99.1395 433.305 98.6076C433.343 98.089 433.568 97.6644 433.98 97.3338C434.378 97.0156 434.87 96.878 435.455 96.9211ZM424.64 96.1237C425.238 96.1678 425.717 96.377 426.077 96.7511C426.423 97.1376 426.577 97.5901 426.539 98.1087C426.5 98.6406 426.281 99.0723 425.882 99.4039C425.47 99.7345 424.964 99.8777 424.366 99.8336C423.781 99.7905 423.315 99.5757 422.97 99.1892C422.61 98.8017 422.451 98.3421 422.49 97.8102C422.528 97.2916 422.753 96.867 423.165 96.5364C423.563 96.2181 424.055 96.0806 424.64 96.1237ZM413.824 95.3263C414.423 95.3704 414.902 95.5795 415.262 95.9537C415.608 96.3402 415.762 96.7927 415.724 97.3113C415.684 97.8432 415.465 98.2749 415.067 98.6065C414.654 98.9371 414.149 99.0803 413.551 99.0362C412.966 98.993 412.5 98.7782 412.154 98.3918C411.795 98.0043 411.635 97.5446 411.675 97.0127C411.713 96.4941 411.938 96.0696 412.35 95.739C412.748 95.4207 413.239 95.2831 413.824 95.3263ZM403.009 94.5288C403.608 94.5729 404.087 94.7821 404.447 95.1562C404.793 95.5427 404.947 95.9953 404.908 96.5138C404.869 97.0457 404.65 97.4775 404.251 97.809C403.839 98.1396 403.334 98.2829 402.736 98.2387C402.151 98.1956 401.685 97.9808 401.339 97.5943C400.98 97.2069 400.82 96.7472 400.859 96.2153C400.898 95.6967 401.123 95.2721 401.535 94.9415C401.933 94.6232 402.424 94.4857 403.009 94.5288ZM392.194 93.7314C392.792 93.7755 393.272 93.9846 393.632 94.3588C393.978 94.7453 394.131 95.1978 394.093 95.7164C394.054 96.2483 393.835 96.68 393.436 97.0116C393.024 97.3422 392.519 97.4854 391.921 97.4413C391.335 97.3982 390.87 97.1834 390.524 96.7969C390.165 96.4094 390.005 95.9498 390.044 95.4179C390.082 94.8993 390.308 94.4747 390.72 94.1441C391.118 93.8258 391.609 93.6882 392.194 93.7314ZM381.379 92.9339C381.977 92.9781 382.457 93.1872 382.817 93.5614C383.163 93.9478 383.316 94.4004 383.278 94.919C383.239 95.4509 383.02 95.8826 382.621 96.2142C382.209 96.5448 381.704 96.688 381.105 96.6439C380.52 96.6007 380.055 96.3859 379.709 95.9995C379.35 95.612 379.19 95.1523 379.229 94.6204C379.267 94.1018 379.492 93.6772 379.905 93.3467C380.302 93.0284 380.794 92.8908 381.379 92.9339ZM370.564 92.1365C371.162 92.1806 371.641 92.3898 372.001 92.7639C372.347 93.1504 372.501 93.6029 372.463 94.1215C372.424 94.6534 372.205 95.0852 371.806 95.4167C371.394 95.7473 370.889 95.8906 370.29 95.8464C369.705 95.8033 369.24 95.5885 368.894 95.202C368.535 94.8146 368.375 94.3549 368.414 93.823C368.452 93.3044 368.677 92.8798 369.089 92.5492C369.487 92.2309 369.979 92.0934 370.564 92.1365ZM359.749 91.3391C360.347 91.3832 360.826 91.5923 361.186 91.9665C361.532 92.353 361.686 92.8055 361.648 93.3241C361.609 93.856 361.389 94.2877 360.991 94.6193C360.579 94.9499 360.073 95.0931 359.475 95.049C358.89 95.0059 358.424 94.7911 358.079 94.4046C357.719 94.0171 357.559 93.5574 357.599 93.0256C357.637 92.507 357.862 92.0824 358.274 91.7518C358.672 91.4335 359.163 91.2959 359.749 91.3391ZM348.933 90.5416C349.532 90.5858 350.011 90.7949 350.371 91.1691C350.717 91.5555 350.871 92.0081 350.833 92.5267C350.793 93.0586 350.574 93.4903 350.176 93.8219C349.763 94.1525 349.258 94.2957 348.66 94.2516C348.075 94.2084 347.609 93.9936 347.263 93.6071C346.904 93.2197 346.744 92.76 346.784 92.2281C346.822 91.7095 347.047 91.2849 347.459 90.9543C347.857 90.6361 348.348 90.4985 348.933 90.5416ZM338.118 89.7442C338.717 89.7883 339.196 89.9975 339.556 90.3716C339.902 90.7581 340.056 91.2106 340.017 91.7292C339.978 92.2611 339.759 92.6929 339.36 93.0244C338.948 93.355 338.443 93.4983 337.845 93.4541C337.26 93.411 336.794 93.1962 336.448 92.8097C336.089 92.4222 335.929 91.9626 335.968 91.4307C336.007 90.9121 336.232 90.4875 336.644 90.1569C337.042 89.8386 337.533 89.7011 338.118 89.7442ZM327.303 88.9468C327.901 88.9909 328.381 89.2 328.741 89.5742C329.087 89.9607 329.24 90.4132 329.202 90.9318C329.163 91.4637 328.944 91.8954 328.545 92.227C328.133 92.5576 327.628 92.7008 327.029 92.6567C326.444 92.6136 325.979 92.3987 325.633 92.0123C325.274 91.6248 325.114 91.1651 325.153 90.6332C325.191 90.1147 325.417 89.6901 325.829 89.3595C326.227 89.0412 326.718 88.9036 327.303 88.9468ZM513.367 72.5844C513.965 72.6285 514.445 72.8377 514.805 73.2118C515.151 73.5983 515.304 74.0508 515.266 74.5694C515.227 75.1013 515.008 75.533 514.609 75.8646C514.197 76.1952 513.692 76.3385 513.093 76.2943C512.508 76.2512 512.043 76.0364 511.697 75.6499C511.338 75.2624 511.178 74.8028 511.217 74.2709C511.255 73.7523 511.481 73.3277 511.893 72.9971C512.29 72.6788 512.782 72.5413 513.367 72.5844ZM502.552 71.787C503.15 71.8311 503.629 72.0402 503.99 72.4144C504.335 72.8009 504.489 73.2534 504.451 73.772C504.412 74.3039 504.193 74.7356 503.794 75.0672C503.382 75.3978 502.877 75.541 502.278 75.4969C501.693 75.4538 501.228 75.2389 500.882 74.8525C500.523 74.465 500.363 74.0053 500.402 73.4734C500.44 72.9549 500.665 72.5303 501.077 72.1997C501.475 71.8814 501.967 71.7438 502.552 71.787ZM491.737 70.9895C492.335 71.0336 492.814 71.2428 493.174 71.617C493.52 72.0034 493.674 72.456 493.636 72.9746C493.597 73.5064 493.378 73.9382 492.979 74.2697C492.567 74.6003 492.061 74.7436 491.463 74.6995C490.878 74.6563 490.413 74.4415 490.067 74.055C489.708 73.6676 489.548 73.2079 489.587 72.676C489.625 72.1574 489.85 71.7328 490.262 71.4022C490.66 71.084 491.152 70.9464 491.737 70.9895ZM480.921 70.1921C481.52 70.2362 481.999 70.4454 482.359 70.8195C482.705 71.206 482.859 71.6585 482.821 72.1771C482.781 72.709 482.562 73.1407 482.164 73.4723C481.752 73.8029 481.246 73.9461 480.648 73.902C480.063 73.8589 479.597 73.6441 479.252 73.2576C478.892 72.8701 478.732 72.4105 478.772 71.8786C478.81 71.36 479.035 70.9354 479.447 70.6048C479.845 70.2865 480.336 70.149 480.921 70.1921ZM470.106 69.3947C470.705 69.4388 471.184 69.6479 471.544 70.0221C471.89 70.4086 472.044 70.8611 472.005 71.3797C471.966 71.9116 471.747 72.3433 471.348 72.6749C470.936 73.0055 470.431 73.1487 469.833 73.1046C469.248 73.0614 468.782 72.8466 468.436 72.4602C468.077 72.0727 467.917 71.613 467.956 71.0811C467.995 70.5625 468.22 70.138 468.632 69.8074C469.03 69.4891 469.521 69.3515 470.106 69.3947ZM459.291 68.5972C459.889 68.6413 460.369 68.8505 460.729 69.2246C461.075 69.6111 461.229 70.0637 461.19 70.5822C461.151 71.1141 460.932 71.5459 460.533 71.8774C460.121 72.208 459.616 72.3513 459.018 72.3071C458.432 72.264 457.967 72.0492 457.621 71.6627C457.262 71.2753 457.102 70.8156 457.141 70.2837C457.18 69.7651 457.405 69.3405 457.817 69.0099C458.215 68.6916 458.706 68.5541 459.291 68.5972ZM448.476 67.7998C449.074 67.8439 449.554 68.053 449.914 68.4272C450.26 68.8137 450.413 69.2662 450.375 69.7848C450.336 70.3167 450.117 70.7484 449.718 71.08C449.306 71.4106 448.801 71.5538 448.202 71.5097C447.617 71.4666 447.152 71.2518 446.806 70.8653C446.447 70.4778 446.287 70.0182 446.326 69.4863C446.364 68.9677 446.59 68.5431 447.002 68.2125C447.399 67.8942 447.891 67.7566 448.476 67.7998ZM437.661 67.0023C438.259 67.0465 438.738 67.2556 439.099 67.6298C439.444 68.0162 439.598 68.4688 439.56 68.9874C439.521 69.5193 439.302 69.951 438.903 70.2826C438.491 70.6132 437.986 70.7564 437.387 70.7123C436.802 70.6691 436.337 70.4543 435.991 70.0678C435.632 69.6804 435.472 69.2207 435.511 68.6888C435.549 68.1702 435.774 67.7456 436.186 67.4151C436.584 67.0968 437.076 66.9592 437.661 67.0023ZM426.846 66.2049C427.444 66.249 427.923 66.4582 428.283 66.8323C428.629 67.2188 428.783 67.6713 428.745 68.1899C428.706 68.7218 428.487 69.1536 428.088 69.4851C427.676 69.8157 427.17 69.959 426.572 69.9148C425.987 69.8717 425.521 69.6569 425.176 69.2704C424.817 68.883 424.657 68.4233 424.696 67.8914C424.734 67.3728 424.959 66.9482 425.371 66.6176C425.769 66.2993 426.261 66.1618 426.846 66.2049ZM416.03 65.4075C416.629 65.4516 417.108 65.6607 417.468 66.0349C417.814 66.4214 417.968 66.8739 417.93 67.3925C417.89 67.9244 417.671 68.3561 417.273 68.6877C416.86 69.0183 416.355 69.1615 415.757 69.1174C415.172 69.0743 414.706 68.8595 414.36 68.473C414.001 68.0855 413.841 67.6258 413.881 67.094C413.919 66.5754 414.144 66.1508 414.556 65.8202C414.954 65.5019 415.445 65.3643 416.03 65.4075ZM405.215 64.61C405.814 64.6542 406.293 64.8633 406.653 65.2375C406.999 65.6239 407.153 66.0765 407.114 66.5951C407.075 67.127 406.856 67.5587 406.457 67.8903C406.045 68.2209 405.54 68.3641 404.942 68.32C404.357 68.2768 403.891 68.062 403.545 67.6755C403.186 67.2881 403.026 66.8284 403.065 66.2965C403.104 65.7779 403.329 65.3533 403.741 65.0227C404.139 64.7045 404.63 64.5669 405.215 64.61ZM394.4 63.8126C394.998 63.8567 395.478 64.0659 395.838 64.44C396.184 64.8265 396.337 65.279 396.299 65.7976C396.26 66.3295 396.041 66.7612 395.642 67.0928C395.23 67.4234 394.725 67.5667 394.127 67.5225C393.541 67.4794 393.076 67.2646 392.73 66.8781C392.371 66.4906 392.211 66.031 392.25 65.4991C392.288 64.9805 392.514 64.5559 392.926 64.2253C393.324 63.907 393.815 63.7695 394.4 63.8126ZM383.585 63.0152C384.183 63.0593 384.663 63.2684 385.023 63.6426C385.369 64.0291 385.522 64.4816 385.484 65.0002C385.445 65.5321 385.226 65.9638 384.827 66.2954C384.415 66.626 383.91 66.7692 383.311 66.7251C382.726 66.682 382.261 66.4671 381.915 66.0807C381.556 65.6932 381.396 65.2335 381.435 64.7016C381.473 64.1831 381.698 63.7585 382.111 63.4279C382.508 63.1096 383 62.972 383.585 63.0152ZM515.573 42.6656C516.171 42.7097 516.651 42.9189 517.011 43.293C517.357 43.6795 517.51 44.1321 517.472 44.6506C517.433 45.1825 517.214 45.6143 516.815 45.9458C516.403 46.2764 515.898 46.4197 515.299 46.3755C514.714 46.3324 514.249 46.1176 513.903 45.7311C513.544 45.3437 513.384 44.884 513.423 44.3521C513.461 43.8335 513.687 43.4089 514.099 43.0783C514.496 42.76 514.988 42.6225 515.573 42.6656ZM504.758 41.8682C505.356 41.9123 505.835 42.1214 506.196 42.4956C506.541 42.8821 506.695 43.3346 506.657 43.8532C506.618 44.3851 506.399 44.8168 506 45.1484C505.588 45.479 505.083 45.6222 504.484 45.5781C503.899 45.535 503.434 45.3202 503.088 44.9337C502.729 44.5462 502.569 44.0866 502.608 43.5547C502.646 43.0361 502.871 42.6115 503.283 42.2809C503.681 41.9626 504.173 41.825 504.758 41.8682ZM493.943 41.0707C494.541 41.1149 495.02 41.324 495.38 41.6982C495.726 42.0846 495.88 42.5372 495.842 43.0558C495.803 43.5877 495.584 44.0194 495.185 44.351C494.773 44.6816 494.267 44.8248 493.669 44.7807C493.084 44.7375 492.619 44.5227 492.273 44.1362C491.914 43.7488 491.754 43.2891 491.793 42.7572C491.831 42.2386 492.056 41.814 492.468 41.4835C492.866 41.1652 493.358 41.0276 493.943 41.0707Z" fill="white"/>
</g>
<defs>
<clipPath id="clip0_2_4">
<rect width="400" height="932" fill="white"/>
</clipPath>
</defs>
</svg>
