<svg xmlns="http://www.w3.org/2000/svg" version="1.1" xmlns:xlink="http://www.w3.org/1999/xlink" xmlns:svgjs="http://svgjs.com/svgjs" width="1920" height="1080" preserveAspectRatio="none" viewBox="0 0 1920 1080"><g mask="url(&quot;#SvgjsMask1118&quot;)" fill="none"><rect width="1920" height="1080" x="0" y="0" fill="rgba(248, 249, 255, 1)"></rect><path d="M57.67 -120.37L190.18 -43.87L190.18 109.13L57.67 185.63L-74.84 109.13L-74.84 -43.87zM190.18 568.13L322.68 644.63L322.68 797.63L190.18 874.13L57.67 797.63L57.67 644.63zM190.18 1027.13L322.68 1103.63L322.68 1256.63L190.18 1333.13L57.67 1256.63L57.67 1103.63zM322.68 -120.37L455.19 -43.87L455.19 109.13L322.68 185.63L190.18 109.13L190.18 -43.87zM322.68 797.63L455.19 874.13L455.19 1027.13L322.68 1103.63L190.18 1027.13L190.18 874.13zM455.19 1027.13L587.69 1103.63L587.69 1256.63L455.19 1333.13L322.68 1256.63L322.68 1103.63zM587.69 -120.37L720.2 -43.87L720.2 109.13L587.69 185.63L455.19 109.13L455.19 -43.87zM852.7 797.63L985.21 874.13L985.21 1027.13L852.7 1103.63L720.2 1027.13L720.2 874.13zM1515.23 568.13L1647.74 644.63L1647.74 797.63L1515.23 874.13L1382.73 797.63L1382.73 644.63zM1647.74 -120.37L1780.24 -43.87L1780.24 109.13L1647.74 185.63L1515.23 109.13L1515.23 -43.87zM1780.24 568.13L1912.75 644.63L1912.75 797.63L1780.24 874.13L1647.74 797.63L1647.74 644.63zM1780.24 1027.13L1912.75 1103.63L1912.75 1256.63L1780.24 1333.13L1647.74 1256.63L1647.74 1103.63zM2045.25 109.13L2177.76 185.63L2177.76 338.63L2045.25 415.13L1912.75 338.63L1912.75 185.63zM2045.25 568.13L2177.76 644.63L2177.76 797.63L2045.25 874.13L1912.75 797.63L1912.75 644.63z" stroke="rgba(235, 239, 255, 1)" stroke-width="2"></path><path d="M42.37 -120.37 a15.3 15.3 0 1 0 30.6 0 a15.3 15.3 0 1 0 -30.6 0zM174.88 -43.87 a15.3 15.3 0 1 0 30.6 0 a15.3 15.3 0 1 0 -30.6 0zM174.88 109.13 a15.3 15.3 0 1 0 30.6 0 a15.3 15.3 0 1 0 -30.6 0zM42.37 185.63 a15.3 15.3 0 1 0 30.6 0 a15.3 15.3 0 1 0 -30.6 0zM-90.14 109.13 a15.3 15.3 0 1 0 30.6 0 a15.3 15.3 0 1 0 -30.6 0zM-90.14 -43.87 a15.3 15.3 0 1 0 30.6 0 a15.3 15.3 0 1 0 -30.6 0zM174.88 568.13 a15.3 15.3 0 1 0 30.6 0 a15.3 15.3 0 1 0 -30.6 0zM307.38 644.63 a15.3 15.3 0 1 0 30.6 0 a15.3 15.3 0 1 0 -30.6 0zM307.38 797.63 a15.3 15.3 0 1 0 30.6 0 a15.3 15.3 0 1 0 -30.6 0zM174.88 874.13 a15.3 15.3 0 1 0 30.6 0 a15.3 15.3 0 1 0 -30.6 0zM42.37 797.63 a15.3 15.3 0 1 0 30.6 0 a15.3 15.3 0 1 0 -30.6 0zM42.37 644.63 a15.3 15.3 0 1 0 30.6 0 a15.3 15.3 0 1 0 -30.6 0zM174.88 1027.13 a15.3 15.3 0 1 0 30.6 0 a15.3 15.3 0 1 0 -30.6 0zM307.38 1103.63 a15.3 15.3 0 1 0 30.6 0 a15.3 15.3 0 1 0 -30.6 0zM307.38 1256.63 a15.3 15.3 0 1 0 30.6 0 a15.3 15.3 0 1 0 -30.6 0zM174.88 1333.13 a15.3 15.3 0 1 0 30.6 0 a15.3 15.3 0 1 0 -30.6 0zM42.37 1256.63 a15.3 15.3 0 1 0 30.6 0 a15.3 15.3 0 1 0 -30.6 0zM42.37 1103.63 a15.3 15.3 0 1 0 30.6 0 a15.3 15.3 0 1 0 -30.6 0zM307.38 -120.37 a15.3 15.3 0 1 0 30.6 0 a15.3 15.3 0 1 0 -30.6 0zM439.89 -43.87 a15.3 15.3 0 1 0 30.6 0 a15.3 15.3 0 1 0 -30.6 0zM439.89 109.13 a15.3 15.3 0 1 0 30.6 0 a15.3 15.3 0 1 0 -30.6 0zM307.38 185.63 a15.3 15.3 0 1 0 30.6 0 a15.3 15.3 0 1 0 -30.6 0zM439.89 874.13 a15.3 15.3 0 1 0 30.6 0 a15.3 15.3 0 1 0 -30.6 0zM439.89 1027.13 a15.3 15.3 0 1 0 30.6 0 a15.3 15.3 0 1 0 -30.6 0zM572.39 1103.63 a15.3 15.3 0 1 0 30.6 0 a15.3 15.3 0 1 0 -30.6 0zM572.39 1256.63 a15.3 15.3 0 1 0 30.6 0 a15.3 15.3 0 1 0 -30.6 0zM439.89 1333.13 a15.3 15.3 0 1 0 30.6 0 a15.3 15.3 0 1 0 -30.6 0zM572.39 -120.37 a15.3 15.3 0 1 0 30.6 0 a15.3 15.3 0 1 0 -30.6 0zM704.9 -43.87 a15.3 15.3 0 1 0 30.6 0 a15.3 15.3 0 1 0 -30.6 0zM704.9 109.13 a15.3 15.3 0 1 0 30.6 0 a15.3 15.3 0 1 0 -30.6 0zM572.39 185.63 a15.3 15.3 0 1 0 30.6 0 a15.3 15.3 0 1 0 -30.6 0zM837.4 797.63 a15.3 15.3 0 1 0 30.6 0 a15.3 15.3 0 1 0 -30.6 0zM969.91 874.13 a15.3 15.3 0 1 0 30.6 0 a15.3 15.3 0 1 0 -30.6 0zM969.91 1027.13 a15.3 15.3 0 1 0 30.6 0 a15.3 15.3 0 1 0 -30.6 0zM837.4 1103.63 a15.3 15.3 0 1 0 30.6 0 a15.3 15.3 0 1 0 -30.6 0zM704.9 1027.13 a15.3 15.3 0 1 0 30.6 0 a15.3 15.3 0 1 0 -30.6 0zM704.9 874.13 a15.3 15.3 0 1 0 30.6 0 a15.3 15.3 0 1 0 -30.6 0zM1499.93 568.13 a15.3 15.3 0 1 0 30.6 0 a15.3 15.3 0 1 0 -30.6 0zM1632.44 644.63 a15.3 15.3 0 1 0 30.6 0 a15.3 15.3 0 1 0 -30.6 0zM1632.44 797.63 a15.3 15.3 0 1 0 30.6 0 a15.3 15.3 0 1 0 -30.6 0zM1499.93 874.13 a15.3 15.3 0 1 0 30.6 0 a15.3 15.3 0 1 0 -30.6 0zM1367.43 797.63 a15.3 15.3 0 1 0 30.6 0 a15.3 15.3 0 1 0 -30.6 0zM1367.43 644.63 a15.3 15.3 0 1 0 30.6 0 a15.3 15.3 0 1 0 -30.6 0zM1632.44 -120.37 a15.3 15.3 0 1 0 30.6 0 a15.3 15.3 0 1 0 -30.6 0zM1764.94 -43.87 a15.3 15.3 0 1 0 30.6 0 a15.3 15.3 0 1 0 -30.6 0zM1764.94 109.13 a15.3 15.3 0 1 0 30.6 0 a15.3 15.3 0 1 0 -30.6 0zM1632.44 185.63 a15.3 15.3 0 1 0 30.6 0 a15.3 15.3 0 1 0 -30.6 0zM1499.93 109.13 a15.3 15.3 0 1 0 30.6 0 a15.3 15.3 0 1 0 -30.6 0zM1499.93 -43.87 a15.3 15.3 0 1 0 30.6 0 a15.3 15.3 0 1 0 -30.6 0zM1764.94 568.13 a15.3 15.3 0 1 0 30.6 0 a15.3 15.3 0 1 0 -30.6 0zM1897.45 644.63 a15.3 15.3 0 1 0 30.6 0 a15.3 15.3 0 1 0 -30.6 0zM1897.45 797.63 a15.3 15.3 0 1 0 30.6 0 a15.3 15.3 0 1 0 -30.6 0zM1764.94 874.13 a15.3 15.3 0 1 0 30.6 0 a15.3 15.3 0 1 0 -30.6 0zM1764.94 1027.13 a15.3 15.3 0 1 0 30.6 0 a15.3 15.3 0 1 0 -30.6 0zM1897.45 1103.63 a15.3 15.3 0 1 0 30.6 0 a15.3 15.3 0 1 0 -30.6 0zM1897.45 1256.63 a15.3 15.3 0 1 0 30.6 0 a15.3 15.3 0 1 0 -30.6 0zM1764.94 1333.13 a15.3 15.3 0 1 0 30.6 0 a15.3 15.3 0 1 0 -30.6 0zM1632.44 1256.63 a15.3 15.3 0 1 0 30.6 0 a15.3 15.3 0 1 0 -30.6 0zM1632.44 1103.63 a15.3 15.3 0 1 0 30.6 0 a15.3 15.3 0 1 0 -30.6 0zM2029.95 109.13 a15.3 15.3 0 1 0 30.6 0 a15.3 15.3 0 1 0 -30.6 0zM2162.46 185.63 a15.3 15.3 0 1 0 30.6 0 a15.3 15.3 0 1 0 -30.6 0zM2162.46 338.63 a15.3 15.3 0 1 0 30.6 0 a15.3 15.3 0 1 0 -30.6 0zM2029.95 415.13 a15.3 15.3 0 1 0 30.6 0 a15.3 15.3 0 1 0 -30.6 0zM1897.45 338.63 a15.3 15.3 0 1 0 30.6 0 a15.3 15.3 0 1 0 -30.6 0zM1897.45 185.63 a15.3 15.3 0 1 0 30.6 0 a15.3 15.3 0 1 0 -30.6 0zM2029.95 568.13 a15.3 15.3 0 1 0 30.6 0 a15.3 15.3 0 1 0 -30.6 0zM2162.46 644.63 a15.3 15.3 0 1 0 30.6 0 a15.3 15.3 0 1 0 -30.6 0zM2162.46 797.63 a15.3 15.3 0 1 0 30.6 0 a15.3 15.3 0 1 0 -30.6 0zM2029.95 874.13 a15.3 15.3 0 1 0 30.6 0 a15.3 15.3 0 1 0 -30.6 0z" fill="rgba(235, 239, 255, 1)"></path><path d="M502.21 -18.01L675.42 81.99L675.42 281.99L502.21 381.99L329 281.99L329 81.99zM675.42 881.99L848.63 981.99L848.63 1181.99L675.42 1281.99L502.21 1181.99L502.21 981.99zM1021.84 281.99L1195.05 381.99L1195.05 581.99L1021.84 681.99L848.63 581.99L848.63 381.99zM1195.05 -18.01L1368.26 81.99L1368.26 281.99L1195.05 381.99L1021.84 281.99L1021.84 81.99zM1714.68 281.99L1887.89 381.99L1887.89 581.99L1714.68 681.99L1541.47 581.99L1541.47 381.99zM1541.47 1181.99L1714.68 1281.99L1714.68 1481.99L1541.47 1581.99L1368.26 1481.99L1368.26 1281.99zM1887.89 -18.01L2061.1 81.99L2061.1 281.99L1887.89 381.99L1714.68 281.99L1714.68 81.99z" stroke="rgba(222, 229, 255, 1)" stroke-width="2"></path></g><defs><mask id="SvgjsMask1118"><rect width="1920" height="1080" fill="#ffffff"></rect></mask></defs></svg>