<svg width="600" height="932" viewBox="0 0 600 932" fill="none" xmlns="http://www.w3.org/2000/svg">
<g clip-path="url(#clip0_9_12)">
<rect width="600" height="932" fill="white"/>
<rect x="67.4434" y="-65.4235" width="264" height="363" rx="30" transform="rotate(35.4708 67.4434 -65.4235)" fill="#F3AF2A"/>
<rect x="39.4434" y="-58.4235" width="264" height="363" rx="30" transform="rotate(35.4708 39.4434 -58.4235)" fill="#F3AF2A"/>
<rect x="13.4434" y="-57.4235" width="264" height="363" rx="30" transform="rotate(35.4708 13.4434 -57.4235)" fill="#F3AF2A"/>
<path d="M154 0H600V180C600 213.137 573.137 240 540 240H154V0Z" fill="#F3AF2A"/>
<g clip-path="url(#clip1_9_12)">
<path d="M-55 65C-55 9.77152 -10.2285 -35 45 -35H165V206C165 244.66 133.66 276 95 276H45C-10.2285 276 -55 231.228 -55 176V65Z" fill="#0A4071"/>
<g opacity="0.8">
<path d="M50.7903 234.878H33.4605V251.052H50.7903V234.878Z" fill="#F3AF2A"/>
<path opacity="0.44" d="M43.75 234.878H40.5565V239.607H43.75V234.878Z" fill="white"/>
<path d="M48.2779 245.532H45.0531V248.795H48.2779V245.532Z" fill="white"/>
<path d="M99.9859 251.003H31.0836C27.5811 251.003 24.7417 253.876 24.7417 257.419C24.7417 260.963 27.5811 263.836 31.0836 263.836H99.9859C103.488 263.836 106.328 260.963 106.328 257.419C106.328 253.876 103.488 251.003 99.9859 251.003Z" fill="#E6E6E6"/>
<path d="M51.6 233.672C51.6 233.672 39.2741 248.028 48.3543 252.831C54.6302 256.15 61.608 251.576 61.608 251.576L51.6 233.672Z" fill="#68E1FD"/>
<path opacity="0.08" d="M51.6 233.672C51.6 233.672 39.2741 248.028 48.3543 252.831C54.6302 256.15 61.608 251.576 61.608 251.576L51.6 233.672Z" fill="black"/>
<path d="M62.0945 231.475L62.3725 226.7C62.3725 226.7 62.72 223.634 64.2281 224.19C65.7363 224.745 67.3244 227.762 66.5077 228.701C66.0664 229.207 65.6042 228.898 65.01 228.954C64.4992 229.003 64.5895 228.926 64.5895 229.442V231.264L62.0945 231.475Z" fill="#F4A28C"/>
<path d="M60.5864 231.225C60.5864 231.225 51.1413 230.374 49.9077 236.823C48.6741 243.271 57.4624 255.457 57.4624 255.457L69.7083 254.976C69.7083 254.976 88.7374 227.927 60.5864 231.225Z" fill="#68E1FD"/>
<path opacity="0.08" d="M68.9159 233.83C68.9159 233.83 61.5941 238.303 65.1873 245.113C67.4947 249.484 61.5941 255.31 61.5941 255.31L69.7082 254.99C69.7082 254.99 72.6828 250.528 73.2771 248.791C73.8713 247.054 68.9159 233.83 68.9159 233.83Z" fill="black"/>
<path d="M57.4623 255.454L54.6823 279.809H57.4032L63.481 260.26L70.3302 279.813H73.4473L69.7117 254.972L57.4623 255.454Z" fill="#24285B"/>
<path d="M62.0945 229.481H63.5679C63.5679 229.481 63.8876 226.728 64.9301 226.201C65.9726 225.673 67.0151 224.678 66.0873 223.768C65.1595 222.857 63.8459 221.806 62.303 222.889C60.7601 223.972 60.2145 226.58 62.0945 229.481Z" fill="#24285B"/>
<path d="M60.3223 225.557L68.3773 225.955L67.4599 224.583C67.4599 224.583 66.9595 221.366 65.1247 220.888C63.2899 220.41 60.086 221.486 60.3223 225.557Z" fill="#F3AF2A"/>
<path d="M36.1814 217.221H15.3627V280.818H36.1814V217.221Z" fill="#E6E6E6"/>
<path opacity="0.08" d="M39.2603 251.003H36.1849V263.836H39.2603V251.003Z" fill="black"/>
<path d="M32.4006 224.123H19.1505V242.336H32.4006V224.123Z" fill="#24285B"/>
<path d="M23.2544 231.601C24.2716 231.601 25.0962 230.767 25.0962 229.738C25.0962 228.709 24.2716 227.874 23.2544 227.874C22.2372 227.874 21.4127 228.709 21.4127 229.738C21.4127 230.767 22.2372 231.601 23.2544 231.601Z" fill="#F3AF2A"/>
<path d="M23.2544 237.572C24.2716 237.572 25.0962 236.737 25.0962 235.708C25.0962 234.679 24.2716 233.845 23.2544 233.845C22.2372 233.845 21.4127 234.679 21.4127 235.708C21.4127 236.737 22.2372 237.572 23.2544 237.572Z" fill="#68E1FD"/>
<path opacity="0.17" d="M30.3747 227.874H26.8684V237.568H30.3747V227.874Z" fill="white"/>
<path d="M99.0581 234.878H81.7283V251.052H99.0581V234.878Z" fill="#F3AF2A"/>
<path opacity="0.44" d="M92.0212 234.878H88.8277V239.607H92.0212V234.878Z" fill="white"/>
<path d="M96.5457 245.532H93.3209V248.795H96.5457V245.532Z" fill="white"/>
<path d="M125.725 264.68H108.395V280.854H125.725V264.68Z" fill="#F3AF2A"/>
<path opacity="0.44" d="M118.688 264.68H115.495V269.409H118.688V264.68Z" fill="white"/>
<path d="M123.213 275.333H119.988V278.596H123.213V275.333Z" fill="white"/>
<path d="M67.3279 235.694C67.6232 232.944 70.6395 231.352 72.9747 232.793C74.6115 233.802 76.2447 235.571 77.1447 238.651C78.8822 244.684 78.0309 248.257 89.6548 248.436V251.667C89.6548 251.667 64.9614 257.743 67.3279 235.694Z" fill="#68E1FD"/>
<path opacity="0.39" d="M67.3279 235.694C67.6232 232.944 70.6395 231.352 72.9747 232.793C74.6115 233.802 76.2447 235.571 77.1447 238.651C78.8822 244.684 78.0309 248.257 89.6548 248.436V251.667C89.6548 251.667 64.9614 257.743 67.3279 235.694Z" fill="white"/>
<path d="M89.6408 249.02C89.6408 249.02 92.671 248.584 92.9664 249.48C93.2618 250.377 93.0567 251.27 89.6408 251.003V249.02Z" fill="#F4A28C"/>
<path opacity="0.08" d="M38.4923 234.878L40.8587 251.003H36.1849V234.878H38.4923Z" fill="black"/>
<path d="M101.011 255.454H92.0212V280.818H101.011V255.454Z" fill="#E6E6E6"/>
<path opacity="0.08" d="M97.9739 260.186C99.6512 260.186 101.011 258.811 101.011 257.114C101.011 255.416 99.6512 254.041 97.9739 254.041C96.2965 254.041 94.9367 255.416 94.9367 257.114C94.9367 258.811 96.2965 260.186 97.9739 260.186Z" fill="black"/>
<path d="M85.5751 218.553V225.012H89.7034L90.6034 227.583L91.6702 225.012H95.795V218.553H85.5751Z" fill="#E6E6E6"/>
<path opacity="0.12" d="M90.1725 223.226C90.1266 223.224 90.0817 223.213 90.0408 223.191C90 223.17 89.9643 223.14 89.9362 223.103L88.8555 221.697C88.8297 221.663 88.8107 221.624 88.7997 221.583C88.7886 221.542 88.7856 221.499 88.791 221.457C88.7963 221.415 88.8098 221.374 88.8307 221.337C88.8516 221.3 88.8795 221.267 88.9128 221.241C88.9461 221.215 88.9842 221.196 89.0249 221.185C89.0655 221.174 89.1079 221.171 89.1497 221.176C89.1915 221.181 89.2318 221.195 89.2684 221.216C89.305 221.237 89.3371 221.266 89.3629 221.299L90.2107 222.403L92.2957 220.118C92.3249 220.088 92.3597 220.064 92.3982 220.047C92.4367 220.031 92.4781 220.022 92.5199 220.022C92.5617 220.022 92.603 220.031 92.6415 220.047C92.68 220.064 92.7149 220.088 92.744 220.118C92.7752 220.147 92.8005 220.181 92.8183 220.22C92.8361 220.258 92.8461 220.3 92.8477 220.343C92.8493 220.385 92.8425 220.428 92.8277 220.468C92.8129 220.508 92.7903 220.544 92.7614 220.575L90.4158 223.138C90.3834 223.169 90.3451 223.193 90.3032 223.208C90.2614 223.223 90.2169 223.229 90.1725 223.226V223.226Z" fill="black"/>
<path d="M112.586 250.194V256.653H116.711L117.611 259.227L118.678 256.653H122.803V250.194H112.586Z" fill="#E6E6E6"/>
<path opacity="0.12" d="M117.18 254.867C117.133 254.865 117.088 254.853 117.046 254.831C117.005 254.809 116.969 254.778 116.94 254.74L115.86 253.334C115.808 253.266 115.784 253.18 115.795 253.094C115.806 253.009 115.85 252.931 115.917 252.878C115.984 252.826 116.07 252.802 116.154 252.813C116.238 252.824 116.315 252.868 116.367 252.936L117.215 254.041L119.3 251.755C119.327 251.72 119.361 251.69 119.401 251.669C119.44 251.648 119.483 251.635 119.527 251.631C119.571 251.628 119.616 251.633 119.658 251.648C119.7 251.663 119.738 251.686 119.771 251.717C119.803 251.748 119.829 251.785 119.846 251.826C119.864 251.867 119.873 251.912 119.872 251.957C119.872 252.002 119.862 252.046 119.844 252.087C119.825 252.128 119.799 252.165 119.766 252.195L117.42 254.761C117.357 254.827 117.271 254.865 117.18 254.867Z" fill="black"/>
</g>
</g>
<rect x="-55" y="221" width="70" height="711" rx="35" fill="#0A4071"/>
<path d="M-62 293.5C-62 272.237 -44.763 255 -23.5 255V255C-2.23704 255 15 272.237 15 293.5V920C15 925.523 10.5228 930 5 930H-12C-39.6142 930 -62 907.614 -62 880V293.5Z" fill="#0A4071"/>
<rect x="-8" y="865" width="18" height="60" rx="9" fill="#F3AF2A"/>
</g>
<defs>
<clipPath id="clip0_9_12">
<rect width="600" height="932" fill="white"/>
</clipPath>
<clipPath id="clip1_9_12">
<path d="M-55 65C-55 9.77152 -10.2285 -35 45 -35H165V206C165 244.66 133.66 276 95 276H45C-10.2285 276 -55 231.228 -55 176V65Z" fill="white"/>
</clipPath>
</defs>
</svg>
