<svg width="700" height="932" viewBox="0 0 700 932" fill="none" xmlns="http://www.w3.org/2000/svg">
<g clip-path="url(#clip0_101_2)">
<rect width="700" height="932" fill="white"/>
<g clip-path="url(#clip1_101_2)">
<rect x="704.904" y="-115.001" width="504.105" height="771.467" rx="30" transform="rotate(82.5212 704.904 -115.001)" fill="#FFFBF5"/>
<g opacity="0.15">
<g clip-path="url(#clip2_101_2)">
<path d="M787.624 -44.3729L41.9661 -66.9544L26.1348 455.806L771.793 478.387L787.624 -44.3729Z" fill="#B7ECF0"/>
<path fill-rule="evenodd" clip-rule="evenodd" d="M770.793 478.387L777.13 269.123L408.883 467.427L770.793 478.387Z" fill="#86B2B5"/>
<path fill-rule="evenodd" clip-rule="evenodd" d="M30.9924 262.385L610.489 -49.707L40.9661 -66.9544L30.9924 262.385Z" fill="#86B2B5"/>
<path fill-rule="evenodd" clip-rule="evenodd" d="M34.1312 158.739L42.1896 163.735L121.677 212.967C204.16 168.534 286.589 124.152 369.073 79.7184L371.906 -13.845L373.21 -56.8927L40.9661 -66.9544L34.1312 158.739Z" fill="#AADCE0"/>
<path fill-rule="evenodd" clip-rule="evenodd" d="M84.7469 48.7901L127.344 25.8402L124.51 119.404L121.677 212.967C204.16 168.534 286.589 124.152 369.073 79.7184L371.906 -13.845L373.21 -56.8928L161.23 -63.3123L84.7469 48.7901Z" fill="#95C4C7"/>
<path fill-rule="evenodd" clip-rule="evenodd" d="M38.3313 20.0478L84.747 48.7901L161.23 -63.3123L40.9661 -66.9544L38.3313 20.0478Z" fill="#B7ECF0"/>
<path fill-rule="evenodd" clip-rule="evenodd" d="M124.457 119.402L121.623 212.965C204.107 168.532 144.926 200.43 227.357 155.995L230.19 62.4315L233.022 -31.0786L127.29 25.8386L124.457 119.402Z" fill="#95C4C7"/>
<path fill-rule="evenodd" clip-rule="evenodd" d="M180.772 51.8583L180.182 71.3285C197.309 62.0764 185.007 68.6982 202.185 59.5011L202.774 40.0309L203.364 20.5608L181.36 32.4415L180.772 51.8583Z" fill="#B7ECF0"/>
<path fill-rule="evenodd" clip-rule="evenodd" d="M154.217 66.164L153.627 85.6341C170.753 76.3821 158.452 83.0039 175.629 73.8068L176.219 54.3366L176.809 34.8665L154.805 46.7472L154.217 66.164Z" fill="#B7ECF0"/>
<path fill-rule="evenodd" clip-rule="evenodd" d="M179.396 97.3064L178.806 116.777C195.932 107.525 183.631 114.146 200.808 104.949L201.398 85.4791L201.988 66.0089L179.986 77.8363L179.396 97.3064Z" fill="#B7ECF0"/>
<path fill-rule="evenodd" clip-rule="evenodd" d="M152.84 111.612L152.251 131.082C169.377 121.83 157.075 128.452 174.253 119.255L174.843 99.7848L175.432 80.3146L153.43 92.142L152.84 111.612Z" fill="#B7ECF0"/>
<path fill-rule="evenodd" clip-rule="evenodd" d="M265.57 70.0701L263.559 136.482C322.089 104.938 280.088 127.586 338.672 96.0433L340.683 29.6314L342.694 -36.7805L267.581 3.65823L265.57 70.0701Z" fill="#729EA1"/>
<path fill-rule="evenodd" clip-rule="evenodd" d="M280.9 60.2832C337.414 95.3111 282.156 61.0687 338.672 96.0433L340.683 29.6314L342.694 -36.7805L282.863 -4.52845L280.9 60.2832V60.2832Z" fill="#B7ECF0"/>
<path d="M290.383 19.9926C292.854 20.0674 294.918 18.1219 294.993 15.6473C295.068 13.1726 293.126 11.1058 290.655 11.031C288.184 10.9561 286.12 12.9016 286.045 15.3763C285.97 17.851 287.912 19.9177 290.383 19.9926Z" fill="#95C4C7"/>
<path fill-rule="evenodd" clip-rule="evenodd" d="M627.201 176.54C613.558 172.87 602.37 174.4 602.2 180.001C602.03 185.602 612.945 193.087 626.588 196.757C640.231 200.427 651.419 198.897 651.589 193.296C651.759 187.695 640.843 180.21 627.201 176.54Z" fill="#A9DADE"/>
<path fill-rule="evenodd" clip-rule="evenodd" d="M423.232 56.9585L411.458 49.661L411.82 37.7122C411.878 35.7919 410.329 34.1432 408.412 34.0851C406.494 34.0271 404.848 35.579 404.79 37.4993L404.305 53.5022L419.166 62.7085C419.27 62.8184 418.642 62.4256 419.531 62.9865C420.421 63.5473 423.355 63.476 424.364 61.8514C425.376 60.1202 424.854 57.9687 423.232 56.9585Z" fill="#FCD1C0"/>
<path fill-rule="evenodd" clip-rule="evenodd" d="M408.412 34.0851C406.494 34.0271 404.848 35.579 404.79 37.4993L404.473 47.9545C404.459 48.4346 406.044 48.9097 407.961 48.9678C409.878 49.0259 411.488 48.7009 411.504 48.1674L411.82 37.7122C411.88 35.7385 410.329 34.1432 408.412 34.0851Z" fill="#5D97A6"/>
<path fill-rule="evenodd" clip-rule="evenodd" d="M404.001 82.9118L399.124 85.5405L398.965 90.7681L408.384 96.6061L413.262 93.9774C413.599 88.1146 411.012 87.2887 404.001 82.9118Z" fill="#BFA675"/>
<path fill-rule="evenodd" clip-rule="evenodd" d="M399.124 85.5405L398.965 90.7681L408.384 96.6061C408.722 90.7432 406.188 89.919 399.124 85.5405Z" fill="#AB9363"/>
<path fill-rule="evenodd" clip-rule="evenodd" d="M404.864 54.4267L402.425 55.7411L399.986 57.0554L399.207 82.7667L399.123 85.5405C399.091 86.6074 401.194 87.5787 403.857 87.6594C406.52 87.74 408.677 86.951 408.71 85.8308L408.794 83.057L409.349 64.7604L409.575 57.2924L407.22 55.8329L404.864 54.4267Z" fill="#5D97A6"/>
<path fill-rule="evenodd" clip-rule="evenodd" d="M397.632 30.9289L393.297 33.2536C390.099 34.9721 387.365 39.0005 387.27 42.1477L386.451 69.1926L393.307 73.4046C398.374 64.5348 403.754 43.5546 408.818 34.7381L402.067 30.5827C400.708 29.6873 398.88 30.2192 397.632 30.9289Z" fill="#71B2C2"/>
<path fill-rule="evenodd" clip-rule="evenodd" d="M404.435 35.1393L400.1 37.464C396.902 39.1825 394.168 43.2109 394.073 46.3581L393.254 73.403L409.294 64.8121L410.113 37.7673C410.263 34.5683 407.686 33.4224 404.435 35.1393Z" fill="#71B2C2"/>
<path fill-rule="evenodd" clip-rule="evenodd" d="M390.615 90.1415L385.737 92.7701L385.579 97.9977L394.998 103.836L399.875 101.207C400.213 95.3442 397.627 94.465 390.615 90.1415Z" fill="#BFA675"/>
<path fill-rule="evenodd" clip-rule="evenodd" d="M385.739 92.7168L385.58 97.9444L394.999 103.782C395.335 97.9729 392.803 97.0953 385.739 92.7168Z" fill="#AB9363"/>
<path fill-rule="evenodd" clip-rule="evenodd" d="M391.479 61.603L389.04 62.9174L386.601 64.2317L385.823 89.943L385.739 92.7168C385.706 93.7836 387.809 94.755 390.472 94.8356C393.135 94.9163 395.292 94.1273 395.326 93.0071L395.41 90.2333L395.964 71.9367L396.19 64.4687L393.835 63.0092L391.479 61.603Z" fill="#71B2C2"/>
<path fill-rule="evenodd" clip-rule="evenodd" d="M405.635 62.4055L393.861 55.108L394.223 43.1592C394.281 41.2388 392.732 39.5902 390.814 39.5321C388.897 39.474 387.251 41.0259 387.192 42.9463L386.708 58.9491L401.569 68.1554C401.672 68.2654 401.045 67.8726 401.934 68.4334C402.823 68.9943 405.757 68.923 406.766 67.2984C407.831 65.5687 407.31 63.4173 405.635 62.4055Z" fill="#FCD1C0"/>
<path fill-rule="evenodd" clip-rule="evenodd" d="M390.868 39.5337C388.95 39.4756 387.304 41.0275 387.246 42.9479L386.929 53.4031C386.915 53.8832 388.5 54.3583 390.417 54.4164C392.335 54.4744 393.944 54.1494 393.96 53.616L394.276 43.1608C394.281 41.2388 392.785 39.5918 390.868 39.5337Z" fill="#5D97A6"/>
<path fill-rule="evenodd" clip-rule="evenodd" d="M388.999 18.4941L388.639 30.3896C388.607 31.4565 389.012 32.1628 389.64 32.5556L396.609 36.5574C397.55 37.1732 398.841 36.7852 399.762 36.2792L402.852 34.6108C405.181 33.4 407.08 30.5209 407.15 28.2272L407.51 16.3317L400.488 12.3282L388.999 18.4941Z" fill="#F7C6B2"/>
<path fill-rule="evenodd" clip-rule="evenodd" d="M395.714 34.3947C395.645 36.6884 397.487 37.4917 399.762 36.2792L402.851 34.6108C405.18 33.4 407.08 30.5209 407.15 28.2272L407.51 16.3317L396.021 22.4976L395.661 34.3931L395.714 34.3947Z" fill="#FCD1C0"/>
<path fill-rule="evenodd" clip-rule="evenodd" d="M391.374 65.0703L410.263 76.8013L410.735 61.2252L391.845 49.4942L391.374 65.0703Z" fill="#A18262"/>
<path fill-rule="evenodd" clip-rule="evenodd" d="M410.263 76.8013L441.48 59.9671L441.95 44.4444L410.735 61.2251L410.263 76.8013Z" fill="#C49B72"/>
<path fill-rule="evenodd" clip-rule="evenodd" d="M391.846 49.4942L410.735 61.2252L441.95 44.4444L423.007 32.7118L391.846 49.4942Z" fill="#D6AD85"/>
<path fill-rule="evenodd" clip-rule="evenodd" d="M399.692 70.2877L401.89 71.6357L402.362 56.0595L400.164 54.7115L399.692 70.2877Z" fill="#856B51"/>
<path fill-rule="evenodd" clip-rule="evenodd" d="M400.164 54.7115L402.362 56.0595L433.577 39.2787L431.379 37.9308L400.164 54.7115Z" fill="#C49B72"/>
<path fill-rule="evenodd" clip-rule="evenodd" d="M404.214 12.4945C400.31 11.1483 394.664 10.9773 391.328 13.7594C388.1 16.4914 387.185 16.7841 387.048 21.3182C387.003 22.8118 388.06 28.3966 387.992 28.8751C387.553 32.8127 393.087 29.6167 393.116 28.6565C393.198 25.936 394.908 25.8276 395.828 27.1369C396.546 28.0663 398.833 24.7185 398.807 23.81C398.817 23.49 404.125 22.4761 405.034 22.3968C408.406 21.965 409.174 14.1931 404.214 12.4945Z" fill="#735139"/>
<path fill-rule="evenodd" clip-rule="evenodd" d="M387.217 22.7649L397.705 26.7665L408.402 23.8336L408.6 17.3258C408.79 9.26938 385.802 4.35526 387.217 22.7649Z" fill="#F77620"/>
<path fill-rule="evenodd" clip-rule="evenodd" d="M408.349 23.832L397.651 26.7649C407.008 31.1594 415.817 27.2083 408.349 23.832Z" fill="#FF9E5E"/>
<path fill-rule="evenodd" clip-rule="evenodd" d="M310.895 159.486L260.44 186.683L259.965 202.365L274.513 211.349L260.478 218.879L308.202 248.408L260.478 218.879L234.961 269.309L233.722 310.223L320.012 363.665L327.436 359.672L337.901 366.183C338.526 366.682 339.153 367.075 339.889 367.417C343.624 369.079 348.865 368.543 354.665 365.355C366.265 359.033 375.974 344.751 376.482 333.234L390.465 325.702L404.855 334.627L504.897 280.741L515.52 287.309C516.145 287.809 516.772 288.201 517.508 288.544C521.243 290.206 526.43 289.669 532.284 286.482C543.939 280.108 553.704 265.721 554.106 254.2L578.926 240.856L582.401 126.116L408.764 219.632L408.329 219.886L582.4 126.169L484.965 65.769L310.895 159.486Z" fill="#A9DADE"/>
<path fill-rule="evenodd" clip-rule="evenodd" d="M334.689 296.195C322.71 302.72 312.719 317.527 312.362 329.316C312.185 335.184 314.462 339.204 318.248 340.92L336.302 352.092L367.895 305.21L351.883 295.275C348.084 292.223 341.844 292.301 334.689 296.195Z" fill="#292929"/>
<path fill-rule="evenodd" clip-rule="evenodd" d="M516.36 215.576C504.38 222.101 494.389 236.908 494.032 248.697C493.855 254.565 496.132 258.585 499.918 260.301L517.972 271.473L549.565 224.59L533.553 214.655C529.754 211.604 523.514 211.682 516.36 215.576Z" fill="#292929"/>
<path fill-rule="evenodd" clip-rule="evenodd" d="M306.649 139.496L303.095 256.85L402.781 318.6L406.335 201.245L306.649 139.496Z" fill="#C26425"/>
<path fill-rule="evenodd" clip-rule="evenodd" d="M402.781 318.6L580.807 222.76L584.361 105.406L406.335 201.245L402.781 318.6Z" fill="#F77620"/>
<path fill-rule="evenodd" clip-rule="evenodd" d="M402.781 318.6L580.807 222.76L581.444 201.743L403.416 297.636L402.781 318.6Z" fill="#C26425"/>
<path fill-rule="evenodd" clip-rule="evenodd" d="M534.413 226.748C522.434 233.273 512.443 248.08 512.086 259.869C511.729 271.657 521.144 275.894 533.123 269.369C545.102 262.844 555.093 248.037 555.45 236.248C555.805 224.512 546.393 220.223 534.413 226.748Z" fill="#333333"/>
<path fill-rule="evenodd" clip-rule="evenodd" d="M534.126 236.243C527.458 239.885 521.932 248.1 521.733 254.661C521.535 261.223 526.794 263.571 533.407 259.98C540.074 256.338 545.601 248.123 545.8 241.562C546 234.947 540.793 232.601 534.126 236.243Z" fill="#4D4D4D"/>
<path fill-rule="evenodd" clip-rule="evenodd" d="M534.749 238.558C528.787 241.794 523.819 249.172 523.641 255.04C523.614 255.946 523.696 256.75 523.886 257.503C525.483 257.605 527.416 257.129 529.476 256.017C535.438 252.781 540.406 245.403 540.583 239.535C540.611 238.628 540.529 237.825 540.338 237.072C538.744 236.917 536.81 237.392 534.749 238.558Z" fill="#696969"/>
<path fill-rule="evenodd" clip-rule="evenodd" d="M534.499 223.921C520.731 231.406 509.134 248.193 508.025 261.935L516.914 257.132C517.824 248.189 525.346 237.472 534.182 232.614C543.125 227.759 550.237 230.591 550.569 238.983L559.457 234.18C559.377 220.99 548.376 216.332 534.499 223.921Z" fill="#C26425"/>
<path fill-rule="evenodd" clip-rule="evenodd" d="M255.123 200.297L343.349 254.919L394.347 227.418L306.12 172.796C245.206 205.603 316.037 167.49 255.123 200.297Z" fill="white"/>
<path fill-rule="evenodd" clip-rule="evenodd" d="M229.039 251.831L227.773 293.652L315.998 348.327L317.265 306.506L343.349 254.919L255.123 200.297L229.039 251.831Z" fill="#E6E6E6"/>
<path fill-rule="evenodd" clip-rule="evenodd" d="M234.416 250.338L315.63 300.637L337.973 256.411L256.759 206.113L234.416 250.338Z" fill="#298787"/>
<path fill-rule="evenodd" clip-rule="evenodd" d="M227.773 293.652L315.998 348.327L316.634 327.31L228.408 272.688L227.773 293.652Z" fill="#B3B3B3"/>
<path fill-rule="evenodd" clip-rule="evenodd" d="M317.264 306.506L315.998 348.327L391.926 307.379L394.347 227.418L343.349 254.919L317.264 306.506Z" fill="#CCCCCC"/>
<path fill-rule="evenodd" clip-rule="evenodd" d="M315.998 348.327L374.582 316.785L391.926 307.379L392.56 286.415L316.635 327.31L315.998 348.327Z" fill="#B3B3B3"/>
<path fill-rule="evenodd" clip-rule="evenodd" d="M328.258 293.812L389.225 261.007L390.03 234.442L346.456 257.949L328.258 293.812Z" fill="#298787"/>
<path fill-rule="evenodd" clip-rule="evenodd" d="M352.743 307.367C340.764 313.892 330.773 328.699 330.416 340.488C330.059 352.277 339.473 356.513 351.452 349.988C363.431 343.463 373.422 328.656 373.779 316.867C374.135 305.132 364.722 300.842 352.743 307.367Z" fill="#333333"/>
<path fill-rule="evenodd" clip-rule="evenodd" d="M352.455 316.862C345.788 320.504 340.262 328.72 340.063 335.281C339.864 341.842 345.124 344.19 351.737 340.6C358.404 336.957 363.931 328.742 364.129 322.181C364.33 315.567 359.123 313.22 352.455 316.862Z" fill="#4D4D4D"/>
<path fill-rule="evenodd" clip-rule="evenodd" d="M353.078 319.177C347.116 322.413 342.148 329.791 341.97 335.659C341.943 336.566 342.025 337.369 342.216 338.122C343.812 338.224 345.745 337.749 347.805 336.636C353.767 333.4 358.735 326.022 358.913 320.154C358.94 319.248 358.858 318.444 358.668 317.691C357.073 317.536 355.139 318.011 353.078 319.177Z" fill="#696969"/>
<path fill-rule="evenodd" clip-rule="evenodd" d="M352.83 304.487C339.063 311.972 327.466 328.759 326.357 342.501L335.245 337.698C336.156 328.755 343.677 318.038 352.514 313.18C361.458 308.272 368.568 311.157 368.9 319.549L377.789 314.746C377.707 301.609 366.706 296.951 352.83 304.487Z" fill="#B3B3B3"/>
<path fill-rule="evenodd" clip-rule="evenodd" d="M307.763 301.627L287.92 289.707C286.767 289.031 285.841 289.697 285.794 291.244L285.489 301.326C285.443 302.82 286.347 304.662 287.446 305.336L307.291 317.203C308.444 317.879 309.37 317.213 309.417 315.666L309.722 305.584C309.821 304.092 308.916 302.302 307.763 301.627Z" fill="#298787"/>
<path fill-rule="evenodd" clip-rule="evenodd" d="M256.268 269.848L236.372 257.926C235.219 257.25 234.293 257.916 234.246 259.463L233.941 269.545C233.895 271.039 234.799 272.881 235.898 273.555L255.743 285.422C256.896 286.098 257.822 285.432 257.869 283.885L258.174 273.803C258.273 272.311 257.421 270.523 256.268 269.848Z" fill="#298787"/>
<path fill-rule="evenodd" clip-rule="evenodd" d="M255.056 167.299L254.57 183.355L354.255 245.105L354.742 229.048L255.056 167.299Z" fill="#FF9E5E"/>
<path fill-rule="evenodd" clip-rule="evenodd" d="M354.255 245.105L406.336 217.049L406.822 200.993L354.742 229.048L354.255 245.105Z" fill="#F77620"/>
<path fill-rule="evenodd" clip-rule="evenodd" d="M338.413 275.325L332.182 275.136C330.318 275.08 328.781 276.528 328.725 278.395L328.256 293.865C328.2 295.732 329.646 297.271 331.51 297.327L337.741 297.516C339.606 297.572 341.142 296.124 341.199 294.257L341.667 278.787C341.67 276.919 340.224 275.38 338.413 275.325Z" fill="#999999"/>
<path fill-rule="evenodd" clip-rule="evenodd" d="M277.896 307.343L258.051 295.476C256.899 294.801 255.972 295.467 255.926 297.014L255.724 303.681C255.678 305.175 256.582 307.018 257.681 307.692L277.526 319.558C278.679 320.234 279.605 319.568 279.652 318.021L279.856 311.3C279.901 309.806 278.995 308.017 277.896 307.343Z" fill="#E6E6E6"/>
<path fill-rule="evenodd" clip-rule="evenodd" d="M255.056 167.299L354.742 229.048L584.361 105.406L484.675 43.656C415.849 80.7079 323.882 130.247 255.056 167.299Z" fill="#FC883A"/>
<path fill-rule="evenodd" clip-rule="evenodd" d="M620.912 123.652C618.995 123.593 617.349 125.145 617.291 127.066L616.929 139.015L604.735 145.586C603.001 146.495 602.404 148.612 603.311 150.348C604.218 152.084 607.144 152.28 608.066 151.774C608.988 151.268 608.337 151.622 608.447 151.518L623.838 143.228L624.323 127.225C624.379 125.358 622.83 123.71 620.912 123.652Z" fill="#FCD1C0"/>
<path fill-rule="evenodd" clip-rule="evenodd" d="M620.912 123.652C618.995 123.593 617.349 125.145 617.291 127.066L616.974 137.521C616.959 138.001 618.544 138.476 620.462 138.534C622.379 138.592 623.988 138.267 624.005 137.734L624.321 127.279C624.379 125.358 622.83 123.71 620.912 123.652Z" fill="#5D97A6"/>
<path fill-rule="evenodd" clip-rule="evenodd" d="M612.5 183.142L617.21 186.061L626.965 180.804L627.123 175.576L622.414 172.657C615.043 176.652 612.463 177.321 612.5 183.142Z" fill="#BFA675"/>
<path fill-rule="evenodd" clip-rule="evenodd" d="M617.157 186.06L626.912 180.802L627.07 175.575C619.752 179.571 617.173 180.24 617.157 186.06Z" fill="#AB9363"/>
<path fill-rule="evenodd" clip-rule="evenodd" d="M623.221 144.224L620.782 145.538L618.344 146.853L618.118 154.321L617.563 172.617L617.479 175.391C617.447 176.458 619.55 177.429 622.213 177.51C624.876 177.591 627.033 176.802 627.067 175.681L627.151 172.908L627.929 147.196L625.574 145.737L623.221 144.224Z" fill="#5D97A6"/>
<path fill-rule="evenodd" clip-rule="evenodd" d="M636.05 123.736L631.863 121.153C630.607 120.368 628.866 119.781 627.51 120.541L620.52 124.28C625.041 133.44 629.141 154.708 633.663 163.815L640.762 160.025L641.581 132.98C641.623 129.831 639.19 125.647 636.05 123.736Z" fill="#71B2C2"/>
<path fill-rule="evenodd" clip-rule="evenodd" d="M629.005 127.527L624.818 124.944C621.731 123.036 619.088 124.023 618.992 127.224L618.173 154.269L633.663 163.815L634.481 136.823C634.578 133.623 632.09 129.489 629.005 127.527Z" fill="#71B2C2"/>
<path fill-rule="evenodd" clip-rule="evenodd" d="M625.425 191.169L630.134 194.088L639.889 188.83L640.048 183.603L635.338 180.684C628.022 184.627 625.389 185.294 625.425 191.169Z" fill="#BFA675"/>
<path fill-rule="evenodd" clip-rule="evenodd" d="M630.136 194.034L639.891 188.777L640.049 183.549C632.678 187.544 630.099 188.213 630.136 194.034Z" fill="#AB9363"/>
<path fill-rule="evenodd" clip-rule="evenodd" d="M636.148 152.197L633.709 153.511L631.27 154.826L631.044 162.294L630.49 180.59L630.406 183.364C630.373 184.431 632.476 185.402 635.139 185.483C637.803 185.564 639.959 184.775 639.993 183.654L640.077 180.881L640.855 155.169L638.501 153.71L636.148 152.197Z" fill="#71B2C2"/>
<path fill-rule="evenodd" clip-rule="evenodd" d="M638.095 130.152C636.177 130.094 634.531 131.646 634.473 133.566L634.111 145.515L621.917 152.086C620.183 152.995 619.586 155.113 620.493 156.849C621.4 158.585 624.326 158.78 625.248 158.274C626.17 157.768 625.519 158.122 625.629 158.019L641.02 149.728L641.505 133.726C641.561 131.859 640.065 130.211 638.095 130.152Z" fill="#FCD1C0"/>
<path fill-rule="evenodd" clip-rule="evenodd" d="M638.094 130.152C636.177 130.094 634.531 131.646 634.472 133.566L634.156 144.021C634.141 144.501 635.673 144.975 637.644 145.034C639.561 145.093 641.17 144.768 641.186 144.234L641.503 133.779C641.561 131.859 640.065 130.211 638.094 130.152Z" fill="#5D97A6"/>
<path fill-rule="evenodd" clip-rule="evenodd" d="M622.834 105.984L622.473 117.879C622.404 120.173 624.181 123.11 626.377 124.511L629.36 126.363C630.249 126.924 631.516 127.336 632.491 126.832L639.689 123.259C640.34 122.905 640.787 122.225 640.819 121.158L641.18 109.262L630.085 102.412L622.834 105.984Z" fill="#F7C6B2"/>
<path fill-rule="evenodd" clip-rule="evenodd" d="M622.472 117.932C622.402 120.226 624.179 123.163 626.376 124.564L629.358 126.417C631.61 127.766 633.443 127.074 633.513 124.781L633.873 112.885L622.779 106.035L622.418 117.931L622.472 117.932Z" fill="#FCD1C0"/>
<path fill-rule="evenodd" clip-rule="evenodd" d="M616.479 166.177L636.044 155.611L636.514 140.088L616.949 150.655L616.479 166.177Z" fill="#A18262"/>
<path fill-rule="evenodd" clip-rule="evenodd" d="M586.337 147.538L616.479 166.177L616.951 150.601L586.809 131.962L586.337 147.538Z" fill="#C49B72"/>
<path fill-rule="evenodd" clip-rule="evenodd" d="M586.809 131.962L616.951 150.601L636.514 140.088L606.427 121.398L586.809 131.962Z" fill="#D6AD85"/>
<path fill-rule="evenodd" clip-rule="evenodd" d="M625.15 161.528L627.425 160.315L627.897 144.739L625.62 146.005L625.15 161.528Z" fill="#856B51"/>
<path fill-rule="evenodd" clip-rule="evenodd" d="M595.479 127.313L625.62 146.005L627.897 144.739L597.755 126.1L595.479 127.313Z" fill="#C49B72"/>
<path fill-rule="evenodd" clip-rule="evenodd" d="M639.14 104.449C636.031 101.471 630.332 101.299 626.354 102.406C623.021 103.32 624.795 104.601 620.656 103.942C618.056 103.543 616.967 104.311 617.002 104.899C617.268 108.431 621.928 111.242 624.936 112.241C625.78 112.533 631.076 113.708 631.066 114.028C630.987 114.88 633.066 118.413 633.839 117.529C634.888 116.333 636.536 116.49 636.454 119.21C636.423 120.224 641.754 123.749 641.555 119.738C641.517 119.257 642.91 113.746 642.955 112.253C643.092 107.718 642.196 107.371 639.14 104.449Z" fill="#735139"/>
</g>
</g>
</g>
<rect x="-55" y="146" width="61" height="786" rx="30.5" fill="#0A4071"/>
<path d="M-62 187.5C-62 168.998 -47.0015 154 -28.5 154V154C-9.99846 154 5 168.998 5 187.5V920C5 925.523 0.522848 930 -5 930H-12C-39.6142 930 -62 907.614 -62 880V187.5Z" fill="#0A4071"/>
<rect x="-8" y="764" width="11" height="60" rx="5.5" fill="#F3AF2A"/>
<g clip-path="url(#clip3_101_2)">
<path d="M-55 65C-55 9.77153 -10.2285 -35 45 -35H95V104C95 142.66 63.6599 174 25 174H-55V65Z" fill="#0A4071"/>
<g opacity="0.8">
<path d="M34.7903 128.878H17.4604V145.052H34.7903V128.878Z" fill="#F3AF2A"/>
<path opacity="0.44" d="M27.7499 128.878H24.5564V133.607H27.7499V128.878Z" fill="white"/>
<path d="M32.2778 139.532H29.053V142.795H32.2778V139.532Z" fill="white"/>
<path d="M83.9859 145.003H15.0836C11.5811 145.003 8.7417 147.876 8.7417 151.419C8.7417 154.963 11.5811 157.836 15.0836 157.836H83.9859C87.4884 157.836 90.3278 154.963 90.3278 151.419C90.3278 147.876 87.4884 145.003 83.9859 145.003Z" fill="#E6E6E6"/>
<path opacity="0.45" d="M48.7425 177.111C79.6453 177.111 104.697 176.138 104.697 174.938C104.697 173.738 79.6453 172.765 48.7425 172.765C17.8397 172.765 -7.21191 173.738 -7.21191 174.938C-7.21191 176.138 17.8397 177.111 48.7425 177.111Z" fill="#E6E6E6"/>
<path d="M35.5999 127.672C35.5999 127.672 23.2741 142.028 32.3543 146.831C38.6301 150.15 45.6079 145.576 45.6079 145.576L35.5999 127.672Z" fill="#68E1FD"/>
<path opacity="0.08" d="M35.5999 127.672C35.5999 127.672 23.2741 142.028 32.3543 146.831C38.6301 150.15 45.6079 145.576 45.6079 145.576L35.5999 127.672Z" fill="black"/>
<path d="M57.0789 173.806L58.74 175.121C58.8017 175.173 58.8463 175.242 58.8678 175.32C58.8893 175.399 58.8866 175.481 58.8601 175.558C58.8336 175.635 58.7846 175.701 58.7196 175.749C58.6547 175.796 58.5769 175.823 58.4967 175.824H56.4117C56.264 175.824 56.1178 175.795 55.9814 175.737C55.845 175.68 55.7211 175.596 55.6168 175.49C55.5126 175.384 55.43 175.259 55.3738 175.121C55.3176 174.982 55.2889 174.834 55.2893 174.685V173.799L57.0789 173.806Z" fill="#68E1FD"/>
<path d="M39.3459 173.806L37.6849 175.121C37.6232 175.173 37.5785 175.242 37.5571 175.32C37.5356 175.399 37.5383 175.481 37.5648 175.558C37.5913 175.635 37.6403 175.701 37.7052 175.749C37.7702 175.796 37.848 175.823 37.9281 175.824H40.0305C40.3276 175.826 40.6133 175.709 40.825 175.498C41.0367 175.287 41.1571 175 41.1599 174.699V173.813L39.3459 173.806Z" fill="#68E1FD"/>
<path d="M46.0945 125.475L46.3725 120.7C46.3725 120.7 46.72 117.634 48.2281 118.19C49.7363 118.745 51.3244 121.762 50.5077 122.701C50.0664 123.207 49.6042 122.898 49.01 122.954C48.4992 123.003 48.5895 122.926 48.5895 123.442V125.264L46.0945 125.475Z" fill="#F4A28C"/>
<path d="M44.5864 125.225C44.5864 125.225 35.1414 124.374 33.9078 130.823C32.6741 137.271 41.4624 149.457 41.4624 149.457L53.7083 148.976C53.7083 148.976 72.7374 121.927 44.5864 125.225Z" fill="#68E1FD"/>
<path opacity="0.08" d="M52.9158 127.83C52.9158 127.83 45.594 132.303 49.1871 139.113C51.4945 143.484 45.594 149.31 45.594 149.31L53.7081 148.99C53.7081 148.99 56.6827 144.528 57.2769 142.791C57.8712 141.054 52.9158 127.83 52.9158 127.83Z" fill="black"/>
<path d="M41.4624 149.454L38.6824 173.809H41.4033L47.4811 154.26L54.3303 173.813H57.4474L53.7117 148.972L41.4624 149.454Z" fill="#24285B"/>
<path d="M46.0946 123.481H47.568C47.568 123.481 47.8877 120.728 48.9302 120.201C49.9727 119.673 51.0152 118.678 50.0874 117.768C49.1595 116.857 47.846 115.806 46.3031 116.889C44.7602 117.972 44.2146 120.58 46.0946 123.481Z" fill="#24285B"/>
<path d="M44.3222 119.557L52.3772 119.955L51.4598 118.583C51.4598 118.583 50.9594 115.366 49.1246 114.888C47.2898 114.41 44.0859 115.486 44.3222 119.557Z" fill="#F3AF2A"/>
<path d="M20.1815 111.221H-0.637207V174.818H20.1815V111.221Z" fill="#E6E6E6"/>
<path opacity="0.08" d="M23.2602 145.003H20.1848V157.836H23.2602V145.003Z" fill="black"/>
<path d="M16.4006 118.123H3.15039V136.336H16.4006V118.123Z" fill="#24285B"/>
<path d="M7.25435 125.601C8.27152 125.601 9.0961 124.767 9.0961 123.738C9.0961 122.709 8.27152 121.874 7.25435 121.874C6.23718 121.874 5.4126 122.709 5.4126 123.738C5.4126 124.767 6.23718 125.601 7.25435 125.601Z" fill="#F3AF2A"/>
<path d="M7.25435 131.572C8.27152 131.572 9.0961 130.737 9.0961 129.708C9.0961 128.679 8.27152 127.845 7.25435 127.845C6.23718 127.845 5.4126 128.679 5.4126 129.708C5.4126 130.737 6.23718 131.572 7.25435 131.572Z" fill="#68E1FD"/>
<path opacity="0.17" d="M14.3747 121.874H10.8684V131.568H14.3747V121.874Z" fill="white"/>
<path d="M83.0581 128.878H65.7283V145.052H83.0581V128.878Z" fill="#F3AF2A"/>
<path opacity="0.44" d="M76.0212 128.878H72.8276V133.607H76.0212V128.878Z" fill="white"/>
<path d="M80.5456 139.532H77.3208V142.795H80.5456V139.532Z" fill="white"/>
<path d="M109.725 158.68H92.3955V174.854H109.725V158.68Z" fill="#F3AF2A"/>
<path d="M51.3278 129.694C51.6232 126.944 54.6395 125.352 56.9747 126.793C58.6114 127.802 60.2447 129.571 61.1447 132.651C62.8822 138.684 62.0308 142.257 73.6547 142.436V145.667C73.6547 145.667 48.9613 151.743 51.3278 129.694Z" fill="#68E1FD"/>
<path opacity="0.39" d="M51.3278 129.694C51.6232 126.944 54.6395 125.352 56.9747 126.793C58.6114 127.802 60.2447 129.571 61.1447 132.651C62.8822 138.684 62.0308 142.257 73.6547 142.436V145.667C73.6547 145.667 48.9613 151.743 51.3278 129.694Z" fill="white"/>
<path d="M73.6409 143.02C73.6409 143.02 76.6711 142.584 76.9664 143.48C77.2618 144.377 77.0568 145.27 73.6409 145.003V143.02Z" fill="#F4A28C"/>
<path opacity="0.08" d="M22.4922 128.878L24.8587 145.003H20.1848V128.878H22.4922Z" fill="black"/>
<path d="M85.0111 149.454H76.0212V174.818H85.0111V149.454Z" fill="#E6E6E6"/>
<path opacity="0.08" d="M81.9739 154.187C83.6513 154.187 85.0111 152.811 85.0111 151.114C85.0111 149.416 83.6513 148.041 81.9739 148.041C80.2966 148.041 78.9368 149.416 78.9368 151.114C78.9368 152.811 80.2966 154.187 81.9739 154.187Z" fill="black"/>
<path d="M69.5752 112.553V119.012H73.7035L74.6035 121.583L75.6703 119.012H79.7952V112.553H69.5752Z" fill="#E6E6E6"/>
<path opacity="0.12" d="M74.1725 117.226C74.1266 117.224 74.0816 117.213 74.0407 117.191C73.9999 117.17 73.9642 117.14 73.9362 117.103L72.8554 115.697C72.8296 115.663 72.8107 115.624 72.7996 115.583C72.7885 115.542 72.7856 115.499 72.7909 115.457C72.7962 115.415 72.8097 115.374 72.8306 115.337C72.8515 115.3 72.8795 115.267 72.9128 115.241C72.9461 115.215 72.9841 115.196 73.0248 115.185C73.0654 115.174 73.1079 115.171 73.1497 115.176C73.1914 115.181 73.2318 115.195 73.2683 115.216C73.3049 115.237 73.337 115.266 73.3628 115.299L74.2107 116.403L76.2957 114.118C76.3248 114.088 76.3597 114.064 76.3982 114.047C76.4367 114.031 76.478 114.022 76.5198 114.022C76.5616 114.022 76.603 114.031 76.6415 114.047C76.68 114.064 76.7148 114.088 76.744 114.118C76.7752 114.147 76.8004 114.181 76.8182 114.22C76.836 114.258 76.846 114.3 76.8477 114.343C76.8493 114.385 76.8425 114.428 76.8277 114.468C76.8128 114.508 76.7903 114.544 76.7613 114.575L74.4157 117.138C74.3833 117.169 74.345 117.193 74.3031 117.208C74.2613 117.223 74.2168 117.229 74.1725 117.226V117.226Z" fill="black"/>
</g>
</g>
</g>
<defs>
<clipPath id="clip0_101_2">
<rect width="700" height="932" fill="white"/>
</clipPath>
<clipPath id="clip1_101_2">
<rect x="704.904" y="-115.001" width="504.105" height="771.467" rx="30" transform="rotate(82.5212 704.904 -115.001)" fill="white"/>
</clipPath>
<clipPath id="clip2_101_2">
<rect x="40.9661" y="-66.9544" width="746" height="523" rx="20" transform="rotate(1.73461 40.9661 -66.9544)" fill="white"/>
</clipPath>
<clipPath id="clip3_101_2">
<path d="M-55 65C-55 9.77153 -10.2285 -35 45 -35H95V104C95 142.66 63.6599 174 25 174H-55V65Z" fill="white"/>
</clipPath>
</defs>
</svg>
