<svg xmlns="http://www.w3.org/2000/svg" version="1.1" xmlns:xlink="http://www.w3.org/1999/xlink" xmlns:svgjs="http://svgjs.com/svgjs" width="512" height="512" x="0" y="0" viewBox="0 0 64 64" style="enable-background:new 0 0 512 512" xml:space="preserve" class=""><g><g><path d="m54 13c-1.654 0-3 1.346-3 3s1.346 3 3 3 3-1.346 3-3-1.346-3-3-3zm0 4c-.552 0-1-.448-1-1s.448-1 1-1 1 .448 1 1-.448 1-1 1z" fill="#000000" data-original="#000000"></path><path d="m63 17.729v-2.73c0-.725 0-.726-2.467-1.541l-.123-.266 1.164-2.343-2.424-2.423-2.37 1.147-.233-.092-.818-2.481h-3.459l-.809 2.465-.27.125-2.341-1.164-2.424 2.424 1.147 2.37-.092.233-2.481.818v3.459l2.465.809.125.27-1.164 2.343 2.424 2.424 2.37-1.147.233.092.825 2.479h3.451l.809-2.465.27-.125 2.343 1.164 2.424-2.424-1.147-2.37.092-.233zm-3.106-1.083c-.563.186-1.017.623-1.254 1.225l-.049.117c-.242.562-.232 1.185.028 1.71l.523 1.054-.391.391-1.055-.523c-.524-.262-1.147-.272-1.708-.028l-.142.059c-.578.228-1.016.681-1.201 1.244l-.363 1.105h-.564l-.364-1.106c-.186-.563-.623-1.017-1.225-1.254l-.117-.049c-.561-.241-1.185-.233-1.71.028l-1.054.523-.391-.391.523-1.055c.261-.524.271-1.147.028-1.708l-.059-.142c-.228-.578-.681-1.016-1.244-1.201l-1.105-.363v-.564l1.106-.364c.563-.186 1.017-.623 1.254-1.225l.049-.117c.242-.562.232-1.185-.028-1.71l-.523-1.054.391-.391 1.055.523c.525.262 1.147.272 1.708.028l.142-.059c.578-.228 1.016-.681 1.201-1.244l.363-1.105h.564l.364 1.106c.186.563.623 1.017 1.225 1.254l.117.049c.56.241 1.185.233 1.71-.028l1.054-.523.391.391-.523 1.055c-.261.524-.271 1.147-.028 1.708l.059.142c.228.577.68 1.015 1.243 1.2 0 0 .604.2 1.107.367v.562z" fill="#000000" data-original="#000000"></path><path d="m27 5h2v2h-2z" fill="#000000" data-original="#000000"></path><path d="m31 5h2v2h-2z" fill="#000000" data-original="#000000"></path><path d="m35 5h2v2h-2z" fill="#000000" data-original="#000000"></path><path d="m25 11h2v1.764c0 1.233 1.003 2.236 2.236 2.236.852 0 1.617-.474 2-1.236l1.382-2.764h6.382c1.103 0 2-.897 2-2v-6c0-1.103-.897-2-2-2h-14c-1.103 0-2 .897-2 2v6c0 1.103.897 2 2 2zm0-8h14l.002 6h-7.62l-1.934 3.868c-.099.198-.448.115-.448-.104v-3.764h-4z" fill="#000000" data-original="#000000"></path><path d="m5 22c0 1.654 1.346 3 3 3s3-1.346 3-3v-1.876l.062-.246c.374-1.5 1.151-2.962 2.376-4.47 1.262-1.554 1.786-3.512 1.478-5.513-.467-3.027-3.02-5.485-6.071-5.846-1.994-.233-3.999.391-5.492 1.719-1.496 1.329-2.353 3.236-2.353 5.232 0 1.609.561 3.181 1.577 4.425 1.173 1.436 1.985 3.026 2.423 4.723zm2-9c0-.552.448-1 1-1s1 .448 1 1-.448 1-1 1-1-.448-1-1zm1 10c-.552 0-1-.448-1-1v-1h2v1c0 .552-.448 1-1 1zm-5-12c0-1.425.613-2.787 1.682-3.737 1.081-.962 2.475-1.398 3.928-1.227 2.176.257 3.997 2.008 4.329 4.164.222 1.436-.153 2.838-1.054 3.947-1.31 1.613-2.182 3.204-2.658 4.853h-.227v-3.184c1.161-.414 2-1.514 2-2.816 0-1.654-1.346-3-3-3s-3 1.346-3 3c0 1.302.839 2.402 2 2.816v3.184h-.242c-.54-1.735-1.423-3.36-2.632-4.841-.727-.888-1.126-2.01-1.126-3.159z" fill="#000000" data-original="#000000"></path><circle cx="29" cy="31" r="1" fill="#000000" data-original="#000000"></circle><circle cx="35" cy="31" r="1" fill="#000000" data-original="#000000"></circle><path d="m35.789 34.658.105-.211-1.789-.895-.105.212c-.381.762-1.147 1.236-2 1.236s-1.619-.474-2-1.236l-.105-.211-1.789.895.105.211c.722 1.444 2.174 2.341 3.789 2.341s3.067-.897 3.789-2.342z" fill="#000000" data-original="#000000"></path><path d="m58 27h-5.07c-3.27 0-5.93 2.66-5.93 5.93 0 3.806-1.351 7.445-3.792 10.342-.709-.266-1.444-.459-2.191-.566l-4.209-.601-.582-2.325c1.715-1.073 2.991-2.773 3.511-4.78h.263c2.206 0 4-1.794 4-4 0-1.474-.81-2.75-2-3.444v-1.556c0-4.963-4.037-9-9-9h-2c-4.963 0-9 4.037-9 9v1.556c-1.19.694-2 1.97-2 3.444 0 2.206 1.794 4 4 4h.263c.519 2.007 1.796 3.708 3.511 4.78l-.582 2.325-4.209.601c-.747.107-1.483.3-2.191.566-2.441-2.897-3.792-6.537-3.792-10.342 0-3.27-2.66-5.93-5.93-5.93h-5.07c-1.654 0-3 1.346-3 3 0 1.649 1.181 3.043 2.809 3.315l3.191.532v1.668c0 5.333 1.967 10.396 5.52 14.348-.329 1.022-.52 2.096-.52 3.201v9.936h36v-9.936c0-1.106-.191-2.179-.52-3.202 3.553-3.951 5.52-9.015 5.52-14.347v-1.668l3.192-.531c1.627-.273 2.808-1.667 2.808-3.316 0-1.654-1.346-3-3-3zm-19.408 17.38-1.982 3.22-2.821-1.692 2.479-1.859zm-6.592 10.712-.925-1.503.925-3.585.925 3.585zm-3.562-5.789 1.984-1.19-.802 3.109zm5.943 1.92-.802-3.109 1.984 1.19zm5.619-18.223v-4c1.103 0 2 .897 2 2s-.897 2-2 2zm-16-7c0-3.859 3.141-7 7-7h2c3.859 0 7 3.141 7 7v1h-1c-1.543 0-2.976-.767-3.832-2.051l-1.168-1.752-.832 1.248c-1.066 1.6-2.851 2.555-4.773 2.555h-3.395-1zm-2 5c0-1.103.897-2 2-2v4c-1.103 0-2-.897-2-2zm4 2v-4h2.395c2.117 0 4.111-.859 5.554-2.349 1.033 1.228 2.472 2.032 4.052 2.273v4.076c0 3.309-2.691 6-6 6s-6.001-2.691-6.001-6zm6 8c.828 0 1.628-.127 2.379-.361l.489 1.96-2.868 2.151-2.869-2.152.489-1.96c.752.235 1.552.362 2.38.362zm-4.268 3.048 2.479 1.859-2.821 1.693-1.981-3.219zm-21.594-12.705c-.659-.111-1.138-.675-1.138-1.343 0-.552.448-1 1-1h5.07c2.167 0 3.93 1.763 3.93 3.93 0 .74.061 1.472.15 2.198l-4.136.689c-.001-.101-.014-.201-.014-.302v-1.668c0-.98-.702-1.81-1.672-1.973zm5.013 6.479 4.353-.725c.61 2.578 1.777 4.995 3.449 7.089-.097.06-.199.11-.294.173-1.362.908-2.455 2.109-3.247 3.481-2.359-2.879-3.826-6.338-4.261-10.018zm4.849 15.242c0-2.837 1.409-5.469 3.769-7.042 1.04-.693 2.244-1.153 3.482-1.333l7.749 12.594v3.717h-9v-9h-2v9h-4zm32 7.936h-4v-9h-2v9h-9v-3.717l7.75-12.593c1.237.18 2.441.639 3.482 1.333 2.359 1.573 3.768 4.205 3.768 7.041zm-2.659-16.642c-.094-.063-.197-.113-.294-.173 1.671-2.094 2.839-4.511 3.449-7.089l4.353.725c-.435 3.68-1.902 7.139-4.26 10.018-.793-1.371-1.886-2.573-3.248-3.481zm12.522-13.015-3.193.531c-.968.163-1.67.992-1.67 1.973v1.668c0 .102-.013.201-.014.303l-4.136-.689c.089-.727.15-1.459.15-2.199 0-2.167 1.763-3.93 3.93-3.93h5.07c.552 0 1 .448 1 1 0 .668-.479 1.232-1.137 1.343z" fill="#000000" data-original="#000000"></path></g></g></svg>