<svg xmlns="http://www.w3.org/2000/svg" version="1.1" xmlns:xlink="http://www.w3.org/1999/xlink" xmlns:svgjs="http://svgjs.com/svgjs" width="512" height="512" x="0" y="0" viewBox="0 0 512 512" style="enable-background:new 0 0 512 512" xml:space="preserve" class=""><g><g><circle cx="290" cy="45.5" r="45.5" fill="#000000" data-original="#000000" class=""></circle><path d="m280.5 421v-75c0-8.284-6.716-15-15-15h-17.837l.337-44.888c.063-8.31-6.66-15.112-15-15.112h-61c-8.344 0-15.062 6.806-15 15.112l.337 44.888h-17.837c-8.284 0-15 6.716-15 15v75c0 8.284 6.716 15 15 15h126c8.284 0 15-6.716 15-15zm-62.838-90h-30.324l-.225-30h30.774z" fill="#000000" data-original="#000000" class=""></path><path d="m329.385 101h-24.385v125c0 8.284-6.716 15-15 15s-15-6.716-15-15v-125h-24.385c-32.045 0-58.115 26.07-58.115 58.115v81.885h40.5c24.749 0 44.988 20.103 44.992 45h109.508v-126.885c0-32.045-26.07-58.115-58.115-58.115z" fill="#000000" data-original="#000000" class=""></path><path d="m310.5 346v75c0 24.813-20.187 45-45 45h-39.486l1.503 31.71c.379 7.999 6.975 14.29 14.983 14.29h91c8.036 0 14.644-6.332 14.986-14.36l7.748-181.64h-57.232c7.145 7.965 11.498 18.481 11.498 30z" fill="#000000" data-original="#000000" class=""></path></g></g></svg>