<svg xmlns="http://www.w3.org/2000/svg" version="1.1" xmlns:xlink="http://www.w3.org/1999/xlink" xmlns:svgjs="http://svgjs.com/svgjs" width="512" height="512" x="0" y="0" viewBox="0 0 32 32" style="enable-background:new 0 0 512 512" xml:space="preserve" class=""><g><g id="_x31_9"><circle cx="16" cy="5" r="3" fill="#000000" data-original="#000000"></circle><path d="m21 11c0-1.6542969-1.3457031-3-3-3h-2-2c-1.6542969 0-3 1.3457031-3 3v2h10z" fill="#000000" data-original="#000000"></path><circle cx="25" cy="5" r="3" fill="#000000" data-original="#000000"></circle><circle cx="7" cy="5" r="3" fill="#000000" data-original="#000000"></circle><path d="m10 11c0-.8950806.3060303-1.7137451.8046875-2.3809814-.5037231-.3828736-1.1245117-.6190186-1.8046875-.6190186h-2-2c-1.6542969 0-3 1.3457031-3 3v2h8z" fill="#000000" data-original="#000000"></path><path d="m27 8h-2-2c-.6801758 0-1.3009644.236145-1.8046875.6190186.4986572.6672363.8046875 1.4859008.8046875 2.3809814v2h8v-2c0-1.6542969-1.3457031-3-3-3z" fill="#000000" data-original="#000000"></path><path d="m4 17h-2v12h2c.5523071 0 1-.4477539 1-1v-10c0-.5523071-.4476929-1-1-1z" fill="#000000" data-original="#000000"></path><path d="m28.8540039 18.3375244c-.722168-.4315796-1.597168-.4501343-2.3364258-.0507813l-6.5485229 3.5202637c-.1528931 1.2331543-1.1953736 2.1937867-2.4690552 2.1937867h-4.0200195c-.2763672 0-.5-.2235718-.5-.499939 0-.2763062.2236328-.499939.5-.499939h4.0200195c.8271484 0 1.5-.6727295 1.5-1.4997559 0-.8113403-.6486206-1.4703369-1.4541016-1.4951782-.2993164-.003479-5.1318359-.0046387-5.1318359-.0046387l-1.7070313-1.7067871c-.1875-.1875-.4418945-.2929077-.7070313-.2929077h-3.9999999v10.0005493h1.765625l3.234375.9979249c1.34375.4320678 2.7810059.9998779 4.3735352.9998779 1.4399414 0 2.8588867-.477478 4.0834961-1.4158325l9.5234375-6.3028564c.6381835-.437439 1.0195312-1.1599732 1.0195312-1.9313965 0-.8328858-.4282227-1.5847168-1.1459961-2.0123902z" fill="#000000" data-original="#000000"></path></g></g></svg>