<svg xmlns="http://www.w3.org/2000/svg" version="1.1" xmlns:xlink="http://www.w3.org/1999/xlink" xmlns:svgjs="http://svgjs.com/svgjs" width="512" height="512" x="0" y="0" viewBox="0 0 500 500" style="enable-background:new 0 0 512 512" xml:space="preserve" class=""><g><path clip-rule="evenodd" d="m352.38 373.87-65.65 37.9c-1.61 1.07-3.75 1.21-5.53.17l-65.93-38.07v73.13l68.57 39.59 68.55-39.58v-73.14zm-131.91-9.08 63.34-36.57 63.35 36.58-63.34 36.57zm69.72-186.03c1.21 2.74 1.81 5.73 1.81 8.74s-.6 6-1.81 8.74c-3.11 7.04-10.36 12.54-21.82 12.54h-55.95c-9.97 0-19.01 4.06-25.57 10.62-6.55 6.55-10.62 15.6-10.62 25.57v227c0 9.43-5.17 15.43-11.78 18.04-2.68 1.05-5.61 1.58-8.56 1.58s-5.88-.53-8.56-1.58c-6.61-2.6-11.78-8.61-11.78-18.04 0-7.63-.04-36.03-.08-64.44-.02-15.93-.05-31.86-.06-47.79-.01-10.62-5.94-17.44-13.52-20.44-2.82-1.12-5.91-1.67-9.01-1.67s-6.19.56-9.01 1.68c-7.59 3.01-13.52 9.83-13.52 20.44-.01 15.99-.02 31.97-.04 47.96l-.06 64.26c0 9.43-5.17 15.43-11.78 18.04-2.68 1.05-5.61 1.58-8.56 1.58s-5.88-.53-8.56-1.58c-6.61-2.6-11.78-8.61-11.78-18.04v-239.55h-10.5v105.67c0 9.32-4.98 15.25-11.35 17.81-2.55 1.03-5.36 1.54-8.19 1.54s-5.64-.51-8.19-1.54c-6.36-2.56-11.34-8.49-11.34-17.82v-99.56c0-21.91 8.34-39.49 21.84-51.77 14.61-13.29 35.31-20.53 58.13-20.53h188.4c11.46 0 18.72 5.5 21.82 12.54zm-134.57-152.66c-10.93-10.93-26.03-17.69-42.7-17.69s-31.77 6.76-42.7 17.69-17.69 26.02-17.69 42.7 6.76 31.77 17.69 42.7 26.03 17.69 42.7 17.69 31.77-6.76 42.7-17.69 17.69-26.03 17.69-42.7c-.01-16.68-6.76-31.77-17.69-42.7zm212.48 338.69 63.35 36.58 63.34-36.57-63.35-36.58zm131.9 9.08v73.15l-68.55 39.58-68.57-39.59v-73.13l65.93 38.07v-.01c1.56.9 3.55.97 5.23.01zm-73.81-127.85-65.65 37.9c-1.61 1.07-3.75 1.21-5.53.17l-65.93-38.07v73.14l68.56 39.58 68.56-39.58v-73.14zm-131.9-9.08 63.34-36.57 63.35 36.58-63.34 36.57z" fill="#000000" fill-rule="evenodd" data-original="#000000" class=""></path></g></svg>