<svg xmlns="http://www.w3.org/2000/svg" version="1.1" xmlns:xlink="http://www.w3.org/1999/xlink" xmlns:svgjs="http://svgjs.com/svgjs" width="512" height="512" x="0" y="0" viewBox="0 0 512 512" style="enable-background:new 0 0 512 512" xml:space="preserve" class=""><g><g><path d="m383 473.75h-37v-35.5h-180v35.499h-37c-8.284 0-15 6.716-15 15s6.716 15 15 15h254c8.284 0 15-6.716 15-15s-6.716-14.999-15-14.999z" fill="#000000" data-original="#000000"></path><path d="m0 378.25c0 16.542 13.458 30 30 30h452c16.542 0 30-13.458 30-30v-30h-512z" fill="#000000" data-original="#000000"></path><path d="m482 8.25h-452c-16.542 0-30 13.458-30 30v280.001h512v-280.001c0-16.542-13.458-30-30-30zm-125.981 135.001c0 8.284-6.716 15-15 15h-166.019c-8.284 0-15-6.716-15-15s6.716-15 15-15h166.019c8.284 0 15 6.716 15 15zm-221.019-75.001h63c8.284 0 15 6.716 15 15s-6.716 15-15 15h-63c-8.284 0-15-6.716-15-15s6.716-15 15-15zm-59.999 210.002c-8.262 0-15-6.739-15-15 0-8.262 6.738-15 15-15s15 6.738 15 15c0 8.261-6.738 15-15 15zm0-60c-8.262 0-15-6.739-15-15 0-8.262 6.738-15 15-15s15 6.738 15 15c0 8.261-6.738 15-15 15zm0-60c-8.262 0-15-6.739-15-15 0-8.262 6.738-15 15-15s15 6.738 15 15c0 8.261-6.738 15-15 15zm0-60.001c-8.262 0-15-6.739-15-15 0-8.262 6.738-15 15-15s15 6.738 15 15c0 8.261-6.738 15-15 15zm122.999 180h-63c-8.284 0-15-6.716-15-15s6.716-15 15-15h63c8.284 0 15 6.716 15 15s-6.716 15-15 15zm47-60h-70c-8.284 0-15-6.716-15-15s6.716-15 15-15h70c8.284 0 15 6.716 15 15s-6.716 15-15 15zm103.5 0h-51.834c-8.284 0-15-6.716-15-15s6.716-15 15-15h51.834c8.284 0 15 6.716 15 15s-6.715 15-15 15zm88.5 0h-36c-8.284 0-15-6.716-15-15s6.716-15 15-15h36c8.284 0 15 6.716 15 15s-6.716 15-15 15zm0-60h-36c-8.284 0-15-6.716-15-15s6.716-15 15-15h36c8.284 0 15 6.716 15 15s-6.716 15-15 15z" fill="#000000" data-original="#000000"></path></g></g></svg>